<svg width="33" height="32" viewBox="0 0 33 32" fill="none" xmlns="http://www.w3.org/2000/svg">
<g clip-path="url(#clip0_167_4902)">
<path d="M20.58 7.04399L28.1227 14.5867C28.4972 14.9617 28.7076 15.47 28.7076 16C28.7076 16.53 28.4972 17.0383 28.1227 17.4133L20.5813 24.9573C20.2061 25.3325 19.6973 25.5433 19.1667 25.5433C18.6361 25.5433 18.1272 25.3325 17.752 24.9573C17.3768 24.5821 17.166 24.0733 17.166 23.5427C17.166 23.0121 17.3768 22.5032 17.752 22.128L21.88 18H6.5C5.96957 18 5.46086 17.7893 5.08579 17.4142C4.71071 17.0391 4.5 16.5304 4.5 16C4.5 15.4696 4.71071 14.9609 5.08579 14.5858C5.46086 14.2107 5.96957 14 6.5 14H21.88L17.7533 9.87199C17.3783 9.4968 17.1677 8.988 17.1678 8.45752C17.168 7.92704 17.3788 7.41834 17.754 7.04333C18.1292 6.66831 18.638 6.4577 19.1685 6.45782C19.6989 6.45795 20.2077 6.6688 20.5827 7.04399H20.58Z" fill="black"/>
</g>
<defs>
<clipPath id="clip0_167_4902">
<rect width="32" height="32" fill="white" transform="translate(0.5)"/>
</clipPath>
</defs>
</svg>
