<svg width="600" height="448" viewBox="0 0 600 448" fill="none" xmlns="http://www.w3.org/2000/svg">
<path d="M600 393.617H0V393.92H600V393.617Z" fill="#EBEBEB"/>
<path d="M429.217 401.804H389.473V402.108H429.217V401.804Z" fill="#EBEBEB"/>
<path d="M524.711 404.437H514.283V404.74H524.711V404.437Z" fill="#EBEBEB"/>
<path d="M453.444 412.961H430.416V413.265H453.444V412.961Z" fill="#EBEBEB"/>
<path d="M300 408.897H248.172V409.201H300V408.897Z" fill="#EBEBEB"/>
<path d="M237.48 408.897H229.884V409.201H237.48V408.897Z" fill="#EBEBEB"/>
<path d="M205.188 403.824H92.7722V404.127H205.188V403.824Z" fill="#EBEBEB"/>
<path d="M284.4 339.997H52.6917C50.8765 339.993 49.1367 339.269 47.8543 337.982C46.5719 336.695 45.8517 334.95 45.8517 333.132V6.80474C45.8675 4.99659 46.5947 3.26769 47.8754 1.9936C49.1561 0.719497 50.8868 0.00309747 52.6917 0H284.4C286.217 0 287.96 0.72326 289.245 2.01067C290.53 3.29808 291.252 5.04418 291.252 6.86485V333.132C291.252 334.952 290.53 336.699 289.245 337.986C287.96 339.273 286.217 339.997 284.4 339.997ZM52.6917 0.240451C50.956 0.243636 49.2926 0.936632 48.0665 2.16733C46.8403 3.39803 46.1517 5.06587 46.1517 6.80474V333.132C46.1517 334.871 46.8403 336.539 48.0665 337.769C49.2926 339 50.956 339.693 52.6917 339.696H284.4C286.136 339.693 287.801 339 289.029 337.77C290.257 336.54 290.949 334.872 290.952 333.132V6.80474C290.949 5.06476 290.257 3.39695 289.029 2.1666C287.801 0.936242 286.136 0.243629 284.4 0.240451H52.6917Z" fill="#EBEBEB"/>
<path d="M543.972 339.997H312.252C310.436 339.993 308.695 339.269 307.411 337.983C306.126 336.696 305.403 334.952 305.4 333.132V6.80474C305.419 4.99549 306.149 3.26661 307.432 1.99284C308.714 0.719077 310.446 0.00306369 312.252 0H543.972C545.775 0.00625711 547.503 0.724055 548.781 1.99781C550.059 3.27157 550.784 4.99866 550.8 6.80474V333.132C550.8 334.948 550.082 336.691 548.802 337.978C547.522 339.264 545.785 339.99 543.972 339.997ZM312.252 0.240451C310.516 0.243629 308.851 0.936242 307.623 2.1666C306.395 3.39695 305.703 5.06476 305.7 6.80474V333.132C305.703 334.872 306.395 336.54 307.623 337.77C308.851 339 310.516 339.693 312.252 339.696H543.972C545.709 339.693 547.374 339 548.602 337.77C549.83 336.54 550.521 334.872 550.524 333.132V6.80474C550.521 5.06476 549.83 3.39695 548.602 2.1666C547.374 0.936242 545.709 0.243629 543.972 0.240451H312.252Z" fill="#EBEBEB"/>
<path d="M140.76 303.845C134.496 301.717 129.96 295.658 133.92 289.418C140.52 279.151 124.02 276.963 128.652 259.782C135.18 235.521 155.448 256.548 160.488 233.261C164.088 216.321 192.552 205.224 193.656 227.526C194.856 251.956 207.096 236.002 209.808 263.149C211.68 281.928 185.016 284.657 193.008 290.524C198.828 294.816 202.26 302.282 194.148 307.356C183.096 314.317 193.524 319.751 186.012 324.608C178.5 329.465 177.276 321.722 165.612 325.498C155.184 328.864 146.34 318.536 148.416 312.08C150.324 306.129 147.06 305.985 140.76 303.845Z" fill="#E6E6E6"/>
<path d="M201.048 314.99C201.048 314.99 200.196 393.593 167.304 393.593C134.412 393.593 133.572 314.99 133.572 314.99H201.048Z" fill="#F0F0F0"/>
<path d="M336.876 208.038H523.764V34.7571H336.876V208.038Z" fill="#E6E6E6"/>
<path d="M332.4 208.038H521.676V34.7571H332.4V208.038Z" fill="#F0F0F0"/>
<path d="M515.387 200.956V41.826H338.687V200.956H515.387Z" fill="#FAFAFA"/>
<path d="M412.103 200.956L443.315 41.8262H484.223L453.011 200.956H412.103Z" fill="white"/>
<path d="M459.384 200.956L490.584 41.8262H509.064L477.852 200.956H459.384Z" fill="white"/>
<path d="M360.948 200.956L392.16 41.8262H398.94L367.728 200.956H360.948Z" fill="white"/>
<path d="M339.467 200.944V41.8144H338.662V200.944H339.467Z" fill="#E6E6E6"/>
<path d="M528.48 34.4685V156.1H510.348C510.348 156.1 477.768 81.8372 470.4 38.0392C470.221 36.9912 470.274 35.9166 470.554 34.891C470.834 33.8654 471.334 32.9137 472.02 32.1025C472.706 31.2914 473.561 30.6405 474.525 30.1956C475.489 29.7508 476.539 29.5226 477.6 29.5273H523.632C524.925 29.5494 526.158 30.0797 527.065 31.004C527.972 31.9282 528.48 33.1725 528.48 34.4685Z" fill="#E6E6E6"/>
<path d="M528.48 224.965V161.643H510.348C510.348 161.643 499.056 198.913 494.748 224.965H528.48Z" fill="#E6E6E6"/>
<path d="M510.876 161.643H527.82C528.821 161.643 529.632 160.83 529.632 159.827V157.916C529.632 156.913 528.821 156.1 527.82 156.1H510.876C509.876 156.1 509.065 156.913 509.065 157.916V159.827C509.065 160.83 509.876 161.643 510.876 161.643Z" fill="#E0E0E0"/>
<path d="M327.264 34.4685V156.1H345.396C345.396 156.1 377.976 81.8372 385.38 38.0392C385.558 36.9912 385.506 35.9166 385.226 34.891C384.946 33.8654 384.445 32.9137 383.759 32.1025C383.073 31.2914 382.218 30.6405 381.254 30.1956C380.29 29.7508 379.241 29.5226 378.18 29.5273H332.196C330.888 29.5273 329.633 30.0479 328.708 30.9745C327.783 31.9012 327.264 33.158 327.264 34.4685Z" fill="#E6E6E6"/>
<path d="M327.264 224.965V161.643H345.396C345.396 161.643 356.676 198.913 360.996 224.965H327.264Z" fill="#E6E6E6"/>
<path d="M344.868 156.1H327.924C326.923 156.1 326.112 156.913 326.112 157.915V159.827C326.112 160.83 326.923 161.642 327.924 161.642H344.868C345.868 161.642 346.68 160.83 346.68 159.827V157.915C346.68 156.913 345.868 156.1 344.868 156.1Z" fill="#E0E0E0"/>
<path d="M267.769 393.617H313.129V275.712H267.769V393.617Z" fill="#E6E6E6"/>
<path d="M279.877 393.617H267.757V373.275H292.573L279.877 393.617Z" fill="#F5F5F5"/>
<path d="M484.751 393.617H530.111V275.712H484.751V393.617Z" fill="#E6E6E6"/>
<path d="M267.756 386.62H495.324V275.725H267.756V386.62Z" fill="#F5F5F5"/>
<path d="M277.151 309.243H485.927V286.004H277.151V309.243Z" fill="#F0F0F0"/>
<path d="M483.217 393.617H495.325V373.275H470.509L483.217 393.617Z" fill="#F5F5F5"/>
<path d="M277.151 342.786H485.927V319.547H277.151V342.786Z" fill="#F0F0F0"/>
<path d="M277.151 376.329H485.927V353.089H277.151V376.329Z" fill="#F0F0F0"/>
<path d="M161.411 174.386H258.815V68.4077H161.411V174.386Z" fill="#E6E6E6"/>
<path d="M153.168 174.386H256.476V68.4077H153.168V174.386Z" fill="#F5F5F5"/>
<path d="M249.886 167.774V74.9965H159.754V167.774H249.886Z" fill="white"/>
<path d="M234 133.642C234.002 130.424 233.37 127.237 232.142 124.264C230.914 121.29 229.112 118.589 226.841 116.313C224.57 114.038 221.873 112.233 218.905 111.002C215.937 109.771 212.756 109.139 209.544 109.14H175.62C175.62 115.639 178.197 121.871 182.783 126.466C187.37 131.061 193.59 133.642 200.076 133.642H234Z" fill="#F5F5F5"/>
<path d="M79.6085 101.638H137.569V37.1734H79.6085V101.638Z" fill="#E6E6E6"/>
<path d="M71.3764 101.638H135.24V37.1734H71.3764V101.638Z" fill="#F5F5F5"/>
<path d="M128.64 95.0379V43.7619H77.952V95.0379H128.64Z" fill="white"/>
<path d="M118.287 69.4058L103.31 54.4012L88.3339 69.4058L103.31 84.4104L118.287 69.4058Z" fill="#F5F5F5"/>
<path d="M176.4 250.958C216.444 296.091 261.756 238.936 305.892 268.403C332.568 286.22 335.388 306.791 369.192 311.888C392.724 315.435 416.724 308.077 442.056 312.958C485.352 321.314 537.672 319.066 542.4 262.271C544.368 238.575 536.964 207.99 507.228 186.926C481.92 169.001 455.028 184.762 429.336 172.079C380.232 147.829 400.176 70.2479 333.9 62.6737C275.676 56.0733 263.28 122.005 203.712 113.829C159.072 107.698 83.2562 83.0398 71.7122 156.101C66.8042 187.251 87.8522 206.198 112.176 215.852C145.728 229.222 150.084 221.335 176.4 250.958Z" fill="#407BFF"/>
<path d="M176.4 250.958C216.444 296.091 261.756 238.936 305.892 268.403C332.568 286.22 335.388 306.791 369.192 311.888C392.724 315.435 416.724 308.077 442.056 312.958C485.352 321.314 537.672 319.066 542.4 262.271C544.368 238.575 536.964 207.99 507.228 186.926C481.92 169.001 455.028 184.762 429.336 172.079C380.232 147.829 400.176 70.2479 333.9 62.6737C275.676 56.0733 263.28 122.005 203.712 113.829C159.072 107.698 83.2562 83.0398 71.7122 156.101C66.8042 187.251 87.8522 206.198 112.176 215.852C145.728 229.222 150.084 221.335 176.4 250.958Z" fill="white"/>
<path d="M300.001 447.911C428.5 447.911 532.669 441.818 532.669 434.301C532.669 426.785 428.5 420.692 300.001 420.692C171.502 420.692 67.3327 426.785 67.3327 434.301C67.3327 441.818 171.502 447.911 300.001 447.911Z" fill="#8E8787"/>
<path d="M114.001 431.272H486.001L448.801 366.723H151.201L114.001 431.272Z" fill="#F7F7F7"/>
<path d="M151.201 366.723H448.801L411.599 302.162H188.399L151.201 366.723Z" fill="#FF4680"/>
<path d="M225.6 237.613L188.399 302.162H411.599L374.4 237.613H225.6Z" fill="#FF66C4"/>
<path d="M337.2 173.065H262.8L225.6 237.613H374.4L337.2 173.065Z" fill="#787FFA"/>
<path d="M216.588 80.4426C215.976 80.8994 215.148 81.5486 214.416 82.1497C213.684 82.7509 212.94 83.352 212.208 84.0613C210.768 85.3838 209.34 86.7303 207.996 88.149C205.339 90.9692 202.968 94.0459 200.916 97.3342C200.472 98.0676 199.716 99.3059 199.848 99.1376C199.695 99.5606 199.65 100.015 199.716 100.46C199.97 102.133 200.485 103.756 201.24 105.269C203.002 108.853 205.053 112.286 207.372 115.536L204 118.782C200.515 115.928 197.455 112.588 194.916 108.864C193.461 106.765 192.388 104.424 191.748 101.951C191.342 100.328 191.317 98.632 191.676 96.9975C191.777 96.5205 191.922 96.0538 192.108 95.6029C192.237 95.2738 192.385 94.9527 192.552 94.6411L193.308 93.0902C195.412 89.0192 198.021 85.2302 201.072 81.8131C202.567 80.1282 204.149 78.523 205.812 77.0041C206.652 76.2467 207.516 75.5013 208.392 74.7799C209.268 74.0586 210.132 73.4094 211.248 72.6399L216.588 80.4426Z" fill="#B55B52"/>
<path d="M217.392 66.5082C211.488 66.7727 202.596 78.675 202.596 78.675L212.088 89.9521C212.088 89.9521 224.088 83.472 225.408 74.8999C226.044 70.6199 223.2 66.2437 217.392 66.5082Z" fill="#407BFF"/>
<path d="M205.883 114.129L212.915 120.141L206.315 121.812C206.315 121.812 202.211 119.407 203.411 116.053L205.883 114.129Z" fill="#B55B52"/>
<path d="M212.964 123.664L209.532 126.994L206.316 121.872L212.916 120.201L212.964 123.664Z" fill="#B55B52"/>
<path d="M261.672 51.3118C261.384 51.925 261.48 52.5982 261.888 52.8026C262.296 53.007 262.848 52.6583 263.088 52.0452C263.328 51.4321 263.28 50.7588 262.884 50.5544C262.488 50.35 261.96 50.6867 261.672 51.3118Z" fill="#263238"/>
<path d="M262.728 50.4945L264.42 50.8071C264.42 50.8071 263.112 51.5885 262.728 50.4945Z" fill="#263238"/>
<path d="M261.912 52.1776C261.805 53.8733 261.926 55.5757 262.272 57.2391C261.846 57.3049 261.411 57.2778 260.997 57.1595C260.583 57.0412 260.199 56.8346 259.872 56.5538L261.912 52.1776Z" fill="#A02724"/>
<path d="M264.431 47.5852C264.367 47.5697 264.309 47.5363 264.263 47.489C263.901 47.1218 263.459 46.8431 262.972 46.6742C262.485 46.5053 261.966 46.4509 261.455 46.5152C261.403 46.5275 261.349 46.5291 261.296 46.5199C261.243 46.5107 261.193 46.4909 261.148 46.4617C261.103 46.4325 261.065 46.3944 261.035 46.3499C261.005 46.3054 260.985 46.2553 260.975 46.2026C260.953 46.0975 260.974 45.9881 261.033 45.8981C261.091 45.8081 261.182 45.7448 261.287 45.7217C261.928 45.6338 262.58 45.6967 263.193 45.9054C263.805 46.114 264.36 46.4628 264.815 46.9239C264.852 46.9609 264.882 47.0048 264.902 47.0533C264.922 47.1018 264.933 47.1539 264.933 47.2065C264.933 47.2591 264.922 47.3111 264.902 47.3596C264.882 47.4081 264.852 47.4521 264.815 47.489C264.764 47.5364 264.703 47.57 264.635 47.5869C264.568 47.6037 264.498 47.6031 264.431 47.5852Z" fill="#263238"/>
<path d="M238.356 51.8769C238.524 57.0346 236.316 65.3541 232.284 67.9871C232.284 67.9871 234.888 73.5655 244.152 75.3569C254.34 77.3406 249.852 71.2692 249.852 71.2692C244.512 68.8647 245.328 64.7771 246.936 61.1102L238.356 51.8769Z" fill="#B55B52"/>
<path d="M264.72 80.6229C265.188 83.2438 265.68 86.0331 266.256 88.7261C266.832 91.4192 267.36 94.1723 267.996 96.8654C268.632 99.5584 269.292 102.239 270 104.896C270.348 106.231 270.744 107.541 271.128 108.852L272.148 112.038C272.568 112.705 273.13 113.271 273.792 113.697C274.757 114.357 275.776 114.932 276.84 115.416C279.238 116.527 281.712 117.463 284.244 118.217C286.824 119.047 289.5 119.756 292.2 120.393C294.9 121.031 297.636 121.596 300.324 122.185L299.892 126.862C294.06 126.775 288.247 126.184 282.516 125.094C279.539 124.538 276.612 123.734 273.768 122.69C272.215 122.116 270.721 121.395 269.304 120.538C267.517 119.521 265.999 118.09 264.876 116.366C264.706 116.098 264.55 115.821 264.408 115.536L264.204 115.079L264.048 114.695L263.652 113.661L262.872 111.605C262.38 110.222 261.876 108.852 261.42 107.457C260.496 104.692 259.656 101.903 258.936 99.0414C257.411 93.4245 256.209 87.7245 255.336 81.9695L264.72 80.6229Z" fill="#B55B52"/>
<path d="M331.475 91.7074L284.087 149.175L357.455 161.558L331.475 91.7074Z" fill="#49D1F6"/>
<path d="M298.801 122.629L305.533 120.333L306.313 126.633C306.313 126.633 300.169 129.927 297.913 125.431L298.801 122.629Z" fill="#B55B52"/>
<path d="M309.012 122.377L311.244 128.304L306.264 126.645L305.484 120.345L309.012 122.377Z" fill="#B55B52"/>
<path d="M214.356 315.338L222.864 315.963L225.396 296.391L216.888 295.766L214.356 315.338Z" fill="#B55B52"/>
<path d="M160.501 291.726L168.325 295.369L178.801 278.754L170.977 275.111L160.501 291.726Z" fill="#B55B52"/>
<path d="M170.401 293.494L162.709 287.566C162.585 287.455 162.425 287.393 162.259 287.393C162.092 287.393 161.932 287.455 161.809 287.566L156.397 292.82C156.266 292.961 156.166 293.128 156.103 293.31C156.041 293.492 156.017 293.685 156.034 293.876C156.051 294.068 156.108 294.254 156.202 294.422C156.295 294.59 156.423 294.737 156.577 294.852C159.301 296.872 160.717 297.713 164.101 300.31C166.177 301.909 169.069 304.47 171.937 306.682C174.805 308.894 177.085 306.237 176.089 305.071C171.577 299.817 171.913 297.617 171.289 294.744C171.137 294.241 170.825 293.802 170.401 293.494Z" fill="#263238"/>
<path d="M223.404 314.749H213.804C213.637 314.747 213.475 314.805 213.347 314.913C213.219 315.022 213.134 315.172 213.108 315.338L211.824 322.924C211.797 323.113 211.81 323.306 211.864 323.49C211.918 323.673 212.01 323.842 212.136 323.986C212.261 324.13 212.416 324.245 212.591 324.324C212.765 324.402 212.954 324.441 213.144 324.439C216.48 324.379 218.088 324.187 222.3 324.187C224.892 324.187 230.232 324.451 233.808 324.451C237.384 324.451 237.66 320.916 236.208 320.592C229.572 319.149 226.992 317.165 224.796 315.278C224.408 314.945 223.916 314.757 223.404 314.749Z" fill="#263238"/>
<path d="M225.397 296.403L223.993 307.271L215.581 305.865L216.877 295.766L225.397 296.403Z" fill="black"/>
<path d="M170.975 275.123L178.799 278.766L174.155 286.124L166.499 282.205L170.975 275.123Z" fill="black"/>
<path d="M214.992 118.434L249.132 125.034C265.26 77.4614 261.396 75.9225 261.396 75.9225C258.891 74.5648 256.306 73.3603 253.656 72.3157L253.2 72.1354C251.016 71.3419 250.56 71.2217 247.632 70.3681C242.604 69.1658 237.924 68.204 232.14 67.3745C231.768 67.3745 231.396 67.2543 231.036 67.2182C229.98 67.0859 228.936 66.9777 227.94 66.8816C227.256 66.7974 226.584 66.7613 225.936 66.7132L223.728 66.593C219.996 66.4127 217.332 66.4608 217.332 66.4608C219.276 96.1804 217.848 104.716 214.992 118.434Z" fill="#407BFF"/>
<path d="M254.496 90.4332C253.518 95.408 253.861 100.553 255.492 105.353C258.324 96.0477 259.944 89.7238 260.808 85.3356C258.192 84.999 255.408 85.8406 254.496 90.4332Z" fill="black"/>
<path d="M261.107 75.8021C266.795 79.517 270.431 87.8246 271.391 92.5494L258.191 103.37C258.191 103.37 250.991 87.2716 253.391 83.1599C255.803 78.8317 258.959 74.3834 261.107 75.8021Z" fill="#407BFF"/>
<path d="M241.801 39.2532C238.729 47.1039 237.253 50.362 239.269 56.1929C242.293 64.9574 252.553 67.3378 257.893 60.6293C262.693 54.618 266.941 42.7758 260.917 36.0312C259.656 34.5316 258.026 33.3873 256.189 32.7112C254.352 32.0352 252.371 31.8507 250.441 32.176C248.511 32.5013 246.699 33.3251 245.183 34.5662C243.668 35.8073 242.502 37.4228 241.801 39.2532Z" fill="#B55B52"/>
<path d="M256.308 47.8496C255.926 49.3734 256.027 50.9783 256.596 52.4422C257.376 54.5101 258.996 54.462 259.776 52.9952C260.556 51.5285 260.976 49.0038 259.692 47.3687C258.408 45.7336 256.8 46.1665 256.308 47.8496Z" fill="#B55B52"/>
<path d="M242.772 25.8485C240.507 25.5346 238.201 25.9677 236.203 27.0825C234.205 28.1973 232.623 29.9332 231.696 32.0281C228.804 37.859 226.032 45.5534 221.892 43.9544C222.672 45.1566 225.132 46.4911 225.972 45.9381C223.176 48.7394 222.624 51.0116 222.024 56.7584C221.28 63.8637 217.356 62.3007 217.356 62.3007C217.356 62.3007 221.94 69.7427 236.952 72.3756C250.296 74.7801 256.476 71.7264 258.276 69.2257C256.428 68.6246 253.548 62.0122 256.08 58.2612C258.612 54.5102 262.992 44.1347 262.272 39.9749C263.892 42.5478 263.976 46.6354 265.332 42.5237C266.688 38.412 267.3 34.108 262.272 28.9984C257.796 24.3938 244.728 22.1455 242.772 25.8485Z" fill="#263238"/>
<path d="M240.12 123.315C240.12 123.315 223.488 179.135 215.364 211.236C206.796 245.127 177.6 284.934 177.6 284.934L166.8 278.922C166.8 278.922 184.512 240.895 192.816 209.264C209.616 145.052 201.564 131.442 215.004 118.398L240.12 123.315Z" fill="#263238"/>
<path d="M178.608 285.992L165.192 278.49L167.148 274.522L182.976 281.82L178.608 285.992Z" fill="#407BFF"/>
<path d="M232.309 135.193C221.401 143.609 220.669 175.745 220.921 190.256C226.465 169.974 233.029 147.408 236.869 134.34C235.825 133.45 234.313 133.642 232.309 135.193Z" fill="black"/>
<path d="M173.688 297.04C173.592 297.077 173.491 297.101 173.388 297.112C172.308 297.208 170.904 295.729 170.172 294.828C170.152 294.795 170.141 294.758 170.141 294.72C170.141 294.681 170.152 294.644 170.172 294.611C170.197 294.576 170.233 294.55 170.275 294.539C170.317 294.528 170.361 294.532 170.4 294.551C170.76 294.551 173.856 294.876 174.36 295.838C174.422 295.941 174.454 296.06 174.454 296.18C174.454 296.301 174.422 296.419 174.36 296.523C174.207 296.771 173.968 296.955 173.688 297.04ZM170.808 294.96C171.828 296.162 172.764 296.763 173.352 296.715C173.477 296.699 173.596 296.651 173.697 296.575C173.798 296.499 173.878 296.398 173.928 296.283C173.955 296.237 173.969 296.185 173.969 296.132C173.969 296.079 173.955 296.028 173.928 295.982C173.676 295.477 172.044 295.116 170.808 294.96Z" fill="#407BFF"/>
<path d="M248.617 125.034C248.617 125.034 250.741 192.54 245.977 217.956C241.033 244.405 225.949 304.518 225.949 304.518L213.685 302.967C213.685 302.967 221.437 242.193 224.737 215.924C228.337 187.274 223.621 120.177 223.621 120.177L248.617 125.034Z" fill="#263238"/>
<path d="M228.564 305.288L211.068 303.028L211.284 298.868L230.316 299.697L228.564 305.288Z" fill="#407BFF"/>
<path d="M172.944 294.467C172.104 294.811 171.197 294.959 170.292 294.9C170.258 294.895 170.226 294.881 170.198 294.86C170.171 294.839 170.15 294.812 170.136 294.78C170.121 294.748 170.113 294.713 170.113 294.678C170.113 294.642 170.121 294.607 170.136 294.576C170.208 294.503 171.672 292.604 172.896 292.52C173.056 292.502 173.218 292.521 173.37 292.575C173.521 292.63 173.659 292.717 173.772 292.832C173.899 292.932 173.988 293.073 174.023 293.231C174.058 293.388 174.037 293.554 173.964 293.698C173.721 294.063 173.361 294.334 172.944 294.467ZM170.724 294.527C171.768 294.527 173.376 294.047 173.628 293.518C173.628 293.433 173.7 293.301 173.508 293.121C173.437 293.048 173.35 292.991 173.255 292.956C173.159 292.921 173.057 292.907 172.956 292.916C172.224 292.965 171.252 293.926 170.724 294.551V294.527Z" fill="#407BFF"/>
<path d="M226.56 316.192C225.66 316.176 224.764 316.075 223.884 315.891C223.843 315.884 223.806 315.864 223.778 315.833C223.75 315.803 223.732 315.764 223.728 315.723C223.723 315.682 223.731 315.641 223.75 315.604C223.769 315.568 223.799 315.538 223.836 315.519C224.232 315.314 227.676 313.571 228.696 314.16C228.794 314.209 228.876 314.285 228.933 314.378C228.99 314.472 229.02 314.58 229.02 314.689C229.043 314.873 229.02 315.059 228.953 315.231C228.886 315.403 228.777 315.556 228.636 315.675C228.023 316.08 227.29 316.262 226.56 316.192ZM224.568 315.603C226.44 315.916 227.844 315.831 228.372 315.374C228.46 315.293 228.529 315.192 228.573 315.079C228.616 314.967 228.634 314.846 228.624 314.725C228.623 314.682 228.611 314.64 228.591 314.602C228.57 314.564 228.54 314.532 228.504 314.509C228 314.244 225.984 314.99 224.568 315.651V315.603Z" fill="#407BFF"/>
<path d="M223.932 315.94C223.892 315.952 223.851 315.952 223.812 315.94C223.781 315.921 223.757 315.894 223.742 315.862C223.728 315.83 223.722 315.794 223.728 315.759C223.728 315.603 224.136 312.153 226.044 312.153H226.212C226.764 312.213 226.92 312.489 226.956 312.718C227.112 313.68 225.048 315.519 224.016 315.988L223.932 315.94ZM226.056 312.489C224.856 312.489 224.34 314.509 224.184 315.375C225.252 314.75 226.644 313.295 226.584 312.718C226.584 312.718 226.584 312.525 226.188 312.489H226.056Z" fill="#407BFF"/>
<path d="M214.799 116.342L212.759 119.095C212.603 119.299 212.843 119.6 213.239 119.672L249.035 126.621C249.347 126.681 249.623 126.621 249.671 126.392L250.487 123.411C250.547 123.194 250.307 122.966 249.971 122.906L215.399 116.197C215.295 116.168 215.185 116.167 215.08 116.192C214.975 116.217 214.878 116.269 214.799 116.342Z" fill="#407BFF"/>
<path d="M214.799 116.342L212.759 119.095C212.603 119.299 212.843 119.6 213.239 119.672L249.035 126.621C249.347 126.681 249.623 126.621 249.671 126.392L250.487 123.411C250.547 123.194 250.307 122.966 249.971 122.906L215.399 116.197C215.295 116.168 215.185 116.167 215.08 116.192C214.975 116.217 214.878 116.269 214.799 116.342Z" fill="black"/>
<path d="M218.821 121.09L217.897 120.922C217.717 120.922 217.585 120.754 217.621 120.646L218.713 116.774C218.713 116.666 218.917 116.594 219.097 116.63L220.033 116.81C220.213 116.81 220.333 116.967 220.309 117.087L219.217 120.958C219.181 121.066 219.013 121.127 218.821 121.09Z" fill="#263238"/>
<path d="M242.197 125.683L241.273 125.503C241.093 125.503 240.973 125.346 240.997 125.238L242.089 121.367C242.089 121.259 242.293 121.187 242.473 121.223L243.409 121.403C243.589 121.403 243.709 121.559 243.685 121.68L242.593 125.551C242.569 125.659 242.401 125.719 242.197 125.683Z" fill="#263238"/>
<path d="M191.063 433.412H194.039L213.287 338.446H248.807L268.007 433.424H270.983L251.363 336.703C251.306 336.365 251.131 336.059 250.87 335.838C250.608 335.618 250.277 335.498 249.935 335.5H212.099C211.758 335.498 211.426 335.618 211.165 335.838C210.903 336.059 210.728 336.365 210.671 336.703L191.063 433.412Z" fill="#263238"/>
<path d="M134.039 433.412H137.015L156.215 338.434H191.723L210.971 433.376H213.947L202.475 376.774L194.399 336.691C194.342 336.353 194.167 336.047 193.906 335.827C193.644 335.606 193.313 335.486 192.971 335.488H155.087C154.745 335.486 154.414 335.606 154.152 335.827C153.891 336.047 153.716 336.353 153.659 336.691L134.039 433.412Z" fill="#263238"/>
<path d="M254.184 324.451H150.888C149.713 324.45 148.55 324.681 147.464 325.13C146.379 325.58 145.393 326.239 144.562 327.071C143.732 327.903 143.074 328.891 142.625 329.979C142.176 331.066 141.946 332.232 141.948 333.408V333.709C141.946 334.138 142.029 334.563 142.192 334.959C142.354 335.356 142.594 335.717 142.896 336.02C143.198 336.324 143.557 336.565 143.952 336.73C144.348 336.894 144.771 336.979 145.2 336.979H259.872C260.3 336.979 260.723 336.894 261.119 336.73C261.514 336.565 261.873 336.324 262.175 336.02C262.477 335.717 262.717 335.356 262.879 334.959C263.042 334.563 263.125 334.138 263.124 333.709V333.408C263.125 332.232 262.895 331.066 262.446 329.979C261.997 328.891 261.339 327.903 260.509 327.071C259.678 326.239 258.692 325.58 257.607 325.13C256.521 324.681 255.358 324.45 254.184 324.451Z" fill="#407BFF"/>
<path d="M448.801 189.174C451.333 193.851 453.673 198.528 455.917 203.313C458.161 208.098 460.261 212.931 462.217 217.92L462.937 219.796L463.297 220.745L463.501 221.299L463.801 222.248C464.355 224.316 464.429 226.483 464.017 228.584C463.422 231.677 462.34 234.656 460.813 237.409C459.498 239.891 457.998 242.27 456.325 244.526C454.702 246.753 452.934 248.869 451.033 250.862L445.657 247.003C447.813 242.556 449.7 237.983 451.309 233.309C451.996 231.338 452.42 229.284 452.569 227.202C452.569 226.408 452.437 225.771 452.341 225.795L452.185 225.458L451.765 224.605L450.937 222.898C448.681 218.329 446.341 213.748 443.989 209.168L436.993 195.402L448.801 189.174Z" fill="#FF8B7B"/>
<path d="M446.64 245.837L441.6 248.626L449.172 255.118C449.172 255.118 452.316 252.004 451.776 248.253L446.64 245.837Z" fill="#FF8B7B"/>
<path d="M436.74 253.543L443.256 258.604L449.148 255.106L441.576 248.626L436.74 253.543Z" fill="#FF8B7B"/>
<path d="M409.813 155.62C409.705 156.245 409.297 156.702 408.901 156.63C408.505 156.557 408.241 156.016 408.337 155.427C408.433 154.838 408.841 154.345 409.249 154.418C409.657 154.49 409.909 154.995 409.813 155.62Z" fill="#263238"/>
<path d="M409.356 156.702C408.315 158.473 407.035 160.091 405.552 161.511C405.929 161.884 406.384 162.169 406.884 162.345C407.384 162.522 407.916 162.586 408.444 162.532L409.356 156.702Z" fill="#FF5652"/>
<path d="M412.608 152.518C412.559 152.518 412.51 152.509 412.465 152.49C412.42 152.472 412.379 152.444 412.344 152.41C412.023 152.074 411.628 151.819 411.189 151.667C410.751 151.514 410.283 151.468 409.824 151.532C409.728 151.55 409.63 151.53 409.549 151.476C409.469 151.422 409.412 151.338 409.392 151.243C409.381 151.197 409.38 151.149 409.388 151.102C409.396 151.054 409.414 151.009 409.439 150.969C409.465 150.929 409.499 150.894 409.538 150.867C409.577 150.84 409.621 150.821 409.668 150.811C410.249 150.714 410.846 150.763 411.404 150.951C411.963 151.14 412.467 151.463 412.872 151.893C412.906 151.926 412.934 151.966 412.952 152.011C412.971 152.055 412.981 152.103 412.981 152.151C412.981 152.199 412.971 152.247 412.952 152.291C412.934 152.336 412.906 152.376 412.872 152.41C412.837 152.444 412.796 152.472 412.751 152.49C412.705 152.509 412.657 152.518 412.608 152.518Z" fill="#263238"/>
<path d="M430.549 162.484C429.433 168.207 428.317 178.679 432.313 182.49C432.313 182.49 430.753 188.297 420.145 188.297C408.481 188.297 414.577 182.49 414.577 182.49C420.937 180.975 420.769 176.238 419.665 171.802L430.549 162.484Z" fill="#FF8B7B"/>
<path d="M438.612 188.297C438.45 187.975 438.336 187.63 438.276 187.275C437.244 181.708 432.9 177.332 427.272 177.116C421.272 176.899 414.636 177.909 410.664 182.586C408.924 184.63 410.856 187.623 410.856 187.623L438.612 188.297Z" fill="#407BFF"/>
<path d="M457.093 421.618H457.021C456.883 421.539 456.774 421.419 456.709 421.274C456.645 421.129 456.628 420.967 456.661 420.812C456.668 420.687 456.703 420.564 456.763 420.454C456.823 420.344 456.907 420.249 457.009 420.175C457.933 419.466 460.501 419.899 460.609 419.923C460.644 419.93 460.676 419.946 460.704 419.969C460.731 419.992 460.752 420.022 460.765 420.055C460.772 420.09 460.77 420.127 460.757 420.161C460.744 420.196 460.722 420.225 460.693 420.247C460.069 420.704 458.005 421.99 457.093 421.618ZM460.105 420.187C459.145 419.985 458.147 420.073 457.237 420.44C457.175 420.481 457.123 420.536 457.085 420.6C457.048 420.665 457.026 420.738 457.021 420.812C457.021 421.149 457.141 421.233 457.189 421.257C457.681 421.522 459.133 420.848 460.105 420.187Z" fill="#407BFF"/>
<path d="M459.277 419.91C458.389 419.562 457.441 418.985 457.309 418.432C457.277 418.296 457.293 418.154 457.355 418.029C457.416 417.904 457.518 417.804 457.645 417.746C457.763 417.671 457.896 417.621 458.034 417.6C458.173 417.58 458.314 417.588 458.449 417.626C459.577 417.915 460.693 419.898 460.741 420.031C460.758 420.058 460.767 420.089 460.767 420.121C460.767 420.153 460.758 420.184 460.741 420.211C460.723 420.24 460.698 420.264 460.669 420.28C460.64 420.297 460.607 420.306 460.573 420.307C460.125 420.234 459.689 420.101 459.277 419.91ZM458.485 418.023H458.365C458.277 417.998 458.184 417.991 458.093 418.003C458.003 418.016 457.915 418.047 457.837 418.095C457.633 418.215 457.657 418.323 457.669 418.372C457.789 418.889 459.229 419.646 460.213 419.862C459.805 419.11 459.21 418.477 458.485 418.023Z" fill="#407BFF"/>
<path d="M398.064 426.715C397.068 426.715 396.096 426.583 395.772 426.126C395.691 426.007 395.647 425.867 395.647 425.723C395.647 425.579 395.691 425.439 395.772 425.32C395.836 425.212 395.921 425.118 396.022 425.043C396.123 424.969 396.238 424.916 396.36 424.887C397.656 424.539 400.392 426.09 400.5 426.162C400.534 426.177 400.561 426.203 400.579 426.236C400.596 426.268 400.602 426.306 400.596 426.342C400.591 426.382 400.573 426.419 400.545 426.447C400.517 426.475 400.48 426.493 400.44 426.498C399.656 426.639 398.861 426.711 398.064 426.715ZM396.864 425.2C396.745 425.182 396.623 425.182 396.504 425.2C396.356 425.234 396.227 425.325 396.144 425.452C396.012 425.681 396.06 425.801 396.144 425.861C396.504 426.366 398.484 426.378 399.936 426.174C398.973 425.649 397.918 425.318 396.828 425.2H396.864Z" fill="#407BFF"/>
<path d="M400.417 426.498H400.345C399.409 426.078 397.537 424.383 397.681 423.505C397.681 423.288 397.861 423.036 398.365 422.988C398.549 422.966 398.736 422.982 398.913 423.036C399.091 423.09 399.255 423.18 399.397 423.301C400.103 424.155 400.522 425.211 400.597 426.318C400.597 426.349 400.59 426.38 400.575 426.407C400.56 426.435 400.539 426.458 400.513 426.474C400.484 426.494 400.45 426.502 400.417 426.498ZM398.521 423.337H398.401C398.065 423.337 398.041 423.505 398.041 423.553C397.945 424.082 399.241 425.404 400.177 425.957C400.095 425.067 399.734 424.225 399.145 423.553C398.97 423.407 398.748 423.33 398.521 423.337Z" fill="#407BFF"/>
<path d="M408.996 426.319H401.196L400.428 408.213H408.228L408.996 426.319Z" fill="#FF8B7B"/>
<path d="M469.093 418.167L461.785 419.838L453.253 402.49L460.561 400.807L469.093 418.167Z" fill="#FF8B7B"/>
<path d="M460.728 419.009L468.696 415.402C468.837 415.337 468.995 415.322 469.146 415.359C469.296 415.397 469.43 415.484 469.524 415.607L473.82 421.281C473.915 421.424 473.978 421.584 474.005 421.753C474.032 421.922 474.024 422.094 473.98 422.259C473.935 422.424 473.856 422.578 473.748 422.71C473.64 422.842 473.505 422.949 473.352 423.025C470.556 424.227 469.128 424.708 465.624 426.319C463.476 427.305 455.856 432.691 452.652 433.376C449.448 434.061 448.356 430.971 449.604 430.418C454.054 428.185 457.635 424.53 459.78 420.031C459.955 419.582 460.294 419.217 460.728 419.009Z" fill="#263238"/>
<path d="M401.256 425.417H409.776C409.93 425.419 410.078 425.471 410.198 425.567C410.317 425.663 410.401 425.797 410.436 425.946L411.972 432.895C412.013 433.063 412.014 433.238 411.977 433.406C411.939 433.575 411.864 433.732 411.756 433.867C411.648 434.001 411.511 434.11 411.355 434.183C411.199 434.256 411.029 434.293 410.856 434.29C407.784 434.23 403.344 434.049 399.48 434.049C394.956 434.049 391.08 434.302 385.764 434.302C382.56 434.302 381.672 431.056 383.016 430.767C389.112 429.421 394.092 429.276 399.372 426.018C399.932 425.646 400.585 425.437 401.256 425.417Z" fill="#263238"/>
<path d="M434.773 197.53C435.589 199.634 436.477 201.678 437.389 203.541C438.937 206.86 440.485 209.757 441.613 211.765C442.621 213.568 443.281 214.638 443.281 214.638L460.321 206.222C460.321 206.222 453.457 186.445 446.281 184.245C439.105 182.045 431.089 188.105 434.773 197.53Z" fill="#263238"/>
<path d="M442.319 199.49C440.843 200.584 439.775 203.529 439.019 206.98C439.991 208.879 440.891 210.587 441.611 211.789C442.619 213.592 443.267 214.662 443.267 214.662L445.223 213.688C445.181 208.812 444.195 203.99 442.319 199.49Z" fill="black"/>
<path d="M398.737 210.142C398.737 212.799 398.797 215.732 398.953 218.954C399.337 227.719 400.285 238.647 402.121 252.221H443.845C444.133 245.813 440.101 214.494 446.245 184.257C441.631 183.371 436.966 182.781 432.277 182.49C426.37 182.153 420.448 182.153 414.541 182.49C410.491 182.907 406.48 183.634 402.541 184.666C402.541 184.666 398.725 189.018 398.737 210.142Z" fill="#263238"/>
<path d="M399.96 204.503C399.576 205.345 399.168 206.198 398.76 207.112C398.76 208.086 398.76 209.096 398.76 210.142C398.76 210.563 398.76 210.995 398.76 211.428C403.944 208.266 407.34 201.63 407.34 201.63L399.96 204.503Z" fill="black"/>
<path d="M411.289 198.816L410.089 199.562L409.033 200.175C408.325 200.596 407.665 200.896 406.993 201.269C405.649 201.93 404.329 202.555 402.997 203.157C400.345 204.359 397.633 205.369 394.909 206.331C389.287 208.329 383.445 209.645 377.509 210.25C376.705 210.25 375.961 210.406 375.109 210.394H372.517C370.56 210.247 368.639 209.784 366.829 209.024C363.964 207.819 361.24 206.303 358.705 204.503C353.999 201.219 349.655 197.443 345.745 193.238L349.921 188.092C354.553 190.665 359.281 193.358 363.901 195.498C366.045 196.537 368.273 197.389 370.561 198.047C371.309 198.266 372.087 198.367 372.865 198.348L374.377 198.203C374.905 198.203 375.505 198.035 376.069 197.963C380.965 197.041 385.76 195.644 390.385 193.791C392.785 192.889 395.185 191.88 397.513 190.858C398.713 190.329 399.829 189.8 400.933 189.247L402.517 188.417L403.249 188.032L403.825 187.696L411.289 198.816Z" fill="#FF8B7B"/>
<path d="M351.373 189.716L346.501 183.416L341.557 191.747C341.557 191.747 346.105 195.138 349.741 194.525L351.373 189.716Z" fill="#FF8B7B"/>
<path d="M339.216 180.855L336.624 187.731L341.557 191.747L346.501 183.416L339.216 180.855Z" fill="#FF8B7B"/>
<path d="M418.334 197.073C414.29 203.349 392.294 210.214 392.294 210.214L383.822 192.757C389.705 189.309 395.972 186.566 402.494 184.582C416.534 180.734 423.194 189.535 418.334 197.073Z" fill="#263238"/>
<path d="M400.428 408.224L400.824 417.554H408.624L408.228 408.224H400.428Z" fill="black"/>
<path d="M460.561 400.819L453.253 402.502L457.657 411.447L464.965 409.764L460.561 400.819Z" fill="black"/>
<path d="M430.801 157.555C429.133 165.129 428.545 169.65 424.069 172.968C417.349 177.969 408.469 172.968 407.845 165.069C407.281 157.928 410.101 146.747 418.045 144.872C419.796 144.449 421.625 144.483 423.36 144.969C425.094 145.455 426.676 146.377 427.954 147.648C429.233 148.919 430.165 150.497 430.663 152.231C431.162 153.965 431.209 155.798 430.801 157.555Z" fill="#FF8B7B"/>
<path d="M437.75 138.993C444.386 139.173 446.798 150.222 444.818 153.516C444.818 153.516 442.694 154.718 440.114 158.77C436.202 164.949 431.21 171.634 425.354 171.237C418.082 170.732 416.954 162.316 417.206 154.49C413.366 150.883 411.266 150.594 409.382 145.365C403.562 129.243 414.746 121.163 437.75 138.993Z" fill="#263238"/>
<path d="M420.337 156.822C420.131 158.778 419.288 160.612 417.937 162.04C416.125 163.903 414.337 162.653 414.121 160.297C413.917 158.181 414.613 154.67 416.773 153.684C418.933 152.698 420.553 154.454 420.337 156.822Z" fill="#FF8B7B"/>
<path d="M416.918 252.221C416.918 252.221 416.018 307.849 422.99 329.658C434.042 364.199 452.99 410.665 452.99 410.665L467.246 407.059C467.246 407.059 451.538 359.955 446.438 330.86C441.854 304.723 443.798 273.609 443.798 252.257L416.918 252.221Z" fill="#407BFF"/>
<path d="M424.704 261.778C426.18 271.805 420.96 299.709 419.16 308.846C417.264 291.762 416.916 271.492 416.892 260.432C420.708 257.835 424.02 257.162 424.704 261.778Z" fill="black"/>
<path d="M449.22 406.457C449.16 406.457 452.712 410.977 452.712 410.977L468.312 406.998L466.584 401.696L449.22 406.457Z" fill="#407BFF"/>
<path d="M449.22 406.457C449.16 406.457 452.712 410.977 452.712 410.977L468.312 406.998L466.584 401.696L449.22 406.457Z" fill="white"/>
<path d="M402.11 252.221C402.11 252.221 390.362 302.126 389.534 325.967C388.61 352.693 397.934 415.751 397.934 415.751H411.134C411.134 415.751 412.802 352.26 413.354 327.854C414.002 301.309 429.602 252.221 429.602 252.221H402.11Z" fill="#407BFF"/>
<path d="M395.376 410.473C395.316 410.473 396.12 415.967 396.12 415.967H412.2L412.632 411.062L395.376 410.473Z" fill="#407BFF"/>
<path d="M395.376 410.473C395.316 410.473 396.12 415.967 396.12 415.967H412.2L412.632 411.062L395.376 410.473Z" fill="white"/>
<path d="M76.2115 210.615C99.0684 210.615 117.598 192.189 117.598 169.46C117.598 146.73 99.0684 128.304 76.2115 128.304C53.3547 128.304 34.8255 146.73 34.8255 169.46C34.8255 192.189 53.3547 210.615 76.2115 210.615Z" fill="#407BFF"/>
<path d="M76.9015 210.615C99.7584 210.615 118.287 192.189 118.287 169.46C118.287 146.73 99.7584 128.304 76.9015 128.304C54.0446 128.304 35.5155 146.73 35.5155 169.46C35.5155 192.189 54.0446 210.615 76.9015 210.615Z" fill="white"/>
<path d="M80.3181 146.758H71.8719C70.3261 146.758 69.0729 148.004 69.0729 149.541V193.197C69.0729 194.734 70.3261 195.98 71.8719 195.98H80.3181C81.8639 195.98 83.1171 194.734 83.1171 193.197V149.541C83.1171 148.004 81.8639 146.758 80.3181 146.758Z" fill="#98FFCA"/>
<path d="M100.961 176.33V167.931C100.961 166.394 99.7082 165.148 98.1624 165.148H54.2622C52.7163 165.148 51.4632 166.394 51.4632 167.931V176.33C51.4632 177.868 52.7163 179.114 54.2622 179.114H98.1624C99.7082 179.114 100.961 177.868 100.961 176.33Z" fill="#98FFCA"/>
</svg>
