<svg width="323" height="240" viewBox="0 0 323 240" fill="none" xmlns="http://www.w3.org/2000/svg">
<path d="M322.383 210.908H0.890625V211.071H322.383V210.908Z" fill="#EBEBEB"/>
<path d="M230.874 215.295H209.579V215.458H230.874V215.295Z" fill="#EBEBEB"/>
<path d="M282.042 216.706H276.454V216.868H282.042V216.706Z" fill="#EBEBEB"/>
<path d="M243.855 221.273H231.516V221.436H243.855V221.273Z" fill="#EBEBEB"/>
<path d="M161.637 219.096H133.866V219.258H161.637V219.096Z" fill="#EBEBEB"/>
<path d="M128.137 219.096H124.067V219.258H128.137V219.096Z" fill="#EBEBEB"/>
<path d="M110.835 216.377H50.5999V216.54H110.835V216.377Z" fill="#EBEBEB"/>
<path d="M153.278 182.177H29.1239C28.1513 182.176 27.2191 181.787 26.532 181.098C25.8448 180.408 25.4589 179.473 25.4589 178.499V3.64612C25.4674 2.67728 25.857 1.7509 26.5433 1.06821C27.2295 0.385522 28.1568 0.00165969 29.1239 0H153.278C154.252 0 155.185 0.387538 155.874 1.07736C156.563 1.76718 156.949 2.70278 156.949 3.67833V178.499C156.949 179.475 156.563 180.41 155.874 181.1C155.185 181.79 154.252 182.177 153.278 182.177ZM29.1239 0.128839C28.1939 0.130545 27.3026 0.501867 26.6456 1.1613C25.9886 1.82073 25.6196 2.7144 25.6196 3.64612V178.499C25.6196 179.431 25.9886 180.324 26.6456 180.984C27.3026 181.643 28.1939 182.015 29.1239 182.016H153.278C154.208 182.015 155.1 181.643 155.758 180.984C156.416 180.325 156.787 179.431 156.789 178.499V3.64612C156.787 2.7138 156.416 1.82016 155.758 1.16091C155.1 0.501658 154.208 0.130542 153.278 0.128839H29.1239Z" fill="#EBEBEB"/>
<path d="M292.362 182.177H168.202C167.229 182.176 166.296 181.788 165.608 181.098C164.92 180.409 164.532 179.474 164.53 178.499V3.64612C164.541 2.67669 164.932 1.75032 165.619 1.06781C166.306 0.385296 167.234 0.00164159 168.202 0H292.362C293.328 0.00335269 294.254 0.387964 294.939 1.07047C295.624 1.75298 296.012 2.67839 296.021 3.64612V178.499C296.021 179.472 295.636 180.406 294.95 181.095C294.264 181.785 293.334 182.174 292.362 182.177ZM168.202 0.128839C167.271 0.130542 166.379 0.501658 165.721 1.16091C165.063 1.82016 164.693 2.7138 164.691 3.64612V178.499C164.693 179.431 165.063 180.325 165.721 180.984C166.379 181.643 167.271 182.015 168.202 182.016H292.362C293.293 182.015 294.185 181.643 294.843 180.984C295.501 180.325 295.871 179.431 295.873 178.499V3.64612C295.871 2.7138 295.501 1.82016 294.843 1.16091C294.185 0.501658 293.293 0.130542 292.362 0.128839H168.202Z" fill="#EBEBEB"/>
<path d="M76.3127 162.806C72.9563 161.666 70.5258 158.42 72.6477 155.076C76.1841 149.575 67.343 148.402 69.8249 139.197C73.3228 126.197 84.1828 137.464 86.8833 124.986C88.8123 115.909 104.064 109.963 104.655 121.913C105.298 135.003 111.857 126.455 113.31 141.001C114.313 151.063 100.026 152.525 104.308 155.669C107.427 157.969 109.266 161.969 104.919 164.688C98.9972 168.417 104.585 171.329 100.56 173.932C96.5345 176.534 95.8787 172.386 89.6289 174.408C84.0413 176.212 79.3025 170.678 80.4149 167.219C81.4373 164.03 79.6883 163.953 76.3127 162.806Z" fill="#E6E6E6"/>
<path d="M108.617 168.778C108.617 168.778 108.16 210.895 90.5358 210.895C72.9116 210.895 72.4615 168.778 72.4615 168.778H108.617Z" fill="#F0F0F0"/>
<path d="M181.396 111.471H281.534V18.6236H181.396V111.471Z" fill="#E6E6E6"/>
<path d="M178.997 111.471H280.415V18.6236H178.997V111.471Z" fill="#F0F0F0"/>
<path d="M277.046 107.676V22.4112H182.366V107.676H277.046Z" fill="#FAFAFA"/>
<path d="M221.704 107.676L238.428 22.4113H260.347L243.623 107.676H221.704Z" fill="white"/>
<path d="M247.038 107.676L263.756 22.4113H273.658L256.933 107.676H247.038Z" fill="white"/>
<path d="M194.294 107.676L211.018 22.4113H214.651L197.927 107.676H194.294Z" fill="white"/>
<path d="M182.784 107.67V22.405H182.353V107.67H182.784Z" fill="#E6E6E6"/>
<path d="M284.061 18.469V83.6418H274.346C274.346 83.6418 256.889 43.8501 252.941 20.3822C252.845 19.8206 252.873 19.2449 253.023 18.6953C253.173 18.1458 253.441 17.6358 253.809 17.2012C254.177 16.7666 254.635 16.4178 255.151 16.1795C255.668 15.9411 256.23 15.8188 256.799 15.8213H281.464C282.157 15.8332 282.817 16.1173 283.303 16.6126C283.789 17.1078 284.061 17.7745 284.061 18.469Z" fill="#E6E6E6"/>
<path d="M284.061 120.541V86.6116H274.346C274.346 86.6116 268.295 106.582 265.987 120.541H284.061Z" fill="#E6E6E6"/>
<path d="M274.629 86.6116H283.708C284.244 86.6116 284.679 86.1761 284.679 85.6389V84.6146C284.679 84.0774 284.244 83.6419 283.708 83.6419H274.629C274.093 83.6419 273.658 84.0774 273.658 84.6146V85.6389C273.658 86.1761 274.093 86.6116 274.629 86.6116Z" fill="#E0E0E0"/>
<path d="M176.245 18.469V83.6418H185.961C185.961 83.6418 203.418 43.8501 207.385 20.3822C207.481 19.8206 207.453 19.2449 207.303 18.6953C207.153 18.1458 206.884 17.6358 206.517 17.2012C206.149 16.7666 205.691 16.4178 205.175 16.1795C204.658 15.9411 204.096 15.8188 203.527 15.8213H178.888C178.187 15.8213 177.515 16.1003 177.019 16.5968C176.524 17.0933 176.245 17.7668 176.245 18.469Z" fill="#E6E6E6"/>
<path d="M176.245 120.541V86.6116H185.961C185.961 86.6116 192.005 106.582 194.32 120.541H176.245Z" fill="#E6E6E6"/>
<path d="M185.678 83.6416H176.599C176.063 83.6416 175.628 84.0771 175.628 84.6143V85.6386C175.628 86.1758 176.063 86.6113 176.599 86.6113H185.678C186.214 86.6113 186.649 86.1758 186.649 85.6386V84.6143C186.649 84.0771 186.214 83.6416 185.678 83.6416Z" fill="#E0E0E0"/>
<path d="M144.367 210.908H168.671V147.732H144.367V210.908Z" fill="#E6E6E6"/>
<path d="M150.854 210.908H144.36V200.009H157.657L150.854 210.908Z" fill="#F5F5F5"/>
<path d="M260.63 210.908H284.935V147.732H260.63V210.908Z" fill="#E6E6E6"/>
<path d="M144.36 207.159H266.295V147.739H144.36V207.159Z" fill="#F5F5F5"/>
<path d="M149.394 165.699H261.261V153.247H149.394V165.699Z" fill="#F0F0F0"/>
<path d="M259.808 210.908H266.296V200.009H252.999L259.808 210.908Z" fill="#F5F5F5"/>
<path d="M149.394 183.672H261.261V171.22H149.394V183.672Z" fill="#F0F0F0"/>
<path d="M149.394 201.645H261.261V189.193H149.394V201.645Z" fill="#F0F0F0"/>
<path d="M87.378 93.4398H139.569V36.6543H87.378V93.4398Z" fill="#E6E6E6"/>
<path d="M82.9611 93.4398H138.316V36.6543H82.9611V93.4398Z" fill="#F5F5F5"/>
<path d="M134.785 89.897V40.1847H86.4903V89.897H134.785Z" fill="white"/>
<path d="M126.273 71.6082C126.274 69.8839 125.935 68.1764 125.277 66.5831C124.619 64.9899 123.654 63.5423 122.437 62.323C121.22 61.1037 119.775 60.1367 118.185 59.4773C116.594 58.8178 114.89 58.4788 113.169 58.4796H94.9917C94.9917 61.9616 96.3723 65.3009 98.8298 67.763C101.287 70.2251 104.62 71.6082 108.096 71.6082H126.273Z" fill="#F5F5F5"/>
<path d="M43.5465 54.4598H74.6027V19.9183H43.5465V54.4598Z" fill="#E6E6E6"/>
<path d="M39.1356 54.4598H73.3552V19.9183H39.1356V54.4598Z" fill="#F5F5F5"/>
<path d="M69.8186 50.9233V23.4485H42.6589V50.9233H69.8186Z" fill="white"/>
<path d="M64.2713 37.1891L56.2465 29.1493L48.2218 37.1891L56.2465 45.2289L64.2713 37.1891Z" fill="#F5F5F5"/>
<path d="M95.4095 134.469C116.866 158.652 141.145 128.027 164.794 143.816C179.088 153.363 180.599 164.385 198.711 167.116C211.32 169.017 224.18 165.074 237.754 167.69C260.952 172.167 288.987 170.962 291.52 140.53C292.574 127.833 288.607 111.445 272.674 100.159C259.113 90.5541 244.704 98.9995 230.938 92.2033C204.627 79.2099 215.313 37.6403 179.801 33.5819C148.604 30.0452 141.962 65.3727 110.044 60.9922C86.1248 57.7068 45.501 44.4945 39.3155 83.642C36.6857 100.333 47.9637 110.485 60.997 115.658C78.9748 122.822 81.3088 118.596 95.4095 134.469Z" fill="#407BFF"/>
<path d="M95.4095 134.469C116.866 158.652 141.145 128.027 164.794 143.816C179.088 153.363 180.599 164.385 198.711 167.116C211.32 169.017 224.18 165.074 237.754 167.69C260.952 172.167 288.987 170.962 291.52 140.53C292.574 127.833 288.607 111.445 272.674 100.159C259.113 90.5541 244.704 98.9995 230.938 92.2033C204.627 79.2099 215.313 37.6403 179.801 33.5819C148.604 30.0452 141.962 65.3727 110.044 60.9922C86.1248 57.7068 45.501 44.4945 39.3155 83.642C36.6857 100.333 47.9637 110.485 60.997 115.658C78.9748 122.822 81.3088 118.596 95.4095 134.469Z" fill="white"/>
<path d="M161.637 240C230.49 240 286.306 236.735 286.306 232.708C286.306 228.68 230.49 225.416 161.637 225.416C92.7848 225.416 36.9689 228.68 36.9689 232.708C36.9689 236.735 92.7848 240 161.637 240Z" fill="#8E8787"/>
<path d="M61.9745 231.085H261.3L241.367 196.498H81.907L61.9745 231.085Z" fill="#F7F7F7"/>
<path d="M81.907 196.498H241.367L221.434 161.905H101.839L81.907 196.498Z" fill="#FF4680"/>
<path d="M121.772 127.318L101.839 161.905H221.434L201.502 127.318H121.772Z" fill="#FF66C4"/>
<path d="M181.569 92.7316H141.704L121.772 127.318H201.502L181.569 92.7316Z" fill="#787FFA"/>
<path d="M116.943 43.1028C116.615 43.3476 116.171 43.6955 115.779 44.0175C115.387 44.3396 114.988 44.6617 114.596 45.0418C113.824 45.7504 113.059 46.4719 112.339 47.2321C110.916 48.7432 109.645 50.3918 108.546 52.1537C108.308 52.5466 107.903 53.2102 107.973 53.12C107.891 53.3467 107.867 53.5902 107.903 53.8286C108.039 54.7249 108.314 55.5944 108.719 56.4053C109.663 58.3255 110.762 60.1654 112.005 61.9068L110.198 63.6461C108.33 62.1166 106.691 60.3268 105.331 58.3315C104.551 57.2069 103.976 55.9528 103.633 54.6274C103.416 53.7576 103.402 52.8491 103.595 51.9733C103.649 51.7177 103.726 51.4676 103.826 51.2261C103.895 51.0497 103.975 50.8776 104.064 50.7107L104.469 49.8797C105.597 47.6983 106.994 45.6681 108.629 43.8372C109.43 42.9344 110.278 42.0743 111.169 41.2604C111.619 40.8546 112.082 40.4552 112.551 40.0687C113.021 39.6821 113.484 39.3343 114.082 38.922L116.943 43.1028Z" fill="#B55B52"/>
<path d="M117.374 35.6365C114.21 35.7782 109.446 42.1557 109.446 42.1557L114.532 48.1982C114.532 48.1982 120.962 44.726 121.669 40.1329C122.01 37.8396 120.486 35.4948 117.374 35.6365Z" fill="#407BFF"/>
<path d="M111.207 61.153L114.975 64.3739L111.439 65.2694C111.439 65.2694 109.24 63.981 109.883 62.1837L111.207 61.153Z" fill="#B55B52"/>
<path d="M115.001 66.2615L113.162 68.0459L111.439 65.3017L114.975 64.4062L115.001 66.2615Z" fill="#B55B52"/>
<path d="M141.1 27.4939C140.946 27.8225 140.997 28.1832 141.216 28.2927C141.434 28.4023 141.73 28.2154 141.859 27.8869C141.987 27.5584 141.961 27.1976 141.749 27.0881C141.537 26.9786 141.254 27.159 141.1 27.4939Z" fill="#263238"/>
<path d="M141.666 27.056L142.572 27.2235C142.572 27.2235 141.872 27.6422 141.666 27.056Z" fill="#263238"/>
<path d="M141.229 27.9579C141.171 28.8664 141.236 29.7786 141.421 30.6699C141.193 30.7052 140.96 30.6906 140.738 30.6272C140.516 30.5639 140.311 30.4532 140.135 30.3027L141.229 27.9579Z" fill="#A02724"/>
<path d="M142.578 25.4971C142.544 25.4888 142.513 25.471 142.488 25.4456C142.294 25.2489 142.058 25.0995 141.797 25.009C141.536 24.9185 141.258 24.8894 140.984 24.9238C140.956 24.9304 140.927 24.9313 140.899 24.9263C140.87 24.9214 140.843 24.9108 140.819 24.8951C140.795 24.8795 140.775 24.8591 140.759 24.8353C140.743 24.8114 140.732 24.7845 140.726 24.7563C140.715 24.7 140.726 24.6414 140.757 24.5932C140.789 24.545 140.838 24.511 140.894 24.4986C141.237 24.4515 141.587 24.4852 141.915 24.597C142.243 24.7089 142.54 24.8957 142.784 25.1428C142.804 25.1626 142.82 25.1862 142.831 25.2122C142.842 25.2382 142.847 25.266 142.847 25.2942C142.847 25.3224 142.842 25.3503 142.831 25.3763C142.82 25.4023 142.804 25.4258 142.784 25.4456C142.757 25.471 142.724 25.489 142.688 25.498C142.652 25.5071 142.614 25.5067 142.578 25.4971Z" fill="#263238"/>
<path d="M128.607 27.7967C128.697 30.5603 127.514 35.0181 125.353 36.4289C125.353 36.4289 126.749 39.4179 131.712 40.3778C137.171 41.4407 134.767 38.1875 134.767 38.1875C131.905 36.8991 132.343 34.7089 133.204 32.7441L128.607 27.7967Z" fill="#B55B52"/>
<path d="M142.733 43.1994C142.984 44.6038 143.248 46.0983 143.556 47.5413C143.865 48.9843 144.148 50.4595 144.489 51.9025C144.829 53.3455 145.183 54.782 145.562 56.2057C145.749 56.9207 145.961 57.6229 146.167 58.3251L146.713 60.0322C146.938 60.3895 147.239 60.693 147.594 60.9212C148.111 61.275 148.657 61.5832 149.227 61.8423C150.512 62.4374 151.838 62.939 153.195 63.3433C154.577 63.7878 156.011 64.1679 157.458 64.5093C158.904 64.8507 160.37 65.1535 161.811 65.4691L161.579 67.9751C158.454 67.9288 155.339 67.6119 152.269 67.0281C150.673 66.73 149.105 66.299 147.581 65.7397C146.749 65.4322 145.948 65.0461 145.189 64.5866C144.232 64.0417 143.419 63.2752 142.817 62.3513C142.726 62.2075 142.642 62.0592 142.566 61.9068L142.457 61.662L142.373 61.4558L142.161 60.9018L141.743 59.8003C141.479 59.0594 141.209 58.3251 140.965 57.5778C140.47 56.0962 140.02 54.6016 139.634 53.0685C138.817 50.0588 138.173 47.0046 137.705 43.9209L142.733 43.1994Z" fill="#B55B52"/>
<path d="M178.502 49.1387L153.111 79.9311L192.423 86.5663L178.502 49.1387Z" fill="#49D1F6"/>
<path d="M160.994 65.7074L164.601 64.477L165.019 67.8525C165.019 67.8525 161.727 69.6176 160.518 67.2083L160.994 65.7074Z" fill="#B55B52"/>
<path d="M166.466 65.5722L167.662 68.7481L164.993 67.8591L164.575 64.4835L166.466 65.5722Z" fill="#B55B52"/>
<path d="M115.747 168.965L120.306 169.3L121.662 158.812L117.104 158.477L115.747 168.965Z" fill="#B55B52"/>
<path d="M86.8902 156.313L91.0824 158.265L96.6957 149.362L92.5034 147.41L86.8902 156.313Z" fill="#B55B52"/>
<path d="M92.1948 157.26L88.0733 154.084C88.0071 154.024 87.9212 153.991 87.8322 153.991C87.7431 153.991 87.6572 154.024 87.591 154.084L84.6912 156.899C84.621 156.975 84.5674 157.064 84.534 157.161C84.5005 157.259 84.4879 157.362 84.497 157.465C84.5061 157.568 84.5367 157.667 84.5868 157.758C84.6368 157.848 84.7053 157.926 84.7876 157.988C86.2472 159.07 87.0059 159.521 88.8192 160.913C89.9315 161.769 91.4811 163.141 93.0178 164.327C94.5546 165.512 95.7763 164.088 95.2426 163.464C92.825 160.648 93.005 159.47 92.6706 157.93C92.5893 157.661 92.4222 157.425 92.1948 157.26Z" fill="#263238"/>
<path d="M120.595 168.649H115.451C115.362 168.648 115.275 168.679 115.206 168.737C115.138 168.795 115.092 168.876 115.079 168.965L114.391 173.03C114.376 173.131 114.383 173.234 114.412 173.332C114.441 173.431 114.49 173.522 114.557 173.599C114.625 173.676 114.708 173.737 114.801 173.779C114.894 173.821 114.996 173.842 115.098 173.841C116.885 173.809 117.747 173.706 120.004 173.706C121.393 173.706 124.254 173.848 126.17 173.848C128.086 173.848 128.234 171.954 127.456 171.78C123.9 171.007 122.518 169.944 121.341 168.932C121.133 168.754 120.869 168.654 120.595 168.649Z" fill="#263238"/>
<path d="M121.663 158.819L120.911 164.642L116.403 163.889L117.098 158.477L121.663 158.819Z" fill="black"/>
<path d="M92.5026 147.417L96.6949 149.369L94.2065 153.311L90.1043 151.211L92.5026 147.417Z" fill="black"/>
<path d="M116.088 63.4595L134.381 66.9961C143.022 41.5054 140.952 40.6809 140.952 40.6809C139.61 39.9534 138.225 39.308 136.805 38.7483L136.56 38.6516C135.39 38.2265 135.146 38.1621 133.577 37.7047C130.883 37.0605 128.375 36.5451 125.276 36.1007C125.077 36.1007 124.877 36.0362 124.684 36.0169C124.119 35.946 123.559 35.8881 123.026 35.8365C122.659 35.7914 122.299 35.7721 121.952 35.7463L120.769 35.6819C118.769 35.5853 117.342 35.6111 117.342 35.6111C118.383 51.5355 117.618 56.1092 116.088 63.4595Z" fill="#407BFF"/>
<path d="M137.255 48.456C136.731 51.1216 136.915 53.8784 137.789 56.4504C139.306 51.4643 140.174 48.0759 140.637 45.7246C139.235 45.5442 137.744 45.9952 137.255 48.456Z" fill="black"/>
<path d="M140.797 40.6163C143.845 42.6069 145.793 47.0582 146.307 49.5899L139.235 55.3876C139.235 55.3876 135.377 46.7619 136.663 44.5588C137.955 42.2397 139.646 39.8562 140.797 40.6163Z" fill="#407BFF"/>
<path d="M130.452 21.0327C128.806 25.2393 128.015 26.985 129.096 30.1094C130.716 34.8055 136.214 36.081 139.075 32.4864C141.647 29.2655 143.923 22.9202 140.695 19.3063C140.02 18.5027 139.146 17.8896 138.162 17.5274C137.178 17.1651 136.116 17.0663 135.082 17.2406C134.048 17.4149 133.077 17.8563 132.265 18.5213C131.453 19.1863 130.828 20.0519 130.452 21.0327Z" fill="#B55B52"/>
<path d="M138.226 25.6388C138.021 26.4553 138.075 27.3152 138.38 28.0996C138.798 29.2076 139.666 29.1819 140.084 28.396C140.502 27.61 140.727 26.2572 140.039 25.3811C139.351 24.505 138.489 24.737 138.226 25.6388Z" fill="#B55B52"/>
<path d="M130.973 13.8502C129.759 13.682 128.524 13.914 127.453 14.5114C126.382 15.1087 125.535 16.0388 125.038 17.1613C123.489 20.2856 122.003 24.4085 119.785 23.5517C120.203 24.1959 121.521 24.9109 121.971 24.6146C120.473 26.1156 120.177 27.3331 119.856 30.4123C119.457 34.2195 117.355 33.382 117.355 33.382C117.355 33.382 119.811 37.3696 127.855 38.7804C135.005 40.0687 138.316 38.4325 139.28 37.0926C138.29 36.7705 136.747 33.2274 138.104 31.2176C139.46 29.2077 141.807 23.6483 141.422 21.4194C142.29 22.798 142.335 24.9882 143.061 22.7851C143.788 20.582 144.116 18.2758 141.422 15.5379C139.023 13.0707 132.021 11.866 130.973 13.8502Z" fill="#263238"/>
<path d="M129.552 66.0747C129.552 66.0747 120.64 95.9845 116.287 113.184C111.696 131.344 96.0525 152.673 96.0525 152.673L90.2657 149.452C90.2657 149.452 99.7561 129.077 104.206 112.128C113.207 77.7217 108.893 70.4295 116.094 63.44L129.552 66.0747Z" fill="#263238"/>
<path d="M96.5924 153.24L89.4038 149.221L90.4519 147.095L98.9328 151.005L96.5924 153.24Z" fill="#407BFF"/>
<path d="M125.366 72.4393C119.522 76.9487 119.13 94.1679 119.265 101.943C122.235 91.0758 125.752 78.9843 127.81 71.982C127.25 71.5053 126.44 71.6083 125.366 72.4393Z" fill="black"/>
<path d="M93.9565 159.16C93.9048 159.18 93.8508 159.193 93.7957 159.199C93.217 159.25 92.4647 158.458 92.0725 157.975C92.0617 157.957 92.056 157.937 92.056 157.917C92.056 157.896 92.0617 157.876 92.0725 157.859C92.0856 157.84 92.1052 157.826 92.1276 157.82C92.1501 157.814 92.1739 157.816 92.1947 157.827C92.3876 157.827 94.0465 158.001 94.3166 158.516C94.3494 158.572 94.3667 158.635 94.3667 158.7C94.3667 158.764 94.3494 158.828 94.3166 158.883C94.2341 159.016 94.1061 159.115 93.9565 159.16ZM92.4133 158.046C92.9598 158.69 93.4614 159.012 93.7764 158.986C93.8435 158.978 93.9071 158.952 93.9612 158.911C94.0153 158.87 94.0579 158.816 94.0851 158.754C94.0992 158.73 94.1066 158.702 94.1066 158.674C94.1066 158.646 94.0992 158.618 94.0851 158.593C93.95 158.323 93.0756 158.129 92.4133 158.046Z" fill="#407BFF"/>
<path d="M134.105 66.9956C134.105 66.9956 135.243 103.167 132.69 116.785C130.041 130.957 121.959 163.167 121.959 163.167L115.388 162.336C115.388 162.336 119.541 129.772 121.309 115.697C123.238 100.345 120.711 64.3931 120.711 64.3931L134.105 66.9956Z" fill="#263238"/>
<path d="M123.36 163.58L113.985 162.368L114.101 160.14L124.299 160.584L123.36 163.58Z" fill="#407BFF"/>
<path d="M93.5576 157.782C93.1075 157.966 92.6216 158.045 92.1366 158.014C92.1183 158.011 92.1011 158.003 92.0865 157.992C92.0719 157.981 92.0604 157.966 92.053 157.949C92.045 157.932 92.0408 157.913 92.0408 157.894C92.0408 157.876 92.045 157.857 92.053 157.84C92.0916 157.801 92.876 156.783 93.5318 156.738C93.6176 156.729 93.7044 156.739 93.7857 156.768C93.867 156.797 93.9407 156.844 94.0012 156.906C94.0694 156.959 94.117 157.034 94.1357 157.119C94.1545 157.204 94.1433 157.292 94.1041 157.369C93.9738 157.565 93.7811 157.71 93.5576 157.782ZM92.3681 157.814C92.9274 157.814 93.789 157.556 93.9241 157.273C93.9241 157.228 93.9627 157.157 93.8598 157.06C93.8217 157.021 93.7754 156.991 93.7242 156.972C93.6731 156.953 93.6183 156.946 93.564 156.951C93.1718 156.977 92.651 157.492 92.3681 157.827V157.814Z" fill="#407BFF"/>
<path d="M122.286 169.422C121.804 169.414 121.324 169.36 120.852 169.261C120.83 169.257 120.811 169.246 120.796 169.23C120.78 169.214 120.771 169.193 120.769 169.171C120.766 169.149 120.77 169.127 120.781 169.107C120.791 169.088 120.807 169.072 120.826 169.062C121.039 168.952 122.884 168.018 123.431 168.334C123.483 168.36 123.527 168.4 123.558 168.451C123.588 168.501 123.604 168.558 123.604 168.617C123.617 168.715 123.604 168.815 123.568 168.907C123.533 169 123.474 169.081 123.398 169.145C123.07 169.362 122.678 169.46 122.286 169.422ZM121.219 169.107C122.222 169.274 122.974 169.229 123.257 168.984C123.304 168.94 123.341 168.886 123.365 168.826C123.388 168.766 123.397 168.701 123.392 168.636C123.392 168.613 123.385 168.591 123.374 168.57C123.363 168.55 123.347 168.533 123.328 168.52C123.058 168.379 121.977 168.778 121.219 169.132V169.107Z" fill="#407BFF"/>
<path d="M120.878 169.287C120.857 169.294 120.834 169.294 120.814 169.287C120.797 169.277 120.785 169.263 120.777 169.246C120.769 169.228 120.766 169.209 120.769 169.191C120.769 169.107 120.987 167.258 122.009 167.258H122.099C122.395 167.29 122.479 167.438 122.498 167.561C122.582 168.076 121.476 169.062 120.923 169.313L120.878 169.287ZM122.016 167.438C121.373 167.438 121.096 168.521 121.013 168.984C121.585 168.649 122.331 167.87 122.299 167.561C122.299 167.561 122.299 167.458 122.087 167.438H122.016Z" fill="#407BFF"/>
<path d="M115.984 62.3383L114.891 63.8135C114.808 63.923 114.936 64.084 115.148 64.1227L134.329 67.8461C134.496 67.8783 134.644 67.8461 134.669 67.7237L135.107 66.1261C135.139 66.0102 135.01 65.8878 134.83 65.8556L116.306 62.261C116.25 62.2455 116.191 62.2444 116.135 62.258C116.079 62.2715 116.027 62.2991 115.984 62.3383Z" fill="#407BFF"/>
<path d="M115.984 62.3383L114.891 63.8135C114.808 63.923 114.936 64.084 115.148 64.1227L134.329 67.8461C134.496 67.8783 134.644 67.8461 134.669 67.7237L135.107 66.1261C135.139 66.0102 135.01 65.8878 134.83 65.8556L116.306 62.261C116.25 62.2455 116.191 62.2444 116.135 62.258C116.079 62.2715 116.027 62.2991 115.984 62.3383Z" fill="black"/>
<path d="M118.139 64.8828L117.644 64.7926C117.548 64.7926 117.477 64.7024 117.496 64.6445L118.081 62.5702C118.081 62.5122 118.191 62.4735 118.287 62.4929L118.789 62.5895C118.885 62.5895 118.949 62.6732 118.937 62.7377L118.351 64.812C118.332 64.8699 118.242 64.9021 118.139 64.8828Z" fill="#263238"/>
<path d="M130.665 67.3436L130.169 67.247C130.073 67.247 130.009 67.1633 130.022 67.1053L130.607 65.031C130.607 64.973 130.716 64.9344 130.812 64.9537L131.314 65.0503C131.41 65.0503 131.475 65.1341 131.462 65.1985L130.877 67.2728C130.864 67.3308 130.774 67.363 130.665 67.3436Z" fill="#263238"/>
<path d="M103.266 232.231H104.861L115.174 181.346H134.207L144.494 232.237H146.089L135.576 180.412C135.546 180.231 135.452 180.067 135.312 179.949C135.172 179.831 134.994 179.767 134.811 179.768H114.538C114.355 179.767 114.177 179.831 114.037 179.949C113.897 180.067 113.803 180.231 113.773 180.412L103.266 232.231Z" fill="#263238"/>
<path d="M72.7115 232.231H74.3061L84.5939 181.34H103.62L113.933 232.212H115.528L109.381 201.883L105.054 180.406C105.023 180.225 104.929 180.061 104.789 179.943C104.649 179.825 104.472 179.761 104.288 179.762H83.9895C83.8064 179.761 83.6289 179.825 83.4887 179.943C83.3485 180.061 83.2548 180.225 83.2243 180.406L72.7115 232.231Z" fill="#263238"/>
<path d="M137.087 173.848H81.7393C81.11 173.847 80.4867 173.971 79.9052 174.211C79.3236 174.452 78.7952 174.806 78.3502 175.252C77.9052 175.697 77.5524 176.227 77.312 176.81C77.0715 177.392 76.9482 178.017 76.9491 178.647V178.808C76.9482 179.038 76.9927 179.266 77.0799 179.478C77.167 179.691 77.2953 179.884 77.4572 180.047C77.619 180.21 77.8114 180.339 78.0232 180.427C78.2351 180.515 78.4622 180.56 78.6916 180.56H140.135C140.365 180.56 140.592 180.515 140.804 180.427C141.015 180.339 141.208 180.21 141.37 180.047C141.532 179.884 141.66 179.691 141.747 179.478C141.834 179.266 141.879 179.038 141.878 178.808V178.647C141.879 178.017 141.755 177.392 141.515 176.81C141.274 176.227 140.922 175.697 140.477 175.252C140.032 174.806 139.503 174.452 138.922 174.211C138.34 173.971 137.717 173.847 137.087 173.848Z" fill="#407BFF"/>
<path d="M241.367 101.364C242.724 103.869 243.978 106.375 245.18 108.939C246.383 111.503 247.508 114.093 248.556 116.766L248.942 117.771L249.135 118.28L249.244 118.576L249.405 119.085C249.702 120.193 249.741 121.355 249.521 122.48C249.202 124.137 248.622 125.733 247.804 127.209C247.099 128.539 246.295 129.813 245.399 131.022C244.53 132.215 243.582 133.349 242.563 134.417L239.683 132.349C240.838 129.966 241.849 127.516 242.711 125.012C243.08 123.956 243.307 122.855 243.386 121.739C243.386 121.314 243.316 120.973 243.264 120.986L243.181 120.805L242.956 120.348L242.512 119.433C241.303 116.985 240.049 114.531 238.789 112.076L235.041 104.7L241.367 101.364Z" fill="#FF8B7B"/>
<path d="M240.21 131.724L237.509 133.219L241.567 136.697C241.567 136.697 243.251 135.029 242.962 133.019L240.21 131.724Z" fill="#FF8B7B"/>
<path d="M234.905 135.854L238.397 138.566L241.554 136.691L237.496 133.219L234.905 135.854Z" fill="#FF8B7B"/>
<path d="M220.477 83.3843C220.419 83.7193 220.201 83.9641 219.988 83.9254C219.776 83.8868 219.635 83.5969 219.686 83.2812C219.738 82.9656 219.956 82.7015 220.175 82.7401C220.393 82.7788 220.528 83.0493 220.477 83.3843Z" fill="#263238"/>
<path d="M220.232 83.964C219.674 84.9129 218.988 85.7801 218.194 86.5407C218.396 86.7407 218.639 86.8934 218.907 86.9881C219.175 87.0827 219.461 87.117 219.743 87.0883L220.232 83.964Z" fill="#FF5652"/>
<path d="M221.974 81.7222C221.948 81.7224 221.922 81.7173 221.898 81.7074C221.874 81.6974 221.852 81.6828 221.833 81.6643C221.661 81.4843 221.449 81.3479 221.214 81.2661C220.98 81.1843 220.729 81.1596 220.483 81.194C220.432 81.2036 220.379 81.1927 220.336 81.1639C220.292 81.135 220.262 81.0903 220.251 81.0394C220.246 81.0144 220.245 80.9886 220.249 80.9634C220.254 80.9381 220.263 80.914 220.277 80.8925C220.291 80.8709 220.308 80.8523 220.329 80.8377C220.351 80.8231 220.374 80.8128 220.399 80.8075C220.711 80.7559 221.03 80.7818 221.33 80.8829C221.629 80.984 221.899 81.1572 222.116 81.3873C222.134 81.4053 222.149 81.4268 222.159 81.4506C222.169 81.4744 222.174 81.4999 222.174 81.5258C222.174 81.5516 222.169 81.5772 222.159 81.6009C222.149 81.6247 222.134 81.6463 222.116 81.6643C222.097 81.6828 222.075 81.6974 222.051 81.7074C222.027 81.7173 222.001 81.7224 221.974 81.7222Z" fill="#263238"/>
<path d="M231.588 87.0626C230.99 90.1289 230.392 95.7398 232.533 97.7819C232.533 97.7819 231.697 100.893 226.013 100.893C219.763 100.893 223.03 97.7819 223.03 97.7819C226.437 96.9702 226.347 94.4321 225.756 92.055L231.588 87.0626Z" fill="#FF8B7B"/>
<path d="M235.908 100.893C235.821 100.721 235.76 100.536 235.728 100.346C235.175 97.3631 232.848 95.0183 229.832 94.9023C226.617 94.7864 223.061 95.3275 220.933 97.8334C220.001 98.9285 221.036 100.533 221.036 100.533L235.908 100.893Z" fill="#407BFF"/>
<path d="M245.811 225.912H245.772C245.698 225.87 245.64 225.805 245.605 225.727C245.57 225.65 245.561 225.563 245.579 225.48C245.583 225.413 245.601 225.347 245.634 225.288C245.666 225.229 245.711 225.178 245.766 225.139C246.261 224.759 247.637 224.99 247.695 225.003C247.713 225.007 247.731 225.016 247.745 225.028C247.76 225.041 247.771 225.056 247.778 225.074C247.782 225.093 247.781 225.113 247.774 225.131C247.767 225.15 247.755 225.165 247.74 225.177C247.405 225.422 246.299 226.111 245.811 225.912ZM247.425 225.145C246.91 225.037 246.375 225.084 245.888 225.28C245.854 225.302 245.826 225.332 245.806 225.366C245.786 225.401 245.775 225.44 245.772 225.48C245.772 225.66 245.836 225.705 245.862 225.718C246.126 225.86 246.904 225.499 247.425 225.145Z" fill="#407BFF"/>
<path d="M246.981 224.997C246.505 224.81 245.997 224.501 245.926 224.204C245.909 224.132 245.918 224.055 245.951 223.989C245.984 223.922 246.039 223.868 246.106 223.837C246.17 223.797 246.241 223.77 246.315 223.759C246.389 223.748 246.465 223.753 246.537 223.773C247.142 223.927 247.74 224.99 247.765 225.061C247.774 225.076 247.779 225.092 247.779 225.11C247.779 225.127 247.774 225.143 247.765 225.158C247.756 225.173 247.742 225.186 247.727 225.195C247.711 225.204 247.693 225.209 247.675 225.209C247.435 225.17 247.202 225.099 246.981 224.997ZM246.557 223.985H246.492C246.445 223.972 246.395 223.968 246.347 223.975C246.298 223.982 246.251 223.998 246.209 224.024C246.1 224.088 246.113 224.146 246.119 224.172C246.184 224.449 246.955 224.855 247.482 224.971C247.264 224.568 246.945 224.228 246.557 223.985Z" fill="#407BFF"/>
<path d="M214.182 228.643C213.648 228.643 213.127 228.572 212.954 228.327C212.91 228.264 212.887 228.188 212.887 228.111C212.887 228.034 212.91 227.959 212.954 227.895C212.988 227.837 213.033 227.787 213.087 227.747C213.142 227.707 213.203 227.679 213.269 227.663C213.963 227.477 215.429 228.308 215.487 228.346C215.505 228.355 215.52 228.368 215.529 228.386C215.538 228.403 215.542 228.423 215.538 228.443C215.536 228.464 215.526 228.484 215.511 228.499C215.496 228.514 215.476 228.524 215.455 228.527C215.035 228.602 214.609 228.641 214.182 228.643ZM213.539 227.831C213.475 227.821 213.41 227.821 213.346 227.831C213.266 227.849 213.197 227.898 213.153 227.966C213.082 228.089 213.108 228.153 213.153 228.185C213.346 228.456 214.407 228.462 215.185 228.353C214.669 228.072 214.103 227.894 213.519 227.831H213.539Z" fill="#407BFF"/>
<path d="M215.442 228.527H215.404C214.902 228.301 213.899 227.393 213.976 226.923C213.976 226.807 214.073 226.672 214.343 226.646C214.441 226.634 214.541 226.643 214.637 226.672C214.732 226.7 214.82 226.749 214.896 226.813C215.274 227.271 215.499 227.837 215.539 228.43C215.539 228.447 215.535 228.463 215.527 228.478C215.519 228.493 215.508 228.505 215.494 228.514C215.479 228.524 215.46 228.529 215.442 228.527ZM214.426 226.833H214.362C214.182 226.833 214.169 226.923 214.169 226.949C214.118 227.232 214.812 227.941 215.314 228.237C215.27 227.76 215.076 227.309 214.761 226.949C214.667 226.87 214.548 226.829 214.426 226.833Z" fill="#407BFF"/>
<path d="M220.039 228.43H215.86L215.448 218.729H219.628L220.039 228.43Z" fill="#FF8B7B"/>
<path d="M252.24 224.063L248.324 224.958L243.753 215.663L247.669 214.761L252.24 224.063Z" fill="#FF8B7B"/>
<path d="M247.758 224.514L252.028 222.581C252.103 222.546 252.188 222.538 252.269 222.558C252.349 222.578 252.421 222.625 252.471 222.691L254.773 225.731C254.824 225.808 254.858 225.894 254.872 225.984C254.887 226.074 254.882 226.167 254.859 226.255C254.835 226.344 254.793 226.426 254.735 226.497C254.677 226.567 254.605 226.625 254.523 226.665C253.024 227.31 252.259 227.567 250.382 228.431C249.231 228.959 245.148 231.845 243.431 232.212C241.714 232.579 241.129 230.924 241.798 230.627C244.182 229.431 246.101 227.472 247.25 225.061C247.344 224.821 247.526 224.625 247.758 224.514Z" fill="#263238"/>
<path d="M215.892 227.947H220.457C220.539 227.948 220.619 227.976 220.683 228.028C220.747 228.079 220.792 228.151 220.811 228.231L221.634 231.954C221.656 232.044 221.656 232.138 221.636 232.228C221.616 232.318 221.576 232.403 221.518 232.475C221.46 232.547 221.387 232.605 221.303 232.644C221.22 232.684 221.128 232.703 221.036 232.702C219.39 232.669 217.011 232.573 214.941 232.573C212.516 232.573 210.44 232.708 207.591 232.708C205.874 232.708 205.399 230.969 206.119 230.814C209.385 230.093 212.054 230.015 214.883 228.27C215.183 228.07 215.532 227.958 215.892 227.947Z" fill="#263238"/>
<path d="M233.851 105.841C234.288 106.968 234.764 108.063 235.253 109.062C236.082 110.84 236.912 112.392 237.516 113.468C238.056 114.434 238.41 115.008 238.41 115.008L247.54 110.498C247.54 110.498 243.862 99.9013 240.017 98.7225C236.172 97.5436 231.877 100.79 233.851 105.841Z" fill="#263238"/>
<path d="M237.895 106.891C237.104 107.477 236.531 109.055 236.126 110.904C236.647 111.922 237.129 112.837 237.515 113.481C238.055 114.447 238.403 115.02 238.403 115.02L239.451 114.499C239.428 111.886 238.899 109.302 237.895 106.891Z" fill="black"/>
<path d="M214.542 112.598C214.542 114.022 214.574 115.594 214.658 117.32C214.864 122.016 215.372 127.872 216.356 135.145H238.712C238.866 131.711 236.706 114.93 239.998 98.7289C237.526 98.254 235.026 97.9377 232.514 97.7819C229.348 97.6014 226.176 97.6014 223.01 97.7819C220.84 98.0052 218.691 98.395 216.581 98.9479C216.581 98.9479 214.536 101.28 214.542 112.598Z" fill="#263238"/>
<path d="M215.198 109.577C214.992 110.028 214.773 110.485 214.555 110.975C214.555 111.497 214.555 112.038 214.555 112.598C214.555 112.824 214.555 113.056 214.555 113.288C217.332 111.593 219.152 108.037 219.152 108.037L215.198 109.577Z" fill="black"/>
<path d="M221.268 106.53L220.625 106.929L220.059 107.258C219.68 107.483 219.326 107.644 218.966 107.844C218.246 108.198 217.539 108.533 216.825 108.856C215.404 109.5 213.951 110.041 212.491 110.556C209.479 111.627 206.348 112.332 203.168 112.656C202.737 112.656 202.339 112.74 201.882 112.734H200.493C199.444 112.655 198.415 112.407 197.445 111.999C195.91 111.354 194.451 110.542 193.092 109.577C190.571 107.817 188.243 105.794 186.148 103.541L188.386 100.784C190.868 102.162 193.401 103.605 195.877 104.752C197.025 105.308 198.219 105.765 199.445 106.118C199.846 106.235 200.262 106.289 200.68 106.279L201.49 106.201C201.773 106.201 202.094 106.111 202.396 106.073C205.02 105.579 207.589 104.83 210.067 103.837C211.353 103.354 212.639 102.813 213.887 102.265C214.53 101.982 215.128 101.699 215.719 101.402L216.568 100.958L216.96 100.752L217.269 100.571L221.268 106.53Z" fill="#FF8B7B"/>
<path d="M189.164 101.654L186.553 98.278L183.904 102.742C183.904 102.742 186.341 104.559 188.289 104.23L189.164 101.654Z" fill="#FF8B7B"/>
<path d="M182.65 96.9056L181.261 100.59L183.904 102.742L186.553 98.278L182.65 96.9056Z" fill="#FF8B7B"/>
<path d="M225.042 105.596C222.876 108.959 211.09 112.637 211.09 112.637L206.55 103.283C209.703 101.436 213.061 99.9657 216.555 98.9027C224.078 96.8413 227.647 101.557 225.042 105.596Z" fill="#263238"/>
<path d="M215.448 218.735L215.66 223.734H219.84L219.628 218.735H215.448Z" fill="black"/>
<path d="M247.669 214.767L243.753 215.669L246.113 220.462L250.028 219.56L247.669 214.767Z" fill="black"/>
<path d="M231.723 84.4214C230.829 88.4798 230.514 90.902 228.115 92.6799C224.515 95.3598 219.757 92.6799 219.422 88.4476C219.12 84.6211 220.631 78.6301 224.888 77.6252C225.826 77.399 226.806 77.4169 227.736 77.6774C228.665 77.9378 229.513 78.432 230.197 79.1131C230.882 79.7942 231.382 80.6394 231.649 81.5685C231.916 82.4976 231.941 83.4797 231.723 84.4214Z" fill="#FF8B7B"/>
<path d="M235.446 74.4752C239.002 74.5719 240.294 80.492 239.233 82.2571C239.233 82.2571 238.095 82.9012 236.713 85.0722C234.617 88.3833 231.942 91.965 228.804 91.7524C224.908 91.4819 224.303 86.9725 224.438 82.7788C222.381 80.8463 221.256 80.6917 220.246 77.8894C217.128 69.2508 223.12 64.9219 235.446 74.4752Z" fill="#263238"/>
<path d="M226.116 84.0286C226.006 85.0768 225.554 86.0595 224.83 86.8244C223.859 87.8229 222.901 87.1529 222.785 85.8903C222.676 84.7565 223.049 82.8755 224.206 82.3472C225.364 81.819 226.232 82.7595 226.116 84.0286Z" fill="#FF8B7B"/>
<path d="M224.284 135.145C224.284 135.145 223.802 164.952 227.537 176.638C233.459 195.145 243.612 220.043 243.612 220.043L251.251 218.111C251.251 218.111 242.834 192.871 240.101 177.282C237.645 163.277 238.687 146.605 238.687 135.164L224.284 135.145Z" fill="#407BFF"/>
<path d="M228.456 140.266C229.247 145.639 226.45 160.59 225.485 165.486C224.469 156.332 224.283 145.471 224.27 139.545C226.315 138.153 228.089 137.793 228.456 140.266Z" fill="black"/>
<path d="M241.592 217.788C241.56 217.788 243.463 220.21 243.463 220.21L251.822 218.078L250.896 215.237L241.592 217.788Z" fill="#407BFF"/>
<path d="M241.592 217.788C241.56 217.788 243.463 220.21 243.463 220.21L251.822 218.078L250.896 215.237L241.592 217.788Z" fill="white"/>
<path d="M216.349 135.145C216.349 135.145 210.054 161.886 209.611 174.66C209.116 188.98 214.112 222.768 214.112 222.768H221.185C221.185 222.768 222.078 188.748 222.374 175.671C222.721 161.448 231.08 135.145 231.08 135.145H216.349Z" fill="#407BFF"/>
<path d="M212.742 219.94C212.709 219.94 213.14 222.884 213.14 222.884H221.756L221.988 220.256L212.742 219.94Z" fill="#407BFF"/>
<path d="M212.742 219.94C212.709 219.94 213.14 222.884 213.14 222.884H221.756L221.988 220.256L212.742 219.94Z" fill="white"/>
<path d="M41.7264 112.852C53.9735 112.852 63.9018 102.979 63.9018 90.8001C63.9018 78.6211 53.9735 68.7481 41.7264 68.7481C29.4792 68.7481 19.5509 78.6211 19.5509 90.8001C19.5509 102.979 29.4792 112.852 41.7264 112.852Z" fill="#407BFF"/>
<path d="M42.096 112.852C54.3432 112.852 64.2715 102.979 64.2715 90.8C64.2715 78.6211 54.3432 68.7481 42.096 68.7481C29.8489 68.7481 19.9206 78.6211 19.9206 90.8C19.9206 102.979 29.8489 112.852 42.096 112.852Z" fill="white"/>
<path d="M43.9267 78.6358H39.4011C38.5728 78.6358 37.9013 79.3035 37.9013 80.1272V103.519C37.9013 104.342 38.5728 105.01 39.4011 105.01H43.9267C44.755 105.01 45.4265 104.342 45.4265 103.519V80.1272C45.4265 79.3035 44.755 78.6358 43.9267 78.6358Z" fill="#98FFCA"/>
<path d="M54.9878 94.4815V89.9811C54.9878 89.1574 54.3164 88.4897 53.4881 88.4897H29.9654C29.1371 88.4897 28.4657 89.1574 28.4657 89.9811V94.4815C28.4657 95.3052 29.1371 95.9729 29.9654 95.9729H53.4881C54.3164 95.9729 54.9878 95.3052 54.9878 94.4815Z" fill="#98FFCA"/>
</svg>
