<svg width="600" height="435" viewBox="0 0 600 435" fill="none" xmlns="http://www.w3.org/2000/svg">
<path d="M0 0.0651855H600V434.606H0V0.0651855Z" fill="white"/>
<path d="M434.302 112.579L432.516 109.388C417.447 82.4539 390.206 66.2219 361.487 68.1844C357.788 68.4378 354.111 68.9865 350.484 69.8259C324.37 75.8877 301.654 97.3378 292.237 124.74C286.693 140.88 285.149 159.45 274.638 172.262C260.955 188.925 237.73 189.447 217.309 188.769C196.889 188.09 173.647 188.668 160.039 205.395C151.507 215.877 148.802 230.779 149.487 244.829C151.307 281.988 175.175 315.213 205.53 331.72C235.885 348.227 271.624 349.713 304.876 342.45C351.411 332.28 395.674 304.328 422.272 261.162C448.87 217.996 455.583 159.166 434.302 112.579Z" fill="#EBEBEB"/>
<path d="M412.704 116.174C412.715 116.066 412.732 115.959 412.755 115.853C412.796 115.624 412.855 115.312 412.938 114.936L413.656 111.341C414.299 108.214 415.234 103.711 416.378 98.1447C418.707 86.9841 421.929 71.5499 425.494 54.5109L425.653 53.7406L425.811 54.5109C425.878 54.8135 425.945 55.1437 426.012 55.428C429.56 72.7421 432.774 88.4422 435.103 99.7679L437.817 113.212C438.134 114.789 438.376 116.018 438.543 116.88L438.718 117.797C438.741 117.906 438.758 118.016 438.768 118.127C438.768 118.127 438.768 118.017 438.685 117.806L438.476 116.889C438.292 116.037 438.034 114.808 437.691 113.221L434.878 99.8046C432.524 88.4514 429.276 72.7971 425.695 55.4922C425.628 55.162 425.561 54.8319 425.494 54.5201H425.811C422.213 71.5866 418.957 86.9841 416.628 98.1355C415.434 103.693 414.474 108.223 413.806 111.314C413.472 112.854 413.205 114.065 413.022 114.89C412.93 115.285 412.863 115.587 412.813 115.807C412.763 116.027 412.704 116.174 412.704 116.174Z" fill="#263238"/>
<path d="M412.704 129.132V118.183H439.311V129.132C439.312 130.807 439.013 132.466 438.43 134.013C437.847 135.561 436.993 136.967 435.915 138.152C434.837 139.336 433.558 140.276 432.149 140.917C430.741 141.559 429.231 141.889 427.707 141.889H424.317C421.237 141.889 418.284 140.545 416.106 138.152C413.928 135.76 412.704 132.515 412.704 129.132Z" fill="#455A64"/>
<path d="M412.704 118.183C412.82 118.323 412.92 118.477 413.005 118.641L413.84 119.999L416.77 125.024L426.337 141.678L426.404 141.788H426.062C429.677 135.258 432.949 129.353 435.345 125.042L438.184 119.999C438.509 119.421 438.777 118.971 438.969 118.632C439.053 118.47 439.151 118.316 439.261 118.174C439.2 118.348 439.122 118.514 439.027 118.669L438.292 120.063L435.537 125.171C433.175 129.499 429.927 135.424 426.354 141.971L426.221 142.219L426.079 141.971L426.012 141.852L416.52 125.143L413.681 120.063C413.364 119.476 413.105 119.017 412.921 118.669C412.839 118.513 412.766 118.35 412.704 118.183Z" fill="#263238"/>
<path d="M428.617 54.3918C428.617 55.023 428.447 55.6401 428.128 56.1649C427.809 56.6897 427.355 57.0987 426.824 57.3403C426.293 57.5818 425.709 57.645 425.145 57.5219C424.582 57.3988 424.064 57.0948 423.658 56.6485C423.252 56.2022 422.975 55.6335 422.863 55.0145C422.751 54.3954 422.808 53.7537 423.028 53.1706C423.248 52.5874 423.62 52.089 424.098 51.7383C424.576 51.3876 425.138 51.2005 425.712 51.2005C426.483 51.2005 427.222 51.5367 427.767 52.1352C428.311 52.7337 428.617 53.5454 428.617 54.3918Z" fill="#263238"/>
<path d="M425.712 0.0651855C425.804 0.0651855 425.879 12.363 425.879 27.577C425.879 42.7911 425.804 55.0155 425.712 55.0155C425.62 55.0155 425.554 42.7269 425.554 27.5587C425.554 12.3905 425.62 0.0651855 425.712 0.0651855Z" fill="#263238"/>
<path d="M427.222 143.053C427.222 143.324 427.149 143.588 427.013 143.813C426.876 144.037 426.682 144.212 426.455 144.316C426.227 144.419 425.977 144.446 425.736 144.394C425.495 144.341 425.273 144.211 425.099 144.02C424.925 143.829 424.807 143.585 424.759 143.32C424.711 143.055 424.735 142.78 424.829 142.531C424.923 142.281 425.083 142.067 425.287 141.917C425.492 141.767 425.733 141.687 425.979 141.687C426.308 141.687 426.625 141.831 426.858 142.087C427.091 142.343 427.222 142.691 427.222 143.053Z" fill="#263238"/>
<path d="M425.427 143.585L425.628 143.475C425.276 143.724 424.98 144.057 424.762 144.449C424.543 144.842 424.409 145.283 424.367 145.74C424.295 146.664 424.368 147.595 424.584 148.491C424.634 148.776 424.776 149.124 425.035 149.106C425.294 149.088 425.386 148.785 425.427 148.528C425.512 147.986 425.526 147.433 425.469 146.887C425.439 147.587 425.644 148.276 426.045 148.822C426.12 148.922 426.237 149.033 426.354 148.996C426.471 148.959 426.513 148.822 426.546 148.693C426.657 148.235 426.719 147.764 426.73 147.29C426.76 147.707 426.899 148.105 427.131 148.436C427.19 148.515 427.264 148.579 427.348 148.625C427.431 148.671 427.522 148.698 427.615 148.704C427.708 148.71 427.801 148.695 427.888 148.66C427.976 148.625 428.056 148.571 428.124 148.501C428.25 148.259 428.286 147.973 428.224 147.703C428.014 146.067 427.415 144.52 426.488 143.218" fill="#263238"/>
<path d="M412.706 95.3662C412.789 95.3662 414.91 100.318 417.439 106.518C419.969 112.717 421.964 117.77 421.881 117.816C421.797 117.862 419.677 112.864 417.139 106.664C414.601 100.465 412.597 95.4212 412.706 95.3662Z" fill="#263238"/>
<path d="M422.339 98.1725C422.431 98.1725 422.781 102.565 423.123 108.003C423.466 113.442 423.674 117.853 423.583 117.853C423.491 117.853 423.14 113.46 422.798 108.022C422.456 102.584 422.247 98.1816 422.339 98.1725Z" fill="#263238"/>
<path d="M441.415 100.291C441.49 100.346 439.161 104.17 436.206 108.829C433.25 113.487 430.796 117.211 430.729 117.156C430.662 117.101 432.983 113.276 435.939 108.618C438.894 103.959 441.34 100.236 441.415 100.291Z" fill="#263238"/>
<path d="M418.381 117.862C418.001 117.64 417.65 117.362 417.338 117.036C416.542 116.313 415.781 115.545 415.058 114.734C414.338 113.923 413.658 113.069 413.021 112.176C412.73 111.825 412.485 111.429 412.295 111.002C412.37 110.938 413.614 112.589 415.292 114.478C416.97 116.367 418.44 117.779 418.381 117.862Z" fill="#263238"/>
<path d="M425.645 111.873C425.891 112.892 426.031 113.938 426.062 114.991C426.208 116.035 426.242 117.094 426.162 118.146C425.915 117.127 425.772 116.082 425.737 115.028C425.596 113.984 425.565 112.925 425.645 111.873Z" fill="#263238"/>
<path d="M439.277 125.005C438.943 125.119 438.599 125.196 438.251 125.235C437.591 125.372 436.581 125.537 435.429 125.712C432.309 126.191 429.168 126.497 426.02 126.629C422.87 126.753 419.716 126.606 416.586 126.188C415.384 126.023 414.424 125.849 413.765 125.693C413.417 125.632 413.074 125.543 412.738 125.427C413.088 125.434 413.438 125.477 413.781 125.556C414.449 125.666 415.451 125.803 416.611 125.941C419.735 126.278 422.875 126.385 426.012 126.262C429.685 126.124 432.999 125.748 435.395 125.455L438.234 125.088C438.579 125.027 438.928 125 439.277 125.005Z" fill="white"/>
<path d="M439.277 128.27C438.94 128.372 438.597 128.449 438.251 128.5C437.591 128.628 436.581 128.793 435.429 128.976C432.309 129.46 429.169 129.766 426.02 129.893C422.87 130.025 419.715 129.881 416.586 129.462C415.384 129.288 414.424 129.123 413.765 128.967C413.416 128.907 413.072 128.815 412.738 128.692C413.088 128.711 413.436 128.753 413.781 128.821C414.449 128.94 415.451 129.068 416.611 129.206C419.734 129.551 422.875 129.661 426.012 129.536C429.685 129.398 432.999 129.022 435.395 128.72L438.234 128.362C438.579 128.298 438.928 128.268 439.277 128.27Z" fill="white"/>
<path d="M243.622 157.121L240.725 164.788C241.399 166.532 241.905 168.348 242.236 170.208C242.378 171.977 241.068 179.507 241.068 179.507C240.665 179.531 240.268 179.4 239.943 179.137C239.619 178.875 239.388 178.496 239.289 178.067C239.281 176.591 239.371 175.117 239.557 173.656C239.378 173.402 239.144 173.202 238.875 173.075C238.607 172.948 238.313 172.898 238.023 172.93C237.732 172.962 237.454 173.075 237.214 173.258C236.974 173.441 236.78 173.689 236.651 173.977C235.816 175.811 234.865 177.975 234.698 178.223C234.531 178.47 234.815 181.267 235.082 183.322C235.124 183.598 235.082 183.883 234.961 184.13C234.841 184.377 234.649 184.574 234.416 184.688C234.182 184.802 233.921 184.829 233.673 184.762C233.425 184.696 233.204 184.541 233.045 184.321C232.974 184.231 232.931 184.119 232.919 184C232.919 184 231.826 185.761 230.749 182.524C230.749 182.524 228.578 181.313 228.528 179.332C228.528 179.332 226.55 176.893 226.282 175.435C226.015 173.977 230.549 165.164 230.549 165.164L236.125 152.508L243.622 157.121Z" fill="#FFBE9D"/>
<path d="M233.914 172.885C233.52 173.286 233.188 173.753 232.929 174.27C232.177 175.449 231.687 176.806 231.501 178.232C231.425 179.674 231.686 181.114 232.261 182.414C232.438 182.968 232.695 183.488 233.021 183.954C232.905 183.385 232.74 182.829 232.528 182.294C232.06 181.021 231.849 179.65 231.91 178.278C232.103 176.919 232.534 175.614 233.179 174.435C233.473 173.948 233.719 173.429 233.914 172.885Z" fill="#EB996E"/>
<path d="M231.7 172.344C231.659 172.344 231.225 172.72 230.74 173.564C230.457 174.057 230.206 174.572 229.989 175.105C229.7 175.768 229.536 176.488 229.505 177.223C229.537 177.94 229.644 178.651 229.822 179.341C229.964 179.919 230.098 180.479 230.223 181.01C230.321 181.525 230.484 182.022 230.707 182.487C230.707 181.951 230.642 181.418 230.515 180.9C230.44 180.424 230.331 179.846 230.206 179.213C230.053 178.546 229.958 177.864 229.922 177.177C229.959 176.504 230.103 175.843 230.348 175.224C230.565 174.637 230.799 174.114 230.999 173.683C231.4 172.867 231.742 172.399 231.7 172.344Z" fill="#EB996E"/>
<path d="M229.105 171.959C228.955 171.876 228.27 173.5 227.585 175.517C227.487 175.81 227.461 176.127 227.51 176.434C227.51 176.7 227.577 176.948 227.619 177.186C227.701 177.603 227.815 178.011 227.961 178.406C228.211 179.075 228.487 179.433 228.529 179.396C228.463 179.02 228.365 178.652 228.237 178.296C228.135 177.904 228.055 177.506 227.994 177.104C227.994 176.884 227.928 176.645 227.911 176.398C227.882 176.169 227.902 175.937 227.969 175.719C228.328 174.701 228.612 173.784 228.804 173.105C228.946 172.738 229.047 172.353 229.105 171.959Z" fill="#EB996E"/>
<path d="M360.809 138.367L363.723 135.102C363.918 134.831 364.187 134.635 364.491 134.543C365.042 134.442 365.518 135.057 365.543 135.662C365.519 136.274 365.317 136.862 364.967 137.34C364.624 137.816 364.376 138.366 364.241 138.954" fill="#FFBE9D"/>
<path d="M389.102 111.075L373.716 140.421L344.939 140.651C344.906 139.922 345.131 139.208 345.567 138.657C346.002 138.107 346.615 137.763 347.276 137.698L372.455 137.138L385.537 112.497C386.456 110.764 387.391 110.397 389.102 111.094V111.075Z" fill="#263238"/>
<path d="M363.289 140.476C363.431 140.476 354.198 140.476 354.715 140.632C354.765 140.742 354.807 140.852 354.849 140.962L356.051 146.758C358.13 146.758 364.116 145.025 364.116 145.025C365.176 144.343 366.15 143.511 367.013 142.549V140.458L363.289 140.476Z" fill="#FFBE9D"/>
<path d="M355.149 140.504L333.259 139.504L323.141 113.295L312.388 130.214L321.046 147.318C322.048 149.295 323.532 150.926 325.331 152.029C327.13 153.132 329.173 153.663 331.231 153.563L356.744 150.353L355.149 140.504Z" fill="#C2EBF8"/>
<path d="M358.506 262.913L360.175 279.833C360.175 279.833 376.238 282.447 376.805 285.51L347.235 291.498L343.62 265.252L358.506 262.913Z" fill="#ED280C"/>
<path d="M350.809 279.897C350.536 280.038 350.319 280.283 350.201 280.588C350.082 280.892 350.07 281.234 350.166 281.548C350.284 281.854 350.505 282.099 350.783 282.232C351.061 282.366 351.375 282.376 351.66 282.263C351.949 282.111 352.177 281.848 352.3 281.523C352.423 281.198 352.433 280.835 352.328 280.502C352.174 280.197 351.919 279.969 351.615 279.867C351.311 279.764 350.983 279.795 350.7 279.952" fill="white"/>
<path d="M347.261 291.498L346.894 288.857L375.629 284.162C375.96 284.273 376.261 284.472 376.505 284.743C376.748 285.014 376.926 285.346 377.023 285.711L347.261 291.498Z" fill="white"/>
<path d="M360.659 279.595C360.659 279.751 359.958 279.943 359.307 280.567C358.656 281.19 358.372 281.924 358.23 281.887C358.088 281.851 358.18 280.888 358.973 280.145C359.766 279.402 360.668 279.439 360.659 279.595Z" fill="#263238"/>
<path d="M363.965 280.512C364.015 280.658 363.422 281.034 363.021 281.786C362.62 282.538 362.57 283.272 362.42 283.29C362.27 283.309 362.069 282.419 362.587 281.456C363.105 280.493 363.939 280.356 363.965 280.512Z" fill="#263238"/>
<path d="M366.287 284.327C366.153 284.382 365.844 283.62 366.103 282.685C366.362 281.75 366.996 281.291 367.071 281.42C367.147 281.548 366.796 282.071 366.596 282.841C366.395 283.611 366.429 284.281 366.287 284.327Z" fill="#263238"/>
<path d="M359.882 275.78C359.841 275.935 359.148 275.78 358.329 276.018C357.511 276.256 356.919 276.596 356.818 276.476C356.718 276.357 357.269 275.679 358.229 275.468C359.189 275.257 359.932 275.642 359.882 275.78Z" fill="#263238"/>
<path d="M358.84 266.27L359.141 269.278L344.506 271.479L344.055 268.315L358.84 266.27Z" fill="black"/>
<path d="M359.482 272.359C359.015 272.581 358.501 272.661 357.996 272.588C357.432 272.571 356.871 272.478 356.327 272.313C356.012 272.218 355.705 272.095 355.408 271.946C355.227 271.872 355.058 271.767 354.907 271.635C354.796 271.538 354.718 271.403 354.685 271.252C354.651 271.101 354.665 270.942 354.724 270.8C354.784 270.678 354.868 270.572 354.971 270.491C355.074 270.41 355.192 270.356 355.316 270.332C355.505 270.3 355.696 270.3 355.884 270.332C356.214 270.37 356.541 270.437 356.861 270.534C357.395 270.704 357.902 270.963 358.364 271.304C359.148 271.901 359.466 272.46 359.416 272.497C359.365 272.533 358.956 272.111 358.18 271.644C357.724 271.374 357.239 271.171 356.736 271.038C356.442 270.961 356.143 270.909 355.842 270.883C355.517 270.883 355.25 270.883 355.191 271.048C355.133 271.213 355.191 271.139 355.25 271.231C355.36 271.328 355.484 271.406 355.617 271.46C355.888 271.602 356.167 271.724 356.452 271.827C356.946 272.005 357.455 272.131 357.971 272.203C358.478 272.208 358.984 272.26 359.482 272.359Z" fill="#263238"/>
<path d="M359.324 272.634C359.274 272.634 358.915 272.139 358.723 271.112C358.628 270.505 358.628 269.885 358.723 269.278C358.77 268.918 358.851 268.564 358.965 268.223C359.017 267.996 359.12 267.787 359.267 267.617C359.413 267.447 359.596 267.321 359.8 267.251C359.933 267.232 360.068 267.256 360.19 267.319C360.311 267.383 360.413 267.483 360.484 267.609C360.586 267.785 360.665 267.976 360.718 268.177C360.817 268.537 360.865 268.911 360.86 269.287C360.859 269.911 360.719 270.525 360.451 271.075C359.983 271.992 359.399 272.304 359.382 272.249C359.656 271.817 359.904 271.367 360.125 270.901C360.322 270.391 360.413 269.84 360.392 269.287C360.381 268.975 360.33 268.666 360.242 268.37C360.15 268.03 359.992 267.764 359.875 267.82C359.758 267.875 359.516 268.14 359.424 268.443C359.319 268.741 359.235 269.048 359.173 269.36C359.079 269.913 359.056 270.478 359.107 271.038C359.165 272.029 359.399 272.597 359.324 272.634Z" fill="#263238"/>
<path d="M235.441 272.359L221.048 278.678C221.048 278.678 223.093 296.349 220.539 297.798L207.332 268.113L229.38 257.255L235.441 272.359Z" fill="#ED280C"/>
<path d="M218.486 268.755C218.285 268.492 218.002 268.322 217.692 268.28C217.382 268.237 217.069 268.325 216.816 268.526C216.58 268.733 216.425 269.033 216.385 269.363C216.344 269.692 216.421 270.027 216.599 270.296C216.808 270.562 217.1 270.734 217.417 270.778C217.735 270.822 218.056 270.735 218.319 270.534C218.528 270.284 218.644 269.957 218.644 269.617C218.644 269.277 218.528 268.95 218.319 268.7" fill="white"/>
<path d="M207.332 268.113L209.552 267.022L221.399 296.203C221.381 296.574 221.281 296.935 221.108 297.255C220.935 297.574 220.694 297.843 220.405 298.037L207.332 268.113Z" fill="white"/>
<path d="M221.39 279.099C221.248 279.164 220.898 278.448 220.171 277.935C219.445 277.421 218.727 277.311 218.727 277.146C218.727 276.981 219.562 276.825 220.455 277.467C221.348 278.109 221.524 279.072 221.39 279.099Z" fill="#263238"/>
<path d="M221.474 282.85C221.357 282.942 220.864 282.419 220.096 282.19C219.328 281.961 218.669 282.117 218.619 281.961C218.569 281.805 219.287 281.355 220.238 281.649C221.19 281.942 221.599 282.786 221.474 282.85Z" fill="#263238"/>
<path d="M218.746 286.326C218.662 286.207 219.246 285.675 220.14 285.693C221.033 285.711 221.592 286.262 221.509 286.381C221.425 286.5 220.858 286.262 220.131 286.253C219.405 286.243 218.812 286.463 218.746 286.326Z" fill="#263238"/>
<path d="M224.522 277.256C224.371 277.256 224.288 276.495 223.904 275.679C223.52 274.863 223.011 274.34 223.069 274.211C223.127 274.083 223.904 274.468 224.33 275.422C224.755 276.376 224.655 277.284 224.522 277.256Z" fill="#263238"/>
<path d="M232.586 273.606L230.023 274.734L224.171 259.832L226.441 258.704L232.586 273.606Z" fill="black"/>
<path d="M227.369 275.926C227.052 275.488 226.845 274.966 226.768 274.413C226.638 273.812 226.574 273.197 226.576 272.579C226.578 272.22 226.6 271.862 226.642 271.506C226.659 271.294 226.707 271.087 226.784 270.892C226.839 270.747 226.936 270.627 227.06 270.551C227.184 270.474 227.328 270.446 227.469 270.47C227.592 270.501 227.707 270.563 227.806 270.65C227.904 270.738 227.983 270.848 228.037 270.974C228.12 271.162 228.174 271.363 228.195 271.57C228.251 271.928 228.279 272.29 228.279 272.652C228.277 273.275 228.187 273.894 228.012 274.487C227.894 275.036 227.629 275.534 227.252 275.917C227.177 275.871 227.461 275.33 227.661 274.377C227.776 273.823 227.826 273.256 227.811 272.689C227.803 272.359 227.767 272.03 227.703 271.708C227.653 271.35 227.544 271.075 227.385 271.057C227.227 271.038 227.302 271.057 227.243 271.158C227.191 271.305 227.157 271.459 227.143 271.616C227.09 271.947 227.057 272.281 227.043 272.616C227.021 273.186 227.049 273.757 227.127 274.322C227.243 274.849 227.324 275.386 227.369 275.926Z" fill="#263238"/>
<path d="M227.134 275.826C227.092 275.826 227.451 275.257 228.303 274.78C228.804 274.509 229.343 274.333 229.897 274.257C230.225 274.216 230.555 274.216 230.882 274.257C231.097 274.251 231.309 274.304 231.499 274.414C231.689 274.523 231.851 274.684 231.968 274.881C232.019 275.016 232.034 275.165 232.012 275.309C231.99 275.453 231.931 275.588 231.842 275.697C231.713 275.853 231.564 275.989 231.4 276.101C231.114 276.301 230.801 276.453 230.473 276.55C229.929 276.717 229.355 276.732 228.804 276.596C227.852 276.348 227.443 275.816 227.485 275.78C227.937 275.947 228.397 276.087 228.862 276.202C229.364 276.276 229.875 276.226 230.356 276.055C230.635 275.959 230.899 275.82 231.141 275.642C231.408 275.45 231.6 275.22 231.517 275.11C231.435 275.008 231.333 274.926 231.219 274.872C231.105 274.819 230.981 274.793 230.857 274.798C230.558 274.766 230.256 274.766 229.956 274.798C229.447 274.847 228.947 274.974 228.47 275.174C227.627 275.495 227.184 275.899 227.134 275.826Z" fill="#263238"/>
<path d="M333.82 56.9963C331.566 55.4648 328.426 57.143 326.039 55.8683C324.586 55.098 323.76 53.4198 322.591 52.2001C321.68 51.2513 320.58 50.5486 319.379 50.1475C318.178 49.7464 316.908 49.6579 315.67 49.8891C313.358 50.4301 311.688 51.3472 310.795 53.7591C309.183 52.0167 305.401 53.7591 303.723 55.9325C302.045 58.106 301.67 60.8388 301.67 63.7184C301.614 68.6916 302.442 73.6289 304.107 78.2538C304.258 78.6665 304.533 79.1708 304.942 79.07C305.351 78.9691 305.376 78.7031 305.485 78.428C306.32 76.0027 306.88 73.4742 307.155 70.899C307.428 68.3145 308.178 65.8183 309.359 63.5625C310.644 61.389 312.857 59.7108 315.203 59.8942C316.948 60.1277 318.565 61.0267 319.769 62.4345C321.021 63.7642 322.023 65.3507 323.175 66.7813C324.265 68.2858 325.708 69.4339 327.35 70.1011C328.174 70.4199 329.065 70.4718 329.916 70.2507C330.767 70.0297 331.542 69.5448 332.15 68.8539C333.269 67.3866 333.035 64.773 331.474 63.9109C332.256 64.0533 333.058 63.8932 333.745 63.458C334.431 63.0228 334.959 62.3393 335.238 61.5244C335.516 60.7094 335.529 59.8134 335.274 58.9893C335.018 58.1652 334.51 57.464 333.836 57.0055L333.82 56.9963Z" fill="#263238"/>
<path d="M315.861 98.1725L316.905 92.7527C316.905 92.7527 323.65 93.257 325.195 86.1223C325.946 82.6742 326.964 75.4385 327.816 68.8816C328.256 65.4794 327.514 62.0201 325.738 59.1911C323.963 56.3621 321.283 54.3706 318.232 53.6125L317.606 53.4566C310.735 52.2094 305.918 57.9227 304.991 65.4976L299.698 94.5226C299.272 96.8688 299.708 99.3051 300.91 101.3C302.113 103.294 303.985 104.686 306.118 105.17L305.935 107.921C310.401 108.92 314.934 103.06 315.861 98.1725Z" fill="#FFBE9D"/>
<path d="M316.93 92.7526C313.909 92.0694 311.142 90.4123 308.983 87.993C308.983 87.993 309.926 93.6421 316.563 94.605L316.93 92.7526Z" fill="#EB996E"/>
<path d="M325.429 73.9711C325.374 74.2372 325.229 74.4699 325.022 74.6204C324.815 74.7708 324.562 74.8274 324.318 74.7781C324.198 74.7581 324.082 74.7119 323.978 74.6422C323.874 74.5726 323.784 74.4809 323.712 74.3725C323.641 74.2641 323.59 74.1412 323.562 74.0108C323.534 73.8805 323.53 73.7454 323.55 73.6134C323.604 73.3473 323.75 73.1146 323.957 72.9642C324.164 72.8137 324.416 72.7572 324.661 72.8064C324.781 72.8265 324.897 72.8727 325.001 72.9423C325.105 73.0119 325.195 73.1036 325.267 73.212C325.338 73.3204 325.389 73.4433 325.417 73.5737C325.445 73.704 325.449 73.8391 325.429 73.9711Z" fill="#263238"/>
<path d="M325.713 72.0269C325.571 72.137 324.978 71.385 323.976 71.1099C322.975 70.8347 322.131 71.2291 322.048 71.1099C321.964 70.9907 322.173 70.8256 322.549 70.6513C323.05 70.4292 323.6 70.3811 324.127 70.5138C324.653 70.6519 325.125 70.9736 325.471 71.4308C325.73 71.7151 325.78 71.9811 325.713 72.0269Z" fill="#263238"/>
<path d="M315.762 71.7611C315.712 72.0277 315.568 72.2617 315.362 72.4128C315.155 72.5638 314.903 72.6196 314.66 72.5681C314.54 72.5491 314.424 72.504 314.319 72.4354C314.215 72.3668 314.124 72.2762 314.052 72.1687C313.98 72.0612 313.928 71.939 313.899 71.8092C313.87 71.6794 313.865 71.5446 313.884 71.4126C313.91 71.2771 313.961 71.1486 314.033 71.0346C314.105 70.9207 314.197 70.8234 314.303 70.7485C314.409 70.6735 314.528 70.6223 314.652 70.5978C314.777 70.5733 314.904 70.5759 315.027 70.6056C315.263 70.6548 315.472 70.8031 315.609 71.019C315.746 71.235 315.801 71.5013 315.762 71.7611Z" fill="#263238"/>
<path d="M315.862 69.7985C315.72 69.8994 315.127 69.1566 314.125 68.8815C313.123 68.6064 312.28 69.0007 312.197 68.8815C312.113 68.7623 312.322 68.5972 312.697 68.4138C313.199 68.1958 313.75 68.151 314.275 68.2854C314.802 68.4235 315.273 68.7452 315.619 69.2024C315.861 69.4867 315.862 69.7527 315.862 69.7985Z" fill="#263238"/>
<path d="M317.782 78.8592C318.34 78.8106 318.9 78.8384 319.452 78.9417C319.719 78.9417 319.969 78.9417 320.053 78.8042C320.141 78.5061 320.141 78.1851 320.053 77.8871C319.953 77.1534 319.844 76.3739 319.736 75.5669C319.408 73.5807 319.224 71.5691 319.185 69.551C319.664 71.5016 319.996 73.4922 320.178 75.5027C320.27 76.3097 320.37 77.0892 320.454 77.8321C320.546 78.2111 320.514 78.614 320.362 78.9692C320.304 79.0577 320.229 79.1309 320.143 79.1833C320.056 79.2356 319.96 79.2659 319.861 79.2719C319.711 79.2922 319.56 79.2922 319.41 79.2719C318.854 79.2108 318.307 79.0721 317.782 78.8592Z" fill="#263238"/>
<path d="M314.685 78.8591C314.852 78.8591 314.601 80.0788 315.361 81.1609C316.121 82.243 317.298 82.3898 317.273 82.564C317.248 82.7383 316.972 82.7291 316.48 82.619C315.841 82.4733 315.27 82.0834 314.869 81.5186C314.481 80.9757 314.301 80.2881 314.368 79.6019C314.426 79.125 314.61 78.8591 314.685 78.8591Z" fill="#263238"/>
<path d="M317.089 64.1862C316.922 64.4613 315.954 64.067 314.751 63.9386C313.549 63.8102 312.522 63.9386 312.422 63.6084C312.372 63.4617 312.598 63.2233 313.04 63.0307C313.624 62.8032 314.248 62.7246 314.864 62.8009C315.481 62.8771 316.073 63.1063 316.597 63.4709C316.989 63.7643 317.156 64.0578 317.089 64.1862Z" fill="#263238"/>
<path d="M325.997 68.7714C325.771 68.9823 325.162 68.5513 324.327 68.3312C323.492 68.1111 322.758 68.1202 322.657 67.8176C322.616 67.6709 322.774 67.4508 323.133 67.2949C323.603 67.1135 324.111 67.09 324.593 67.2272C325.074 67.3644 325.508 67.6561 325.838 68.0652C326.055 68.377 326.097 68.6521 325.997 68.7714Z" fill="#263238"/>
<path d="M304.457 70.9266C304.349 70.8532 300.283 68.368 299.448 73.2926C298.613 78.2172 303.263 78.1622 303.297 78.0155C303.33 77.8687 304.457 70.9266 304.457 70.9266Z" fill="#FFBE9D"/>
<path d="M302.22 75.8603C302.22 75.8603 302.128 75.8603 301.986 75.9428C301.785 75.9915 301.576 75.952 301.401 75.8328C301.147 75.5703 300.962 75.2382 300.863 74.8707C300.765 74.5032 300.758 74.1136 300.842 73.7419C300.902 73.3161 301.051 72.9112 301.276 72.5589C301.344 72.4124 301.443 72.2864 301.565 72.192C301.688 72.0976 301.829 72.0378 301.977 72.0178C302.073 72.0088 302.168 72.0383 302.245 72.1008C302.321 72.1632 302.375 72.2544 302.395 72.3571C302.395 72.5039 302.395 72.5956 302.395 72.6139C302.395 72.6322 302.503 72.5497 302.503 72.3388C302.5 72.2101 302.456 72.0868 302.378 71.9903C302.327 71.9254 302.264 71.8725 302.194 71.8347C302.124 71.7969 302.047 71.7749 301.969 71.7702C301.777 71.7724 301.589 71.8284 301.423 71.9327C301.256 72.037 301.117 72.1862 301.017 72.3663C300.754 72.7519 300.579 73.2018 300.508 73.6777C300.411 74.1127 300.432 74.5695 300.568 74.9916C300.705 75.4137 300.951 75.7827 301.276 76.0529C301.391 76.1144 301.516 76.1464 301.644 76.1464C301.771 76.1464 301.897 76.1144 302.011 76.0529C302.195 75.9795 302.236 75.8695 302.22 75.8603Z" fill="#EB996E"/>
<path d="M329.52 67.7169C327.994 67.7662 326.478 67.4171 325.098 66.6981C323.718 65.9791 322.512 64.9109 321.581 63.581C320.304 61.7469 319.519 59.2892 317.666 58.0786C317.029 57.7103 316.332 57.4857 315.615 57.418C314.898 57.3503 314.176 57.4408 313.491 57.6843C312.123 58.1764 310.861 58.9724 309.785 60.0228C310.294 63.9662 308.616 67.8178 306.98 71.3852C306.836 71.8001 306.572 72.1515 306.228 72.3848C305.61 72.6966 304.892 72.1555 304.558 71.5136C304.07 70.4325 303.878 69.2183 304.007 68.0196C304.077 65.2825 304.645 62.5885 305.677 60.0962C306.727 57.6231 308.41 55.5392 310.519 54.0986C313.244 52.3771 316.469 51.8809 319.519 52.7138C322.551 53.5725 325.259 55.4594 327.258 58.1061C328.232 59.2839 328.926 60.7078 329.278 62.2513" fill="#263238"/>
<path d="M335.34 59.1882C335.321 59.333 335.279 59.4729 335.215 59.6009C335.025 59.9745 334.733 60.2729 334.38 60.4537C333.819 60.7297 333.193 60.8004 332.593 60.6555C332.218 60.5825 331.852 60.4657 331.5 60.307C331.099 60.1228 330.751 59.8254 330.489 59.445C330.341 59.2309 330.239 58.9825 330.192 58.7188C330.144 58.455 330.151 58.1827 330.214 57.9227C330.306 57.6465 330.469 57.405 330.681 57.2263C330.894 57.0477 331.149 56.9393 331.416 56.9139C331.696 56.8672 331.983 56.8955 332.251 56.9964C332.525 57.1079 332.763 57.3056 332.935 57.565C333.102 57.8294 333.216 58.1295 333.269 58.4457C333.322 58.7618 333.314 59.0868 333.244 59.3991C333.173 59.734 333.042 60.0499 332.858 60.3285C332.675 60.6072 332.443 60.843 332.176 61.0223C331.629 61.3981 331.001 61.607 330.356 61.6276C329.01 61.6342 327.702 61.1432 326.641 60.2337C325.591 59.356 324.636 58.3499 323.794 57.2349C323.017 56.2123 322.163 55.2643 321.239 54.4011C320.408 53.6432 319.423 53.1149 318.367 52.8605C317.432 52.6634 316.469 52.6947 315.546 52.9522C314.205 53.3459 312.977 54.1099 311.981 55.1715C311.706 55.4607 311.447 55.7669 311.204 56.0885C311.037 56.2995 310.946 56.4187 310.946 56.4095C310.946 56.4003 310.946 56.4095 310.996 56.3178C311.047 56.224 311.106 56.135 311.171 56.0519C311.405 55.73 311.656 55.4238 311.922 55.1348C312.91 54.0288 314.145 53.2285 315.504 52.8146C316.45 52.5424 317.439 52.5017 318.401 52.6954C319.499 52.9569 320.524 53.5042 321.39 54.2911C322.322 55.1624 323.187 56.1163 323.978 57.1432C324.811 58.244 325.754 59.2377 326.791 60.1053C327.81 60.9609 329.056 61.4278 330.339 61.435C330.945 61.4149 331.536 61.2188 332.051 60.8664C332.295 60.7052 332.507 60.4925 332.676 60.2407C332.845 59.9889 332.968 59.7029 333.036 59.3991C333.105 59.1119 333.117 58.8116 333.071 58.5188C333.025 58.226 332.922 57.9475 332.768 57.7026C332.615 57.4838 332.411 57.3146 332.177 57.2129C331.944 57.1112 331.689 57.0807 331.441 57.1248C331.207 57.1446 330.983 57.237 330.796 57.3912C330.608 57.5455 330.464 57.7553 330.381 57.996C330.326 58.2272 330.318 58.4688 330.359 58.7035C330.399 58.9382 330.487 59.1601 330.615 59.3533C330.856 59.7144 331.182 59.9965 331.558 60.1695C331.898 60.3319 332.254 60.4518 332.618 60.5271C333.194 60.6731 333.797 60.6219 334.346 60.3804C334.692 60.213 334.983 59.9349 335.181 59.5825C335.306 59.3349 335.323 59.179 335.34 59.1882Z" fill="#455A64"/>
<path d="M302.062 59.9493C302.47 60.2361 302.9 60.4816 303.348 60.683C303.841 60.857 304.36 60.9225 304.876 60.8756C305.511 60.8176 306.135 60.6601 306.729 60.4079C307.805 59.9296 308.711 59.0799 309.309 57.9868C309.539 57.5214 309.743 57.0405 309.918 56.547C309.917 56.6937 309.894 56.8392 309.851 56.9781C309.759 57.3613 309.624 57.7309 309.451 58.0785C308.868 59.2448 307.931 60.1501 306.804 60.6371C306.191 60.9053 305.543 61.0632 304.884 61.1048C304.342 61.1377 303.8 61.0504 303.29 60.8481C302.953 60.7004 302.638 60.4996 302.354 60.252C302.154 60.0777 302.054 59.9677 302.062 59.9493Z" fill="#455A64"/>
<path d="M301.535 63.5441C301.535 63.5441 302.045 63.755 302.896 63.9109C304.002 64.1258 305.14 64.0093 306.19 63.5735C307.241 63.1378 308.165 62.399 308.865 61.4349C309.408 60.7012 309.625 60.151 309.658 60.1693C309.692 60.1877 309.658 60.316 309.533 60.5636C309.378 60.9073 309.197 61.2356 308.991 61.5449C308.3 62.572 307.355 63.3587 306.268 63.8109C305.182 64.2631 303.999 64.3615 302.863 64.0943C302.522 64.019 302.189 63.9053 301.869 63.755C301.748 63.7058 301.635 63.6345 301.535 63.5441Z" fill="#455A64"/>
<path d="M311.538 73.6501C311.505 73.6501 311.473 73.6356 311.449 73.6098C311.425 73.584 311.412 73.5491 311.412 73.5126C311.412 73.4761 311.425 73.4411 311.449 73.4153C311.473 73.3895 311.505 73.375 311.538 73.375C311.554 73.3748 311.57 73.3784 311.584 73.3855C311.599 73.3926 311.612 73.403 311.622 73.4161C311.632 73.4292 311.64 73.4446 311.644 73.4613C311.649 73.478 311.65 73.4955 311.647 73.5126C311.648 73.5461 311.637 73.5786 311.616 73.6039C311.596 73.6292 311.569 73.6457 311.538 73.6501Z" fill="#EB996E"/>
<path d="M313.55 73.641C313.492 73.641 313.441 73.5676 313.441 73.4851C313.441 73.4481 313.452 73.4121 313.474 73.3836C313.495 73.355 313.525 73.3357 313.559 73.3292C313.593 73.3359 313.623 73.3569 313.644 73.3877C313.664 73.4185 313.673 73.4567 313.668 73.4943C313.668 73.5768 313.618 73.6502 313.55 73.641Z" fill="#EB996E"/>
<path d="M314.843 73.9253C314.784 73.9253 314.742 73.8244 314.75 73.7144C314.759 73.6043 314.818 73.5218 314.885 73.5218C314.952 73.5218 314.985 73.6227 314.977 73.7419C314.969 73.8611 314.91 73.9345 314.843 73.9253Z" fill="#EB996E"/>
<path d="M312.214 75.191C312.147 75.191 312.105 75.1268 312.114 75.0809C312.122 75.0351 312.181 75.0167 312.24 75.0809C312.298 75.1451 312.349 75.1451 312.34 75.1818C312.332 75.2185 312.273 75.191 312.214 75.191Z" fill="#EB996E"/>
<path d="M314.059 75.1909C314.027 75.1842 313.999 75.1642 313.98 75.1352C313.961 75.1061 313.954 75.0702 313.958 75.035C313.958 74.9525 314.026 74.8975 314.093 74.9066C314.123 74.9153 314.15 74.9361 314.167 74.965C314.184 74.9938 314.19 75.0286 314.185 75.0625C314.185 75.0802 314.182 75.0977 314.175 75.1139C314.169 75.1301 314.16 75.1447 314.148 75.1567C314.136 75.1688 314.122 75.178 314.107 75.1839C314.092 75.1898 314.075 75.1922 314.059 75.1909Z" fill="#EB996E"/>
<path d="M323.435 76.2547C323.419 76.2536 323.403 76.2489 323.389 76.2407C323.374 76.2326 323.362 76.2213 323.351 76.2075C323.341 76.1937 323.334 76.1777 323.329 76.1606C323.325 76.1435 323.324 76.1255 323.326 76.108C323.326 76.073 323.338 76.0393 323.36 76.0138C323.382 75.9882 323.412 75.9727 323.444 75.9704C323.476 75.975 323.505 75.9928 323.525 76.02C323.545 76.0473 323.555 76.0821 323.553 76.1171C323.553 76.1521 323.541 76.1858 323.519 76.2113C323.497 76.2368 323.467 76.2524 323.435 76.2547Z" fill="#EB996E"/>
<path d="M324.763 76.4472C324.73 76.4365 324.702 76.4125 324.685 76.3801C324.668 76.3477 324.662 76.3094 324.67 76.273C324.67 76.1904 324.738 76.1262 324.796 76.1354C324.831 76.1442 324.861 76.1674 324.879 76.2C324.898 76.2326 324.905 76.272 324.897 76.3097C324.895 76.347 324.88 76.382 324.855 76.4075C324.83 76.4331 324.797 76.4473 324.763 76.4472Z" fill="#EB996E"/>
<path d="M322.275 76.007C322.246 76.0049 322.22 75.9917 322.2 75.9697C322.18 75.9478 322.167 75.9187 322.165 75.8878C322.17 75.8578 322.184 75.8307 322.206 75.812C322.228 75.7932 322.255 75.7843 322.283 75.787C322.297 75.7857 322.311 75.7876 322.324 75.7925C322.337 75.7975 322.349 75.8054 322.36 75.8157C322.37 75.8261 322.378 75.8387 322.384 75.8527C322.389 75.8666 322.392 75.8817 322.392 75.897C322.391 75.9127 322.387 75.928 322.381 75.942C322.374 75.956 322.365 75.9685 322.354 75.9787C322.343 75.9889 322.331 75.9967 322.317 76.0016C322.303 76.0064 322.289 76.0083 322.275 76.007Z" fill="#EB996E"/>
<path d="M322.95 77.6761C322.933 77.6786 322.916 77.6776 322.9 77.673C322.884 77.6683 322.869 77.6602 322.856 77.6491C322.842 77.6381 322.831 77.6242 322.823 77.6083C322.815 77.5925 322.809 77.575 322.807 77.5569C322.802 77.5218 322.808 77.4857 322.825 77.4553C322.842 77.425 322.868 77.4024 322.899 77.3918C322.932 77.3891 322.963 77.4 322.988 77.4222C323.013 77.4444 323.03 77.4761 323.034 77.511C323.042 77.545 323.037 77.5811 323.022 77.6118C323.006 77.6424 322.98 77.6654 322.95 77.6761Z" fill="#EB996E"/>
<path d="M324.112 77.7034C324.099 77.6984 324.087 77.6905 324.077 77.6802C324.067 77.67 324.059 77.6576 324.053 77.6439C324.048 77.6302 324.045 77.6153 324.045 77.6003C324.045 77.5853 324.047 77.5705 324.053 77.5567C324.07 77.5349 324.094 77.5202 324.12 77.5151C324.147 77.51 324.174 77.5147 324.197 77.5286C324.22 77.5424 324.239 77.5645 324.249 77.5913C324.26 77.6181 324.261 77.6479 324.254 77.6759C324.247 77.6881 324.237 77.6986 324.226 77.7067C324.214 77.7147 324.202 77.7202 324.188 77.7227C324.175 77.7253 324.161 77.7249 324.148 77.7216C324.135 77.7183 324.122 77.7121 324.112 77.7034Z" fill="#EB996E"/>
<path d="M275.565 191.905L263.101 236.961L226.184 257.255L234.148 277.623L286.192 256.228L302.438 201.379L275.565 191.905Z" fill="#CE7A63"/>
<path d="M280.398 93.9631L246.62 117.513C244.973 118.662 243.744 120.407 243.147 122.447L232.553 158.35L244.199 162.871L256.488 129.297L286.901 115.459L280.398 93.9631Z" fill="#C2EBF8"/>
<path d="M316.697 104.986L317.665 103.519L315.904 97.9339L311.128 105.885L309.851 101.547L300.267 89.0109L296.093 92.3582L280.373 93.963L280.465 94.4399L277.459 119.925L275.631 147.299L271.966 160.707L270.421 162.541C269.962 163.082 269.632 163.739 269.46 164.455C269.288 165.17 269.28 165.921 269.436 166.64L269.545 167.117L308.131 180.873L311.12 175.747L323.117 113.322L316.697 104.986Z" fill="#C2EBF8"/>
<path d="M354.783 210.081C354.391 206.009 352.923 202.151 350.56 198.983C348.197 195.815 345.042 193.476 341.484 192.254L308.349 180.79L269.57 167.108C267.376 172.541 266.386 178.469 266.682 184.404C267.149 192.85 275.548 200.911 283.946 203.286L332.117 216.629L341.2 268.902L360.326 267.223L354.783 210.081Z" fill="#CE7A63"/>
<path d="M332.342 216.941C332.13 216.93 331.92 216.893 331.715 216.831L329.954 216.4C328.426 216.015 326.222 215.419 323.517 214.648C318.091 213.117 310.652 210.787 302.329 208.642C295.227 206.756 288.237 204.392 281.399 201.562C278.778 200.471 276.691 199.498 275.255 198.811C274.537 198.471 273.986 198.178 273.585 197.985C273.392 197.898 273.205 197.794 273.026 197.674C273.23 197.729 273.428 197.806 273.619 197.903L275.288 198.646C276.741 199.288 278.845 200.205 281.475 201.259C288.34 203.977 295.335 206.282 302.429 208.165C310.778 210.301 318.191 212.686 323.592 214.3L329.996 216.198L331.741 216.712C331.946 216.772 332.147 216.848 332.342 216.941Z" fill="#455A64"/>
<path d="M337.043 210.668C336.647 212.003 335.965 213.213 335.056 214.199C334.257 215.293 333.228 216.158 332.059 216.721C331.984 216.602 333.369 215.556 334.739 213.878C336.108 212.2 336.926 210.604 337.043 210.668Z" fill="#455A64"/>
<path d="M339.906 215.501C338.735 216.235 337.434 216.682 336.091 216.813C334.768 217.101 333.405 217.076 332.092 216.739C332.092 216.592 333.878 216.684 336.024 216.345C338.17 216.006 339.864 215.318 339.906 215.501Z" fill="#455A64"/>
<path d="M286.158 173.106C286.158 172.986 297.846 176.893 312.105 181.845C326.364 186.797 337.985 190.906 337.919 191.016C337.852 191.126 326.231 187.228 311.972 182.276C297.713 177.324 286.125 173.234 286.158 173.106Z" fill="#455A64"/>
<path d="M286.893 112.854C287.477 111.934 287.941 110.927 288.27 109.865C288.606 108.707 288.819 107.51 288.905 106.297C289.028 104.819 288.946 103.329 288.663 101.877C288.339 100.441 287.742 99.097 286.909 97.9339C286.223 96.9884 285.389 96.1842 284.447 95.5587C283.541 95.0211 282.601 94.5582 281.633 94.1739C281.917 94.1824 282.198 94.2349 282.468 94.3299C283.207 94.5382 283.919 94.8462 284.589 95.2469C285.598 95.8506 286.491 96.6634 287.218 97.6404C288.105 98.8429 288.737 100.246 289.072 101.749C289.377 103.253 289.453 104.803 289.297 106.334C289.193 107.588 288.941 108.821 288.546 110.002C288.297 110.8 287.933 111.55 287.469 112.222C287.151 112.671 286.909 112.873 286.893 112.854Z" fill="#263238"/>
<path d="M277.459 119.925C279.672 119.292 284.238 116.578 284.238 116.578C281.491 124.51 278.536 134.002 275.956 141.999C276.708 134.607 276.708 127.326 277.459 119.925Z" fill="black"/>
<path d="M252.088 124.822C253.086 125.279 253.972 125.985 254.676 126.886C255.481 127.68 256.102 128.673 256.488 129.783C256.379 129.857 255.578 128.582 254.367 127.225C253.157 125.868 252.013 124.941 252.088 124.822Z" fill="#263238"/>
<path d="M254.81 119.852C255.703 121.226 256.339 122.782 256.68 124.429C257.021 126.075 257.061 127.78 256.797 129.444C256.7 127.799 256.521 126.161 256.262 124.538C255.856 122.948 255.371 121.383 254.81 119.852Z" fill="#263238"/>
<path d="M271.701 141.724C271.701 141.861 271.701 141.971 271.617 141.971C271.532 141.971 271.54 141.861 271.54 141.724C271.54 141.586 271.54 141.485 271.617 141.485C271.693 141.485 271.701 141.595 271.701 141.724Z" fill="#263238"/>
<path d="M311.145 175.719C311.146 175.533 311.169 175.348 311.211 175.169L311.495 173.61C311.771 172.197 312.138 170.262 312.597 167.896L316.204 149.051C317.615 141.714 318.884 135.075 319.819 130.196C320.286 127.839 320.654 125.904 320.946 124.492L321.271 122.942C321.308 122.762 321.355 122.584 321.413 122.41C321.419 122.595 321.402 122.78 321.363 122.96C321.296 123.373 321.213 123.878 321.113 124.529C320.871 125.95 320.528 127.894 320.119 130.269C319.284 135.102 318.04 141.788 316.63 149.152C315.219 156.516 313.9 163.164 312.898 167.97C312.389 170.373 311.971 172.317 311.662 173.656C311.512 174.279 311.395 174.793 311.303 175.187C311.269 175.371 311.216 175.549 311.145 175.719Z" fill="#263238"/>
<path d="M330.162 146.492C330.114 145.125 330.417 143.771 331.038 142.586C331.533 141.327 332.337 140.245 333.359 139.458C333.459 139.568 332.307 140.843 331.431 142.797C330.554 144.75 330.295 146.52 330.162 146.492Z" fill="#263238"/>
<path d="M332.117 148.721C331.75 147.15 331.675 145.514 331.894 143.911C332.113 142.307 332.623 140.768 333.394 139.385C333.519 139.449 332.668 141.394 332.334 143.97C332.186 145.549 332.114 147.134 332.117 148.721Z" fill="#263238"/>
<path d="M372.456 140.403L366.086 140.467L366.879 142.687L372.406 141.256L372.456 140.403Z" fill="#FFBE9D"/>
<path d="M317.958 141.137C317.958 141.137 322.199 149.28 322.132 149.069C322.416 141.293 322.391 133.874 320.755 126.299" fill="black"/>
<path d="M309.868 101.786C309.868 101.831 309.292 102.4 308.323 103.436C307.355 104.473 306.027 105.995 304.291 107.572L304.099 107.747L303.982 107.508L302.062 103.601C300.501 100.493 299.023 97.723 297.946 95.7238L296.66 93.312C296.486 93.0271 296.346 92.7189 296.243 92.3949C296.461 92.6341 296.652 92.9021 296.811 93.1928C297.145 93.7247 297.646 94.5042 298.197 95.4854C299.349 97.4479 300.868 100.199 302.429 103.317C303.122 104.693 303.765 106.068 304.333 107.242L304.024 107.169C305.752 105.646 307.113 104.142 308.148 103.18C308.671 102.645 309.248 102.177 309.868 101.786Z" fill="#263238"/>
<path d="M317.456 103.95C317.329 104.288 317.148 104.599 316.922 104.867C316.554 105.445 315.962 106.224 315.352 107.169L315.118 107.517L315.002 107.114C314.76 106.288 314.509 105.399 314.234 104.463L313.741 102.629L314.108 102.712C313.211 104.019 312.22 105.246 311.145 106.38C311.922 104.981 312.802 103.653 313.774 102.409L314.017 102.07L314.142 102.492L314.651 104.262C314.901 105.191 315.144 106.071 315.377 106.903L315.027 106.848C315.695 105.931 316.312 105.17 316.738 104.638C317.164 104.106 317.414 103.922 317.456 103.95Z" fill="#263238"/>
<path d="M311.145 106.288C310.685 105.61 310.397 104.809 310.31 103.968C310.082 103.183 309.939 102.37 309.885 101.547C310.342 102.224 310.63 103.021 310.719 103.858C310.944 104.648 311.087 105.463 311.145 106.288Z" fill="#263238"/>
<path d="M304.642 171.253C304.642 171.253 305.11 171.547 305.477 172.381C305.709 172.926 305.826 173.522 305.817 174.123C305.808 174.725 305.675 175.316 305.427 175.853C305.179 176.389 304.823 176.857 304.386 177.22C303.95 177.583 303.443 177.832 302.906 177.948C302.476 178.099 302.011 178.076 301.595 177.883C301.595 177.81 302.096 177.883 302.831 177.627C303.305 177.483 303.746 177.232 304.127 176.891C304.508 176.549 304.819 176.123 305.042 175.642C305.264 175.16 305.392 174.633 305.419 174.093C305.445 173.554 305.368 173.014 305.193 172.509C304.926 171.712 304.584 171.308 304.642 171.253Z" fill="#263238"/>
<path d="M312.222 107.517C312.242 107.734 312.242 107.952 312.222 108.168C312.222 108.645 312.222 109.269 312.163 110.003C312.113 111.626 311.988 113.973 311.788 116.871C311.404 122.667 310.661 130.627 309.425 139.44C308.19 148.253 306.687 156.076 305.451 161.725C304.842 164.558 304.308 166.833 303.915 168.401L303.456 170.235C303.413 170.45 303.348 170.659 303.264 170.859C303.286 170.642 303.323 170.428 303.373 170.217C303.464 169.749 303.598 169.144 303.748 168.383C304.099 166.805 304.583 164.513 305.159 161.679C306.311 156.011 307.755 148.143 308.999 139.394C310.243 130.646 311.02 122.658 311.504 116.871C311.738 113.983 311.905 111.635 312.013 110.021C312.072 109.251 312.113 108.627 312.155 108.187C312.154 107.962 312.177 107.737 312.222 107.517Z" fill="#263238"/>
<path d="M308.256 170.831C307.6 171.1 306.91 171.261 306.211 171.308C304.548 171.533 302.865 171.533 301.202 171.308C299.529 171.085 297.886 170.642 296.31 169.987C295.645 169.753 295.015 169.413 294.44 168.979C296.657 169.81 298.936 170.424 301.252 170.813C303.582 171.049 305.926 171.055 308.256 170.831Z" fill="#263238"/>
<path d="M281.124 165.631C277.792 164.743 274.665 163.103 271.941 160.817C272.007 160.698 273.961 162 276.499 163.32C279.037 164.641 281.166 165.503 281.124 165.631Z" fill="#263238"/>
<path d="M265.087 153.856C265.087 153.994 265.045 154.095 264.986 154.095C264.927 154.095 264.894 153.994 264.894 153.856C264.894 153.719 264.936 153.618 264.986 153.618C265.036 153.618 265.087 153.728 265.087 153.856Z" fill="#263238"/>
<path d="M263.493 115.367C263.444 114.203 263.537 113.038 263.768 111.901C263.865 110.74 264.104 109.599 264.478 108.508C264.537 109.672 264.444 110.839 264.202 111.974C264.105 113.135 263.866 114.276 263.493 115.367Z" fill="white"/>
<path d="M277.927 112.699C277.28 112.29 276.677 111.8 276.132 111.24C275.172 110.424 274.328 109.837 274.387 109.709C275.139 109.891 275.834 110.29 276.399 110.864C277.401 111.708 278.01 112.616 277.927 112.699Z" fill="white"/>
<path d="M251.68 120.668C251.047 120.529 250.449 120.241 249.927 119.824C249.017 119.237 248.332 118.678 248.391 118.559C249.025 118.699 249.624 118.99 250.144 119.412C251.054 119.989 251.739 120.549 251.68 120.668Z" fill="white"/>
<path d="M249.818 132.278C248.91 132.842 247.935 133.265 246.921 133.534C245.952 133.951 244.934 134.217 243.898 134.323C244.81 133.769 245.784 133.349 246.795 133.076C247.765 132.659 248.782 132.39 249.818 132.278Z" fill="white"/>
<path d="M242.847 152.013C242.078 150.053 241.79 147.906 242.012 145.786C242.26 146.8 242.42 147.838 242.488 148.886C242.698 149.913 242.818 150.96 242.847 152.013Z" fill="white"/>
<path d="M271.908 120.365C270.936 120.831 269.931 121.208 268.903 121.493C267.921 121.933 266.907 122.283 265.872 122.539C267.69 121.278 269.764 120.531 271.908 120.365Z" fill="white"/>
<path d="M283.344 100.969C282.061 100.948 280.783 100.766 279.537 100.428C278.263 100.242 277.011 99.9007 275.805 99.4104C277.092 99.4328 278.372 99.6174 279.621 99.9606C280.892 100.144 282.141 100.482 283.344 100.969Z" fill="white"/>
<path d="M292.261 101.428C292.342 100.399 292.57 99.3896 292.937 98.4383C293.161 97.4339 293.527 96.4745 294.022 95.5954C293.937 96.6239 293.709 97.6321 293.346 98.5851C293.118 99.5879 292.752 100.547 292.261 101.428Z" fill="white"/>
<path d="M300.125 112.185C298.558 110.841 297.304 109.105 296.469 107.123C297.174 107.877 297.809 108.706 298.364 109.599C299.031 110.391 299.622 111.258 300.125 112.185Z" fill="white"/>
<path d="M291.651 121.521C291.362 120.521 291.21 119.479 291.2 118.43C291.061 117.39 291.061 116.334 291.2 115.294C291.497 116.295 291.649 117.341 291.651 118.394C291.801 119.429 291.801 120.485 291.651 121.521Z" fill="white"/>
<path d="M282.527 126.711C282.451 126.812 281.692 126.225 280.907 125.4C280.122 124.575 279.496 123.823 279.58 123.731C279.663 123.639 280.414 124.226 281.199 125.042C281.984 125.859 282.61 126.62 282.527 126.711Z" fill="white"/>
<path d="M287.125 133.562C285.798 134.515 284.235 134.993 282.65 134.928C283.361 134.577 284.106 134.319 284.871 134.158C285.596 133.855 286.354 133.655 287.125 133.562Z" fill="white"/>
<path d="M303.197 128.142C302.481 126.257 302.236 124.196 302.488 122.172C302.722 123.144 302.865 124.139 302.913 125.143C303.101 126.13 303.196 127.134 303.197 128.142Z" fill="white"/>
<path d="M299.75 141.219C299.166 140.484 298.698 139.647 298.364 138.743C297.9 137.91 297.562 136.999 297.362 136.047C297.945 136.783 298.414 137.619 298.748 138.523C299.212 139.357 299.55 140.267 299.75 141.219Z" fill="white"/>
<path d="M287.235 150.06C287.376 148.876 287.657 147.717 288.07 146.612C288.36 145.455 288.792 144.348 289.355 143.32C289.214 144.504 288.933 145.663 288.521 146.768C288.23 147.924 287.798 149.032 287.235 150.06Z" fill="white"/>
<path d="M281.993 157.488C281.576 156.867 281.273 156.163 281.099 155.415C280.797 154.718 280.632 153.959 280.615 153.187C281.036 153.805 281.34 154.51 281.508 155.259C281.81 155.957 281.975 156.716 281.993 157.488Z" fill="white"/>
<path d="M300.351 156.14C299.557 156.856 298.674 157.446 297.73 157.891C296.847 158.474 295.894 158.919 294.9 159.212C295.699 158.499 296.584 157.91 297.529 157.46C298.41 156.878 299.359 156.434 300.351 156.14Z" fill="white"/>
<path d="M288.637 167.319C288.372 166.723 288.24 166.065 288.252 165.402C288.161 164.32 288.177 163.44 288.303 163.43C288.568 164.03 288.7 164.69 288.687 165.356C288.778 166.429 288.762 167.31 288.637 167.319Z" fill="white"/>
<path d="M275.096 167.576C275.004 167.649 274.445 166.86 274.203 165.687C273.986 164.994 274.001 164.24 274.244 163.559C274.427 164.217 274.556 164.893 274.629 165.577C274.837 166.227 274.994 166.896 275.096 167.576Z" fill="white"/>
<path d="M298.33 173.014C297.687 173.493 296.968 173.835 296.21 174.023C295.498 174.355 294.737 174.544 293.964 174.582C294.604 174.102 295.321 173.76 296.076 173.573C296.791 173.24 297.555 173.051 298.33 173.014Z" fill="white"/>
<path d="M308.39 176.792C308.273 176.792 308.048 176.077 307.889 175.15C307.73 174.224 307.689 173.445 307.805 173.417C307.922 173.39 308.148 174.123 308.315 175.059C308.482 175.994 308.515 176.764 308.39 176.792Z" fill="white"/>
<path d="M309.685 163.953C309.216 163.381 308.858 162.71 308.633 161.981C308.284 161.319 308.062 160.586 307.981 159.826C308.449 160.396 308.807 161.063 309.033 161.789C309.383 162.454 309.604 163.19 309.685 163.953Z" fill="white"/>
<path d="M313.591 149.94C313.658 150.05 312.881 150.692 311.871 151.371C311.293 151.855 310.631 152.205 309.926 152.398C310.41 151.804 310.994 151.318 311.646 150.968C312.225 150.485 312.886 150.136 313.591 149.94Z" fill="white"/>
<path d="M313.817 141.898C313.356 141.294 313.051 140.566 312.932 139.789C312.682 139.051 312.622 138.251 312.757 137.478C313.041 138.177 313.24 138.914 313.35 139.669C313.6 140.385 313.757 141.135 313.817 141.898Z" fill="white"/>
<path d="M317.816 123.428C317.224 124.186 316.532 124.842 315.762 125.372C315.07 126.024 314.29 126.553 313.449 126.941C314.037 126.175 314.73 125.516 315.503 124.987C316.19 124.331 316.972 123.804 317.816 123.428Z" fill="white"/>
<path d="M318.541 117.642C318.475 117.743 317.707 117.229 317.014 116.248C316.537 115.708 316.243 115.006 316.179 114.258C316.296 114.203 316.705 115.046 317.339 115.954C317.974 116.862 318.617 117.532 318.541 117.642Z" fill="white"/>
<path d="M324.661 130.343C324.606 129.368 324.694 128.39 324.92 127.445C325.009 126.473 325.237 125.523 325.596 124.63C325.657 125.604 325.572 126.583 325.346 127.528C325.257 128.5 325.026 129.451 324.661 130.343Z" fill="white"/>
<path d="M328.461 138.927C327.675 138.855 326.908 138.625 326.198 138.248C325.439 138.02 324.725 137.637 324.094 137.12C324.879 137.198 325.645 137.428 326.357 137.799C327.114 138.033 327.827 138.415 328.461 138.927Z" fill="white"/>
<path d="M327.483 151.518C326.991 150.896 326.612 150.177 326.364 149.399C325.986 148.686 325.739 147.897 325.638 147.079C326.509 148.413 327.136 149.921 327.483 151.518Z" fill="white"/>
<path d="M340.072 144.493C339.479 145.383 338.817 146.215 338.094 146.979C337.474 147.852 336.787 148.666 336.04 149.409C336.447 148.377 337.034 147.442 337.768 146.658C338.398 145.776 339.181 145.04 340.072 144.493Z" fill="white"/>
<path d="M347.828 146.447C347.132 145.951 346.517 145.331 346.008 144.613C345.397 143.988 344.889 143.253 344.505 142.439C345.82 143.557 346.95 144.916 347.844 146.456L347.828 146.447Z" fill="white"/>
<path d="M367.665 122.924V110.118H361.537L370.946 95.635L380.355 110.118H374.454V122.924H367.665Z" fill="#75F838"/>
<path d="M354.424 127.344V119.175H350.508L356.532 109.931L362.538 119.175H358.773V127.344H354.424Z" fill="#75F838"/>
<path d="M327.074 267.664C326.939 267.696 326.803 267.721 326.665 267.737L325.438 267.911C324.895 267.966 324.227 268.067 323.443 268.223C322.658 268.379 321.773 268.517 320.738 268.773C310.93 271.031 301.829 276.06 294.332 283.364C290.807 286.83 287.701 290.778 285.09 295.111C279.01 305.212 275.711 317.026 275.589 329.134V329.941L275.197 329.263C273.034 325.628 270.31 322.434 267.149 319.826C256.63 311.16 243.415 307.978 232.236 310.069L230.166 310.546C229.822 310.611 229.484 310.709 229.155 310.839L228.162 311.187C227.511 311.435 226.834 311.609 226.217 311.912L224.347 312.829C223.73 313.116 223.128 313.441 222.543 313.801L220.799 314.819L219.129 315.956C218.58 316.318 218.051 316.713 217.543 317.139C213.742 320.178 210.388 323.84 207.6 327.997C205.305 331.429 203.346 335.118 201.756 339.002L200.779 341.506C200.487 342.313 200.236 343.11 199.986 343.872C199.452 345.376 199.151 346.806 198.75 348.062C198.116 350.621 197.682 352.648 197.465 354.005C197.348 354.675 197.256 355.197 197.189 355.564C197.122 355.931 197.081 356.096 197.081 356.096C197.094 355.914 197.116 355.734 197.147 355.555C197.197 355.188 197.281 354.638 197.381 353.987C197.694 351.976 198.098 349.983 198.592 348.017C198.942 346.742 199.26 345.265 199.786 343.789C200.036 343.037 200.278 342.23 200.57 341.414L201.539 338.892C203.122 334.975 205.081 331.256 207.383 327.795C210.182 323.579 213.562 319.866 217.401 316.791C217.912 316.361 218.444 315.963 218.995 315.599L220.665 314.434L222.427 313.407C223.014 313.038 223.622 312.71 224.246 312.426L226.133 311.508C226.759 311.197 227.444 311.022 228.103 310.766L229.105 310.417C229.439 310.284 229.783 310.183 230.132 310.115L232.228 309.628C243.531 307.492 256.839 310.683 267.466 319.441C270.67 322.083 273.427 325.32 275.614 329.006L275.222 329.125C275.345 316.928 278.683 305.031 284.831 294.873C287.464 290.517 290.598 286.553 294.156 283.08C297.236 280.095 300.594 277.476 304.175 275.266C309.338 272.099 314.921 269.84 320.721 268.572C321.74 268.324 322.65 268.186 323.443 268.058C324.236 267.93 324.904 267.829 325.446 267.783L326.674 267.655C326.932 267.664 327.074 267.664 327.074 267.664Z" fill="#263238"/>
<path d="M460.257 275.66H403.279V434.009H460.257V275.66Z" fill="#FF725E"/>
<path d="M460.257 275.66H403.279V434.009H460.257V275.66Z" fill="black"/>
<path d="M446.332 275.66H389.353V434.009H446.332V275.66Z" fill="#49D1F6"/>
<path d="M415.568 339.038V347.796H414.048L410.075 342.477V347.796H408.255V339.038H409.782L413.748 344.357V339.038H415.568Z" fill="white"/>
<path d="M416.787 340.478C416.727 339.996 416.803 339.505 417.004 339.071C417.206 338.637 417.523 338.281 417.913 338.05C418.303 337.819 418.748 337.724 419.189 337.779C419.63 337.833 420.045 338.034 420.379 338.354C420.713 338.674 420.95 339.098 421.058 339.57C421.167 340.043 421.142 340.54 420.987 340.996C420.831 341.452 420.553 341.845 420.189 342.123C419.825 342.401 419.392 342.55 418.949 342.551C418.681 342.58 418.411 342.548 418.155 342.458C417.899 342.368 417.663 342.222 417.46 342.028C417.258 341.833 417.093 341.596 416.978 341.329C416.862 341.063 416.797 340.773 416.787 340.478ZM419.892 340.478C419.892 340.201 419.792 339.935 419.614 339.739C419.435 339.543 419.193 339.433 418.941 339.433C418.688 339.433 418.446 339.543 418.268 339.739C418.089 339.935 417.989 340.201 417.989 340.478C417.989 340.755 418.089 341.021 418.268 341.217C418.446 341.413 418.688 341.524 418.941 341.524C419.193 341.524 419.435 341.413 419.614 341.217C419.792 341.021 419.892 340.755 419.892 340.478Z" fill="white"/>
<path d="M428.975 345.953H427.681V347.787H425.878V345.953H421.587V344.587L425.343 339.038H427.28L423.799 344.302H425.936V342.661H427.681V344.302H428.975V345.953Z" fill="white"/>
<path d="M460.291 282.923C460.169 283.248 460.012 283.556 459.823 283.84L458.412 286.28C457.21 288.334 455.524 291.14 453.628 294.231C451.733 297.321 449.997 300.1 448.72 302.09C448.074 303.203 447.345 304.255 446.541 305.236C446.572 305.152 446.611 305.072 446.658 304.997L447.033 304.328C447.426 303.667 447.868 302.86 448.461 301.897C449.68 299.862 451.374 297.046 453.269 293.965C455.165 290.883 456.893 288.096 458.162 286.096L459.681 283.74C459.854 283.442 460.058 283.168 460.291 282.923Z" fill="#FF725E"/>
<path d="M460.291 311.444C460.169 311.769 460.012 312.077 459.823 312.361L458.412 314.801C457.21 316.855 455.524 319.661 453.628 322.752C451.733 325.842 449.997 328.612 448.72 330.611C448.074 331.724 447.345 332.776 446.541 333.756C446.572 333.67 446.612 333.587 446.658 333.509C446.774 333.307 446.9 333.096 447.033 332.839C447.426 332.188 447.868 331.372 448.461 330.418C449.68 328.373 451.374 325.567 453.269 322.486C455.165 319.404 456.893 316.616 458.162 314.617L459.681 312.26C459.854 311.962 460.058 311.688 460.291 311.444Z" fill="#FF725E"/>
<path d="M460.291 339.956C460.167 340.28 460.01 340.588 459.823 340.873L458.412 343.312C457.21 345.357 455.524 348.172 453.628 351.263C451.733 354.353 449.997 357.123 448.72 359.113C448.075 360.23 447.346 361.285 446.541 362.268C446.572 362.181 446.612 362.098 446.658 362.02L447.033 361.351L448.461 358.93C449.68 356.885 451.374 354.078 453.269 350.988C455.165 347.897 456.893 345.128 458.162 343.119L459.681 340.772C459.856 340.476 460.06 340.202 460.291 339.956Z" fill="#FF725E"/>
<path d="M460.291 368.476C460.167 368.8 460.01 369.108 459.823 369.393L458.412 371.833C457.21 373.878 455.524 376.693 453.628 379.774C451.733 382.856 449.997 385.643 448.72 387.633C448.077 388.749 447.348 389.801 446.541 390.779C446.576 390.697 446.615 390.618 446.658 390.541C446.774 390.339 446.9 390.119 447.033 389.871L448.461 387.45C449.68 385.405 451.374 382.599 453.269 379.508C455.165 376.418 456.893 373.639 458.162 371.64L459.681 369.283C459.854 368.988 460.059 368.717 460.291 368.476Z" fill="#FF725E"/>
<path d="M460.291 396.997C460.169 397.322 460.012 397.63 459.823 397.914L458.412 400.362C457.21 402.407 455.524 405.223 453.628 408.304C451.733 411.385 449.997 414.173 448.72 416.163C448.074 417.277 447.345 418.329 446.541 419.309C446.576 419.227 446.615 419.148 446.658 419.07L447.033 418.401C447.426 417.741 447.868 416.934 448.461 415.971C449.68 413.935 451.374 411.129 453.269 408.038C455.165 404.948 456.893 402.169 458.162 400.17L459.681 397.813C459.854 397.515 460.058 397.241 460.291 396.997Z" fill="#FF725E"/>
<path d="M460.29 425.508C459.55 427.147 458.681 428.712 457.694 430.185C456.823 431.746 455.831 433.222 454.73 434.596C455.472 432.957 456.344 431.392 457.335 429.919C458.199 428.355 459.188 426.879 460.29 425.508Z" fill="#FF725E"/>
<path d="M380.806 305.245H323.827V434.009H380.806V305.245Z" fill="#FF725E"/>
<path d="M380.806 305.245H323.827V434.009H380.806V305.245Z" fill="black"/>
<path d="M366.88 305.245H309.902V434.009H366.88V305.245Z" fill="#787FFA"/>
<path d="M336.167 356.013V364.845H334.656L330.682 359.48V364.845H328.862V356.013H330.381L334.347 361.378V356.013H336.167Z" fill="white"/>
<path d="M337.385 357.462C337.333 356.982 337.415 356.496 337.619 356.068C337.824 355.64 338.143 355.291 338.532 355.067C338.922 354.842 339.364 354.753 339.801 354.811C340.238 354.869 340.649 355.072 340.978 355.392C341.308 355.712 341.541 356.135 341.647 356.604C341.753 357.073 341.727 357.566 341.572 358.019C341.417 358.471 341.14 358.861 340.778 359.137C340.417 359.412 339.988 359.561 339.548 359.562C339.278 359.591 339.006 359.559 338.748 359.467C338.491 359.376 338.253 359.227 338.05 359.03C337.847 358.833 337.683 358.592 337.569 358.322C337.455 358.052 337.392 357.76 337.385 357.462ZM340.499 357.462C340.499 357.185 340.399 356.919 340.221 356.723C340.042 356.527 339.8 356.417 339.548 356.417C339.295 356.417 339.053 356.527 338.875 356.723C338.696 356.919 338.596 357.185 338.596 357.462C338.596 357.74 338.696 358.005 338.875 358.201C339.053 358.398 339.295 358.508 339.548 358.508C339.8 358.508 340.042 358.398 340.221 358.201C340.399 358.005 340.499 357.74 340.499 357.462Z" fill="white"/>
<path d="M348.297 362.139C348.297 363.634 347.262 364.991 344.958 364.991C343.885 365.02 342.828 364.701 341.919 364.074L342.637 362.515C343.301 363.038 344.1 363.314 344.916 363.304C345.835 363.304 346.402 362.891 346.402 362.167C346.402 361.442 345.96 361.085 344.916 361.085H344.081V359.737L345.751 357.682H342.362V356.041H347.938V357.371L346.144 359.636C346.726 359.671 347.274 359.95 347.675 360.416C348.075 360.882 348.298 361.498 348.297 362.139Z" fill="white"/>
<path d="M380.805 310.399C380.681 310.723 380.524 311.031 380.337 311.316L378.926 313.773C377.724 315.837 376.038 318.68 374.142 321.789C372.247 324.897 370.511 327.704 369.234 329.712C368.587 330.836 367.858 331.9 367.055 332.894C367.082 332.806 367.121 332.722 367.171 332.647C367.288 332.445 367.405 332.225 367.547 331.968L368.975 329.529C370.194 327.465 371.888 324.641 373.783 321.523C375.679 318.405 377.398 315.608 378.676 313.59L380.195 311.215C380.367 310.916 380.572 310.642 380.805 310.399Z" fill="#FF725E"/>
<path d="M380.805 339.158C380.681 339.482 380.524 339.79 380.337 340.075L378.926 342.532C377.724 344.605 376.038 347.439 374.142 350.548C372.247 353.656 370.511 356.463 369.234 358.471C368.59 359.597 367.861 360.662 367.055 361.653C367.082 361.565 367.121 361.481 367.171 361.406L367.547 360.736C367.931 360.067 368.382 359.25 368.975 358.288C370.194 356.224 371.888 353.4 373.783 350.282C375.679 347.164 377.398 344.367 378.676 342.349L380.195 339.974C380.367 339.675 380.572 339.401 380.805 339.158Z" fill="#FF725E"/>
<path d="M380.805 367.917C380.681 368.241 380.524 368.549 380.337 368.834L378.926 371.301C377.724 373.364 376.038 376.198 374.142 379.307C372.247 382.415 370.511 385.222 369.234 387.239C368.589 388.362 367.86 389.423 367.055 390.412C367.082 390.324 367.121 390.24 367.171 390.165L367.547 389.495C367.931 388.826 368.382 388.009 368.975 387.047C370.194 384.992 371.888 382.159 373.783 379.041C375.679 375.923 377.398 373.126 378.676 371.108L380.195 368.733C380.37 368.437 380.574 368.163 380.805 367.917Z" fill="#FF725E"/>
<path d="M380.805 396.676C380.681 397 380.524 397.308 380.337 397.593L378.926 400.06C377.724 402.123 376.038 404.957 374.142 408.075C372.247 411.193 370.511 413.99 369.234 415.998C368.589 417.121 367.86 418.182 367.055 419.171C367.082 419.083 367.121 418.999 367.171 418.924L367.547 418.254C367.931 417.594 368.382 416.778 368.975 415.806C370.194 413.751 371.888 410.918 373.783 407.809C375.679 404.7 377.398 401.885 378.676 399.867L380.195 397.492C380.37 397.196 380.574 396.922 380.805 396.676Z" fill="#FF725E"/>
<path d="M380.805 425.435C380.066 427.086 379.197 428.663 378.209 430.148C377.339 431.725 376.347 433.216 375.245 434.605C375.984 432.954 376.853 431.377 377.841 429.892C378.711 428.316 379.703 426.824 380.805 425.435Z" fill="#FF725E"/>
<path d="M300.935 339.158H243.956V434.009H300.935V339.158Z" fill="#FF725E"/>
<path d="M300.935 339.158H243.956V434.009H300.935V339.158Z" fill="black"/>
<path d="M287.009 339.158H230.031V434.009H287.009V339.158Z" fill="#FF66C4"/>
<path d="M256.296 376.702V385.524H254.777L250.803 380.169V385.524H248.983V376.702H250.511L254.476 382.058V376.702H256.296Z" fill="white"/>
<path d="M257.514 378.151C257.458 377.669 257.537 377.179 257.741 376.747C257.945 376.316 258.263 375.962 258.654 375.734C259.045 375.506 259.49 375.415 259.93 375.471C260.37 375.528 260.783 375.731 261.115 376.052C261.448 376.373 261.683 376.798 261.79 377.27C261.897 377.742 261.871 378.238 261.714 378.693C261.558 379.148 261.279 379.54 260.915 379.817C260.551 380.094 260.119 380.242 259.677 380.242C259.408 380.271 259.136 380.239 258.879 380.148C258.622 380.057 258.385 379.909 258.182 379.713C257.979 379.517 257.815 379.277 257.7 379.008C257.585 378.739 257.522 378.448 257.514 378.151ZM260.62 378.151C260.62 377.874 260.52 377.608 260.341 377.412C260.163 377.216 259.921 377.106 259.668 377.106C259.416 377.106 259.174 377.216 258.995 377.412C258.817 377.608 258.716 377.874 258.716 378.151C258.716 378.428 258.817 378.694 258.995 378.89C259.174 379.086 259.416 379.197 259.668 379.197C259.921 379.197 260.163 379.086 260.341 378.89C260.52 378.694 260.62 378.428 260.62 378.151Z" fill="white"/>
<path d="M268.727 383.864V385.524H262.7V384.24L265.78 381.022C266.482 380.279 266.615 379.829 266.615 379.398C266.615 378.701 266.181 378.298 265.338 378.298C265.012 378.284 264.688 378.361 264.396 378.521C264.104 378.681 263.854 378.92 263.668 379.215L262.324 378.252C262.686 377.711 263.164 377.277 263.717 376.991C264.269 376.704 264.878 376.573 265.488 376.611C267.266 376.611 268.452 377.619 268.452 379.224C268.452 380.077 268.235 380.866 267.116 381.975L265.28 383.892L268.727 383.864Z" fill="white"/>
<path d="M300.926 339.158C300.803 339.482 300.646 339.79 300.459 340.075C300.083 340.744 299.624 341.56 299.056 342.532C297.846 344.605 296.16 347.439 294.264 350.548C292.369 353.656 290.633 356.463 289.356 358.471C288.716 359.598 287.99 360.663 287.185 361.653C287.185 361.653 287.185 361.561 287.302 361.406L287.677 360.736C288.062 360.07 288.537 359.254 289.105 358.288C290.316 356.224 292.01 353.4 293.905 350.282C295.801 347.164 297.529 344.367 298.798 342.349L300.325 339.974C300.497 339.677 300.698 339.404 300.926 339.158Z" fill="#FF725E"/>
<path d="M300.926 367.917C300.803 368.241 300.646 368.549 300.459 368.834L299.056 371.301C297.846 373.364 296.16 376.198 294.264 379.307C292.369 382.415 290.633 385.222 289.356 387.239C288.715 388.362 287.989 389.424 287.185 390.412C287.185 390.412 287.185 390.32 287.302 390.165L287.677 389.495C288.062 388.823 288.537 388.006 289.105 387.047C290.316 384.992 292.01 382.159 293.905 379.041C295.801 375.923 297.529 373.126 298.798 371.108L300.325 368.733C300.499 368.439 300.701 368.165 300.926 367.917Z" fill="#FF725E"/>
<path d="M300.926 396.676C300.803 397 300.646 397.308 300.459 397.593L299.056 400.06C297.846 402.123 296.16 404.957 294.264 408.075C292.369 411.193 290.633 413.99 289.356 415.998C288.715 417.122 287.989 418.183 287.185 419.171C287.185 419.171 287.185 419.08 287.302 418.924L287.677 418.254L289.105 415.806C290.316 413.751 292.01 410.918 293.905 407.809C295.801 404.7 297.529 401.885 298.798 399.867L300.325 397.492C300.499 397.198 300.701 396.924 300.926 396.676Z" fill="#FF725E"/>
<path d="M300.928 425.435C300.189 427.086 299.32 428.663 298.332 430.148C297.463 431.723 296.474 433.214 295.376 434.605C296.115 432.954 296.984 431.377 297.973 429.892C298.841 428.317 299.83 426.826 300.928 425.435Z" fill="#FF725E"/>
<path d="M221.058 367.917H164.08V434.009H221.058V367.917Z" fill="#FF725E"/>
<path d="M221.058 367.917H164.08V434.009H221.058V367.917Z" fill="black"/>
<path d="M207.132 367.917H150.154V434.009H207.132V367.917Z" fill="#FF4680"/>
<path d="M176.444 395.924V404.746H174.933L170.959 399.39V404.746H169.114V395.924H170.6L174.565 401.279V395.924H176.444Z" fill="white"/>
<path d="M177.637 397.373C177.581 396.89 177.66 396.399 177.865 395.967C178.069 395.535 178.389 395.181 178.781 394.954C179.173 394.726 179.619 394.636 180.059 394.694C180.499 394.752 180.913 394.956 181.245 395.28C181.576 395.603 181.81 396.03 181.915 396.503C182.02 396.976 181.992 397.473 181.833 397.928C181.674 398.383 181.392 398.773 181.026 399.048C180.66 399.322 180.226 399.467 179.783 399.464C179.515 399.49 179.245 399.456 178.99 399.364C178.735 399.271 178.5 399.123 178.299 398.927C178.098 398.731 177.935 398.492 177.822 398.225C177.708 397.958 177.645 397.668 177.637 397.373ZM180.743 397.373C180.743 397.166 180.687 396.963 180.582 396.791C180.477 396.619 180.328 396.485 180.153 396.406C179.979 396.327 179.787 396.307 179.602 396.348C179.417 396.389 179.248 396.49 179.115 396.637C178.982 396.784 178.892 396.971 178.856 397.174C178.821 397.378 178.841 397.588 178.914 397.779C178.987 397.97 179.111 398.133 179.268 398.246C179.426 398.36 179.611 398.42 179.799 398.418C179.926 398.426 180.052 398.405 180.171 398.355C180.289 398.305 180.397 398.228 180.486 398.129C180.575 398.03 180.644 397.912 180.688 397.781C180.733 397.651 180.751 397.512 180.743 397.373Z" fill="white"/>
<path d="M186.019 395.924V404.746H184.174V397.556H182.579V395.924H186.019Z" fill="white"/>
<path d="M221.058 367.917C220.935 368.241 220.778 368.549 220.59 368.834L219.179 371.301C217.977 373.364 216.282 376.198 214.396 379.307C212.509 382.415 210.764 385.222 209.487 387.239C208.842 388.362 208.113 389.423 207.308 390.412C207.335 390.324 207.374 390.24 207.425 390.165L207.8 389.495C208.184 388.826 208.635 388.009 209.228 387.047C210.447 384.992 212.142 382.159 214.028 379.041C215.915 375.923 217.652 373.126 218.929 371.108L220.448 368.733C220.623 368.437 220.828 368.163 221.058 367.917Z" fill="#FF725E"/>
<path d="M221.058 396.676C220.934 397 220.778 397.308 220.59 397.593L219.179 400.06C217.977 402.123 216.282 404.957 214.396 408.075C212.509 411.193 210.764 413.99 209.487 415.998C208.842 417.121 208.113 418.182 207.308 419.171C207.335 419.083 207.374 418.999 207.425 418.924L207.8 418.254C208.184 417.594 208.635 416.778 209.228 415.806C210.447 413.751 212.142 410.918 214.028 407.809C215.915 404.7 217.652 401.885 218.929 399.867L220.448 397.492C220.623 397.196 220.828 396.922 221.058 396.676Z" fill="#FF725E"/>
<path d="M221.057 425.435C220.314 427.084 219.446 428.66 218.461 430.148C217.591 431.725 216.6 433.216 215.497 434.605C216.237 432.954 217.105 431.377 218.094 429.892C218.964 428.316 219.955 426.824 221.057 425.435Z" fill="#FF725E"/>
<path d="M487.106 434.018C487.106 434.147 403.329 434.257 300.009 434.257C196.688 434.257 112.895 434.147 112.895 434.018C112.895 433.89 196.655 433.762 300 433.762C403.346 433.762 487.106 433.881 487.106 434.018Z" fill="#263238"/>
<path d="M433.727 185.864C458.234 185.864 478.101 164.041 478.101 137.12C478.101 110.2 458.234 88.3763 433.727 88.3763C409.22 88.3763 389.353 110.2 389.353 137.12C389.353 164.041 409.22 185.864 433.727 185.864Z" fill="#407BFF"/>
<path d="M434.466 185.864C458.973 185.864 478.84 164.041 478.84 137.12C478.84 110.2 458.973 88.3763 434.466 88.3763C409.959 88.3763 390.092 110.2 390.092 137.12C390.092 164.041 409.959 185.864 434.466 185.864Z" fill="white"/>
<path d="M438.129 110.232H429.073C427.416 110.232 426.072 111.708 426.072 113.529V165.234C426.072 167.055 427.416 168.531 429.073 168.531H438.129C439.786 168.531 441.13 167.055 441.13 165.234V113.529C441.13 111.708 439.786 110.232 438.129 110.232Z" fill="#98FFCA"/>
<path d="M460.262 145.258V135.31C460.262 133.489 458.918 132.013 457.261 132.013H410.191C408.534 132.013 407.19 133.489 407.19 135.31V145.258C407.19 147.078 408.534 148.554 410.191 148.554H457.261C458.918 148.554 460.262 147.078 460.262 145.258Z" fill="#98FFCA"/>
</svg>
