<svg width="360" height="261" viewBox="0 0 360 261" fill="none" xmlns="http://www.w3.org/2000/svg">
<path d="M0.890625 0.416016H359.891V260.416H0.890625V0.416016Z" fill="white"/>
<path d="M260.748 67.737L259.679 65.8275C250.663 49.7119 234.364 39.9998 217.18 41.174C214.967 41.3256 212.767 41.6539 210.597 42.1562C194.972 45.7832 181.38 58.6175 175.746 75.0129C172.429 84.6701 171.505 95.7815 165.216 103.447C157.029 113.417 143.132 113.73 130.914 113.324C118.696 112.918 104.789 113.263 96.6473 123.272C91.5423 129.543 89.9239 138.46 90.3335 146.866C91.4224 169.1 105.704 188.98 123.866 198.856C142.028 208.733 163.413 209.622 183.308 205.276C211.151 199.191 237.636 182.466 253.55 156.639C269.465 130.811 273.481 95.6114 260.748 67.737Z" fill="#EBEBEB"/>
<path d="M247.825 69.8879C247.832 69.8233 247.842 69.7591 247.855 69.6958C247.88 69.5586 247.915 69.3721 247.965 69.1471L248.395 66.9962C248.78 65.1251 249.339 62.4309 250.023 59.1003C251.417 52.4225 253.345 43.1877 255.478 32.9927L255.573 32.5318L255.668 32.9927C255.708 33.1738 255.748 33.3713 255.788 33.5414C257.911 43.901 259.834 53.2949 261.227 60.0715L262.851 68.1155C263.041 69.0593 263.186 69.7946 263.285 70.3104L263.39 70.8591C263.404 70.9242 263.414 70.9902 263.42 71.0566C263.42 71.0566 263.42 70.9908 263.37 70.8646L263.245 70.3159C263.136 69.8056 262.981 69.0703 262.776 68.121L261.093 60.0934C259.684 53.3004 257.741 43.934 255.598 33.5798C255.558 33.3823 255.518 33.1848 255.478 32.9982H255.668C253.515 43.2097 251.567 52.4225 250.173 59.0948C249.459 62.4199 248.884 65.1306 248.485 66.9797C248.285 67.9015 248.125 68.6258 248.015 69.1197C247.96 69.3556 247.92 69.5367 247.89 69.6684C247.86 69.8001 247.825 69.8879 247.825 69.8879Z" fill="#263238"/>
<path d="M247.825 77.6412V71.0896H263.745V77.6412C263.746 78.6432 263.567 79.6356 263.218 80.5616C262.869 81.4876 262.358 82.329 261.713 83.0379C261.068 83.7467 260.303 84.309 259.46 84.6926C258.617 85.0762 257.714 85.2737 256.802 85.2737H254.774C252.931 85.2737 251.164 84.4696 249.861 83.0382C248.557 81.6068 247.825 79.6655 247.825 77.6412Z" fill="#455A64"/>
<path d="M247.825 71.0896C247.894 71.1735 247.955 71.2657 248.005 71.3641L248.505 72.1762L250.258 75.1831L255.983 85.1476L256.022 85.2135H255.818C257.981 81.3067 259.939 77.773 261.372 75.1941L263.071 72.1762C263.265 71.8305 263.425 71.5616 263.54 71.3586C263.591 71.2613 263.649 71.1695 263.715 71.0842C263.679 71.1885 263.632 71.2879 263.575 71.3805L263.136 72.2146L261.487 75.2709C260.074 77.8608 258.13 81.4054 255.993 85.3232L255.913 85.4714L255.828 85.3232L255.788 85.2519L250.108 75.2544L248.41 72.2146C248.22 71.8634 248.065 71.589 247.955 71.3805C247.906 71.287 247.863 71.1897 247.825 71.0896Z" fill="#263238"/>
<path d="M257.347 32.9215C257.347 33.2991 257.245 33.6683 257.054 33.9823C256.863 34.2964 256.591 34.5411 256.274 34.6856C255.956 34.8301 255.606 34.868 255.269 34.7943C254.932 34.7206 254.622 34.5387 254.379 34.2717C254.136 34.0046 253.971 33.6644 253.904 33.294C253.836 32.9236 253.871 32.5396 254.002 32.1907C254.134 31.8418 254.357 31.5436 254.643 31.3338C254.929 31.124 255.265 31.012 255.608 31.012C256.069 31.012 256.512 31.2131 256.838 31.5712C257.164 31.9293 257.347 32.415 257.347 32.9215Z" fill="#263238"/>
<path d="M255.608 0.416016C255.663 0.416016 255.708 7.77419 255.708 16.8773C255.708 25.9803 255.663 33.2946 255.608 33.2946C255.553 33.2946 255.514 25.9419 255.514 16.8663C255.514 7.79066 255.553 0.416016 255.608 0.416016Z" fill="#263238"/>
<path d="M256.512 85.9707C256.512 86.1324 256.468 86.2904 256.387 86.4249C256.305 86.5593 256.189 86.6641 256.053 86.726C255.917 86.7879 255.767 86.8041 255.623 86.7725C255.478 86.741 255.346 86.6631 255.241 86.5488C255.137 86.4344 255.067 86.2887 255.038 86.1301C255.009 85.9716 255.024 85.8072 255.08 85.6578C255.136 85.5084 255.232 85.3807 255.354 85.2909C255.477 85.201 255.621 85.1531 255.768 85.1531C255.965 85.1531 256.154 85.2392 256.294 85.3925C256.434 85.5459 256.512 85.7538 256.512 85.9707Z" fill="#263238"/>
<path d="M255.438 86.2888L255.558 86.223C255.347 86.372 255.17 86.5712 255.04 86.8059C254.909 87.0406 254.828 87.3046 254.804 87.5783C254.76 88.1311 254.804 88.688 254.934 89.2244C254.964 89.3945 255.048 89.603 255.203 89.592C255.358 89.5811 255.413 89.4 255.438 89.2464C255.489 88.9219 255.497 88.5912 255.463 88.2642C255.445 88.6835 255.567 89.0955 255.808 89.4219C255.853 89.4823 255.923 89.5481 255.993 89.5262C256.062 89.5043 256.087 89.4219 256.107 89.3451C256.174 89.071 256.211 88.7892 256.217 88.5056C256.236 88.7548 256.319 88.9929 256.457 89.1915C256.493 89.2384 256.537 89.2768 256.587 89.3043C256.637 89.3318 256.691 89.3478 256.747 89.3514C256.802 89.355 256.858 89.3461 256.911 89.3252C256.963 89.3043 257.011 89.2719 257.051 89.2299C257.127 89.0854 257.149 88.9142 257.111 88.7525C256.985 87.7735 256.627 86.8481 256.072 86.0693" fill="#263238"/>
<path d="M247.826 57.4378C247.876 57.4378 249.145 60.4008 250.658 64.1101C252.172 67.8194 253.366 70.8427 253.316 70.8702C253.266 70.8976 251.997 67.9072 250.479 64.1979C248.96 60.4886 247.761 57.4707 247.826 57.4378Z" fill="#263238"/>
<path d="M253.59 59.1169C253.645 59.1169 253.855 61.7452 254.059 64.999C254.264 68.2529 254.389 70.8922 254.334 70.8922C254.279 70.8922 254.069 68.2638 253.865 65.01C253.66 61.7562 253.535 59.1224 253.59 59.1169Z" fill="#263238"/>
<path d="M265.004 60.3843C265.049 60.4173 263.655 62.7054 261.887 65.4928C260.119 68.2802 258.65 70.508 258.61 70.4751C258.57 70.4422 259.959 68.154 261.727 65.3666C263.495 62.5792 264.959 60.3514 265.004 60.3843Z" fill="#263238"/>
<path d="M251.222 70.8976C250.994 70.7648 250.784 70.5987 250.598 70.4037C250.122 69.9709 249.666 69.5112 249.234 69.0265C248.803 68.5408 248.396 68.0297 248.015 67.4956C247.841 67.2854 247.694 67.0489 247.581 66.7932C247.625 66.7548 248.37 67.7425 249.374 68.8728C250.378 70.0032 251.257 70.8482 251.222 70.8976Z" fill="#263238"/>
<path d="M255.568 67.3146C255.716 67.924 255.799 68.5499 255.818 69.1802C255.905 69.8046 255.925 70.4382 255.878 71.0677C255.73 70.4582 255.644 69.8325 255.623 69.2021C255.539 68.5773 255.52 67.944 255.568 67.3146Z" fill="#263238"/>
<path d="M263.725 75.172C263.525 75.2399 263.319 75.2858 263.111 75.3091C262.716 75.3914 262.111 75.4902 261.422 75.5945C259.555 75.8814 257.676 76.0646 255.793 76.1432C253.908 76.2176 252.02 76.1295 250.148 75.8798C249.429 75.781 248.854 75.6768 248.46 75.5835C248.252 75.547 248.046 75.4938 247.845 75.4244C248.055 75.4283 248.264 75.454 248.47 75.5012C248.869 75.567 249.469 75.6493 250.163 75.7316C252.032 75.9334 253.911 75.9975 255.788 75.9237C257.985 75.8414 259.969 75.6164 261.402 75.4408L263.101 75.2213C263.307 75.185 263.516 75.1685 263.725 75.172Z" fill="white"/>
<path d="M263.725 77.1254C263.523 77.1865 263.318 77.2324 263.111 77.2626C262.716 77.3394 262.111 77.4382 261.422 77.5479C259.555 77.8373 257.676 78.0204 255.793 78.0966C253.908 78.1753 252.02 78.0891 250.148 77.8387C249.429 77.7345 248.854 77.6357 248.46 77.5424C248.251 77.5062 248.046 77.4511 247.845 77.3778C248.055 77.3888 248.263 77.4145 248.47 77.4546C248.869 77.526 249.469 77.6028 250.163 77.6851C252.032 77.8918 253.911 77.9578 255.788 77.8826C257.985 77.8003 259.969 77.5753 261.402 77.3943L263.101 77.1803C263.307 77.1421 263.516 77.1238 263.725 77.1254Z" fill="white"/>
<path d="M146.658 94.3878L144.925 98.975C145.327 100.019 145.63 101.105 145.829 102.218C145.914 103.277 145.129 107.782 145.129 107.782C144.889 107.796 144.651 107.718 144.457 107.561C144.262 107.404 144.124 107.177 144.065 106.92C144.061 106.037 144.114 105.155 144.225 104.281C144.118 104.129 143.978 104.009 143.818 103.933C143.657 103.857 143.482 103.828 143.308 103.847C143.134 103.866 142.967 103.934 142.823 104.043C142.68 104.153 142.564 104.301 142.487 104.473C141.987 105.57 141.418 106.865 141.318 107.014C141.218 107.162 141.388 108.835 141.548 110.064C141.573 110.23 141.548 110.4 141.476 110.548C141.404 110.696 141.289 110.814 141.149 110.882C141.01 110.95 140.854 110.966 140.705 110.926C140.557 110.887 140.424 110.794 140.329 110.662C140.287 110.608 140.261 110.541 140.254 110.47C140.254 110.47 139.6 111.524 138.955 109.587C138.955 109.587 137.657 108.863 137.627 107.678C137.627 107.678 136.443 106.218 136.283 105.346C136.123 104.473 138.835 99.2 138.835 99.2L142.172 91.6278L146.658 94.3878Z" fill="#FFBE9D"/>
<path d="M140.849 103.82C140.614 104.06 140.415 104.34 140.26 104.649C139.81 105.354 139.517 106.166 139.406 107.019C139.36 107.882 139.516 108.744 139.86 109.521C139.966 109.853 140.12 110.164 140.315 110.443C140.245 110.102 140.147 109.77 140.02 109.45C139.74 108.688 139.613 107.868 139.65 107.046C139.766 106.233 140.024 105.453 140.41 104.747C140.585 104.456 140.733 104.145 140.849 103.82Z" fill="#EB996E"/>
<path d="M139.525 103.496C139.5 103.496 139.24 103.721 138.95 104.226C138.781 104.521 138.63 104.829 138.501 105.148C138.328 105.545 138.23 105.976 138.211 106.415C138.23 106.845 138.294 107.27 138.401 107.683C138.486 108.029 138.566 108.363 138.641 108.682C138.699 108.989 138.797 109.287 138.93 109.565C138.93 109.244 138.892 108.925 138.815 108.616C138.77 108.33 138.706 107.985 138.631 107.606C138.539 107.207 138.482 106.799 138.461 106.388C138.483 105.985 138.569 105.589 138.716 105.219C138.845 104.868 138.985 104.555 139.105 104.297C139.345 103.809 139.55 103.529 139.525 103.496Z" fill="#EB996E"/>
<path d="M137.972 103.266C137.882 103.216 137.472 104.188 137.063 105.395C137.004 105.57 136.988 105.759 137.018 105.944C137.018 106.103 137.058 106.251 137.083 106.393C137.132 106.643 137.2 106.887 137.287 107.123C137.437 107.524 137.602 107.738 137.627 107.716C137.588 107.491 137.529 107.27 137.452 107.057C137.392 106.823 137.343 106.585 137.307 106.344C137.307 106.212 137.267 106.07 137.257 105.922C137.24 105.785 137.252 105.646 137.292 105.516C137.507 104.906 137.677 104.358 137.792 103.952C137.877 103.732 137.937 103.502 137.972 103.266Z" fill="#EB996E"/>
<path d="M216.775 83.1667L218.518 81.2133C218.635 81.0508 218.796 80.9335 218.978 80.8786C219.307 80.8183 219.592 81.1859 219.607 81.548C219.593 81.9145 219.472 82.2663 219.263 82.5522C219.057 82.8367 218.909 83.1659 218.828 83.5179" fill="#FFBE9D"/>
<path d="M233.703 66.8371L224.497 84.3958L207.279 84.5329C207.259 84.097 207.394 83.6697 207.655 83.3404C207.915 83.011 208.282 82.8052 208.678 82.7661L223.743 82.4314L231.571 67.6876C232.12 66.6505 232.679 66.431 233.703 66.8481V66.8371Z" fill="#263238"/>
<path d="M218.259 84.4288C218.344 84.4288 212.819 84.4288 213.129 84.522C213.159 84.5879 213.184 84.6537 213.209 84.7196L213.928 88.1874C215.172 88.1874 218.753 87.1504 218.753 87.1504C219.388 86.7424 219.971 86.2442 220.487 85.6688V84.4178L218.259 84.4288Z" fill="#FFBE9D"/>
<path d="M213.388 84.4452L200.291 83.8471L194.237 68.165L187.803 78.2886L192.983 88.522C193.583 89.705 194.471 90.6811 195.547 91.3411C196.623 92.0011 197.846 92.3188 199.077 92.2588L214.342 90.3383L213.388 84.4452Z" fill="#C2EBF8"/>
<path d="M215.396 157.687L216.395 167.811C216.395 167.811 226.006 169.374 226.346 171.207L208.653 174.79L206.49 159.086L215.396 157.687Z" fill="#ED280C"/>
<path d="M210.791 167.849C210.628 167.933 210.498 168.08 210.427 168.262C210.356 168.444 210.349 168.649 210.406 168.837C210.477 169.02 210.61 169.167 210.776 169.246C210.942 169.326 211.13 169.332 211.301 169.264C211.474 169.174 211.61 169.016 211.684 168.822C211.757 168.627 211.763 168.41 211.7 168.211C211.608 168.028 211.455 167.892 211.274 167.831C211.092 167.769 210.896 167.787 210.726 167.882" fill="white"/>
<path d="M208.669 174.79L208.449 173.21L225.642 170.4C225.84 170.467 226.02 170.586 226.166 170.748C226.311 170.91 226.418 171.109 226.476 171.328L208.669 174.79Z" fill="white"/>
<path d="M216.685 167.668C216.685 167.761 216.266 167.876 215.876 168.25C215.486 168.623 215.317 169.062 215.232 169.04C215.147 169.018 215.202 168.442 215.676 167.997C216.151 167.553 216.69 167.575 216.685 167.668Z" fill="#263238"/>
<path d="M218.663 168.217C218.693 168.304 218.338 168.529 218.098 168.979C217.858 169.429 217.829 169.868 217.739 169.879C217.649 169.89 217.529 169.358 217.839 168.782C218.148 168.206 218.648 168.123 218.663 168.217Z" fill="#263238"/>
<path d="M220.052 170.499C219.972 170.532 219.787 170.077 219.942 169.517C220.097 168.957 220.477 168.683 220.522 168.76C220.567 168.837 220.357 169.149 220.237 169.61C220.117 170.071 220.137 170.472 220.052 170.499Z" fill="#263238"/>
<path d="M216.22 165.385C216.195 165.478 215.781 165.385 215.291 165.528C214.802 165.67 214.447 165.873 214.387 165.802C214.327 165.731 214.657 165.325 215.231 165.199C215.806 165.072 216.25 165.303 216.22 165.385Z" fill="#263238"/>
<path d="M215.597 159.695L215.777 161.495L207.02 162.812L206.75 160.919L215.597 159.695Z" fill="black"/>
<path d="M215.981 163.339C215.701 163.472 215.394 163.519 215.092 163.476C214.754 163.465 214.419 163.41 214.093 163.311C213.905 163.254 213.721 163.181 213.543 163.092C213.435 163.047 213.334 162.984 213.244 162.905C213.177 162.847 213.13 162.767 213.11 162.676C213.09 162.586 213.099 162.49 213.134 162.406C213.17 162.333 213.22 162.269 213.282 162.221C213.343 162.173 213.414 162.14 213.488 162.126C213.601 162.107 213.715 162.107 213.828 162.126C214.026 162.148 214.221 162.189 214.412 162.247C214.732 162.348 215.035 162.503 215.312 162.708C215.781 163.064 215.971 163.399 215.941 163.421C215.911 163.443 215.666 163.19 215.202 162.911C214.929 162.749 214.639 162.628 214.337 162.548C214.162 162.502 213.983 162.471 213.803 162.455C213.608 162.455 213.448 162.455 213.413 162.554C213.378 162.653 213.413 162.609 213.448 162.664C213.515 162.722 213.589 162.768 213.668 162.801C213.83 162.885 213.997 162.959 214.168 163.02C214.464 163.127 214.768 163.202 215.077 163.245C215.38 163.248 215.682 163.279 215.981 163.339Z" fill="#263238"/>
<path d="M215.886 163.503C215.856 163.503 215.641 163.207 215.526 162.592C215.47 162.229 215.47 161.858 215.526 161.495C215.555 161.28 215.603 161.068 215.671 160.864C215.702 160.728 215.764 160.603 215.852 160.501C215.939 160.399 216.049 160.324 216.171 160.282C216.25 160.271 216.331 160.285 216.404 160.323C216.477 160.361 216.538 160.421 216.58 160.496C216.641 160.602 216.689 160.716 216.72 160.836C216.779 161.052 216.808 161.276 216.805 161.5C216.805 161.874 216.721 162.241 216.56 162.57C216.281 163.119 215.931 163.306 215.921 163.273C216.085 163.014 216.233 162.745 216.366 162.466C216.483 162.161 216.538 161.831 216.525 161.5C216.518 161.314 216.488 161.129 216.435 160.952C216.381 160.749 216.286 160.589 216.216 160.622C216.146 160.655 216.001 160.814 215.946 160.995C215.883 161.174 215.833 161.357 215.796 161.544C215.739 161.875 215.726 162.213 215.756 162.548C215.791 163.141 215.931 163.481 215.886 163.503Z" fill="#263238"/>
<path d="M141.763 163.338L133.151 167.119C133.151 167.119 134.375 177.693 132.846 178.56L124.944 160.798L138.136 154.301L141.763 163.338Z" fill="#ED280C"/>
<path d="M131.618 161.182C131.498 161.025 131.328 160.923 131.143 160.898C130.958 160.872 130.77 160.925 130.619 161.045C130.477 161.169 130.385 161.349 130.361 161.546C130.337 161.743 130.383 161.943 130.489 162.104C130.614 162.263 130.789 162.366 130.979 162.392C131.169 162.419 131.361 162.367 131.518 162.247C131.643 162.097 131.712 161.901 131.712 161.698C131.712 161.495 131.643 161.299 131.518 161.149" fill="white"/>
<path d="M124.944 160.798L126.273 160.145L133.361 177.605C133.35 177.827 133.291 178.043 133.187 178.234C133.083 178.425 132.939 178.586 132.766 178.702L124.944 160.798Z" fill="white"/>
<path d="M133.356 167.371C133.271 167.41 133.061 166.982 132.626 166.675C132.192 166.367 131.762 166.301 131.762 166.203C131.762 166.104 132.262 166.011 132.796 166.395C133.331 166.779 133.436 167.355 133.356 167.371Z" fill="#263238"/>
<path d="M133.406 169.616C133.336 169.671 133.041 169.358 132.582 169.221C132.122 169.083 131.727 169.177 131.697 169.083C131.667 168.99 132.097 168.721 132.667 168.897C133.236 169.072 133.481 169.577 133.406 169.616Z" fill="#263238"/>
<path d="M131.773 171.695C131.723 171.624 132.073 171.306 132.608 171.317C133.142 171.328 133.477 171.657 133.427 171.728C133.377 171.8 133.037 171.657 132.603 171.651C132.168 171.646 131.813 171.778 131.773 171.695Z" fill="#263238"/>
<path d="M135.229 166.269C135.14 166.269 135.09 165.813 134.86 165.325C134.63 164.836 134.325 164.524 134.36 164.447C134.395 164.37 134.86 164.601 135.115 165.171C135.369 165.742 135.309 166.285 135.229 166.269Z" fill="#263238"/>
<path d="M140.055 164.085L138.521 164.76L135.019 155.843L136.378 155.168L140.055 164.085Z" fill="black"/>
<path d="M136.933 165.473C136.743 165.211 136.619 164.899 136.573 164.568C136.496 164.208 136.457 163.84 136.458 163.47C136.46 163.255 136.473 163.041 136.498 162.828C136.508 162.701 136.537 162.577 136.583 162.461C136.616 162.374 136.674 162.302 136.748 162.256C136.823 162.211 136.909 162.194 136.993 162.208C137.067 162.227 137.135 162.264 137.194 162.316C137.253 162.368 137.3 162.435 137.333 162.51C137.382 162.622 137.414 162.743 137.427 162.867C137.461 163.081 137.477 163.297 137.477 163.514C137.476 163.887 137.422 164.257 137.318 164.612C137.247 164.94 137.089 165.238 136.863 165.467C136.818 165.44 136.988 165.116 137.108 164.546C137.176 164.215 137.207 163.875 137.198 163.536C137.193 163.339 137.171 163.142 137.133 162.949C137.103 162.735 137.038 162.57 136.943 162.559C136.848 162.548 136.893 162.559 136.858 162.62C136.826 162.708 136.806 162.8 136.798 162.894C136.766 163.092 136.746 163.292 136.738 163.492C136.725 163.833 136.742 164.175 136.788 164.513C136.858 164.829 136.906 165.149 136.933 165.473Z" fill="#263238"/>
<path d="M136.792 165.413C136.767 165.413 136.982 165.072 137.492 164.787C137.792 164.625 138.114 164.519 138.446 164.474C138.642 164.449 138.839 164.449 139.035 164.474C139.164 164.47 139.291 164.502 139.404 164.568C139.518 164.633 139.615 164.729 139.685 164.847C139.715 164.928 139.724 165.017 139.711 165.103C139.698 165.19 139.663 165.27 139.61 165.336C139.532 165.429 139.443 165.51 139.345 165.577C139.174 165.697 138.987 165.788 138.791 165.846C138.465 165.946 138.121 165.955 137.791 165.874C137.222 165.725 136.977 165.407 137.002 165.385C137.273 165.485 137.548 165.569 137.826 165.638C138.127 165.682 138.432 165.652 138.721 165.55C138.887 165.492 139.045 165.409 139.19 165.303C139.35 165.188 139.465 165.051 139.415 164.985C139.366 164.923 139.305 164.875 139.237 164.842C139.169 164.81 139.095 164.795 139.02 164.798C138.841 164.779 138.66 164.779 138.481 164.798C138.176 164.827 137.877 164.903 137.592 165.023C137.087 165.215 136.822 165.457 136.792 165.413Z" fill="#263238"/>
<path d="M200.626 34.4798C199.277 33.5635 197.399 34.5676 195.971 33.8049C195.101 33.344 194.607 32.3398 193.908 31.6101C193.362 31.0424 192.704 30.6219 191.986 30.3819C191.267 30.1419 190.507 30.089 189.767 30.2273C188.383 30.5511 187.384 31.0998 186.849 32.5429C185.885 31.5003 183.622 32.5429 182.618 33.8433C181.614 35.1437 181.39 36.7789 181.39 38.5018C181.356 41.4775 181.852 44.4317 182.848 47.1989C182.938 47.4458 183.103 47.7476 183.348 47.6872C183.593 47.6269 183.608 47.4677 183.672 47.3031C184.172 45.852 184.507 44.3391 184.671 42.7982C184.835 41.2518 185.284 39.7583 185.99 38.4086C186.759 37.1081 188.083 36.104 189.487 36.2137C190.531 36.3534 191.498 36.8913 192.219 37.7336C192.968 38.5293 193.568 39.4785 194.257 40.3345C194.909 41.2347 195.773 41.9216 196.755 42.3208C197.248 42.5116 197.781 42.5427 198.29 42.4104C198.8 42.2781 199.264 41.988 199.627 41.5746C200.296 40.6967 200.156 39.1328 199.222 38.6171C199.69 38.7023 200.17 38.6065 200.581 38.3461C200.992 38.0856 201.308 37.6767 201.474 37.1891C201.641 36.7015 201.649 36.1654 201.496 35.6723C201.343 35.1792 201.039 34.7597 200.636 34.4853L200.626 34.4798Z" fill="#263238"/>
<path d="M189.881 59.1169L190.505 55.874C190.505 55.874 194.541 56.1758 195.465 51.9069C195.915 49.8437 196.524 45.5144 197.034 41.5911C197.297 39.5555 196.853 37.4857 195.791 35.793C194.728 34.1003 193.125 32.9088 191.299 32.4552L190.925 32.3619C186.814 31.6156 183.932 35.0341 183.377 39.5664L180.21 56.933C179.955 58.3369 180.216 59.7946 180.935 60.9881C181.655 62.1816 182.775 63.0139 184.051 63.3035L183.942 64.9497C186.614 65.5478 189.326 62.0415 189.881 59.1169Z" fill="#FFBE9D"/>
<path d="M190.521 55.874C188.713 55.4652 187.057 54.4737 185.765 53.0262C185.765 53.0262 186.33 56.4062 190.301 56.9824L190.521 55.874Z" fill="#EB996E"/>
<path d="M195.605 44.6364C195.573 44.7956 195.486 44.9348 195.362 45.0249C195.238 45.1149 195.087 45.1487 194.941 45.1192C194.869 45.1073 194.8 45.0796 194.738 45.0379C194.675 44.9963 194.621 44.9414 194.578 44.8766C194.536 44.8117 194.505 44.7381 194.488 44.6602C194.472 44.5822 194.469 44.5014 194.482 44.4224C194.514 44.2632 194.601 44.1239 194.725 44.0339C194.849 43.9439 195 43.91 195.146 43.9395C195.218 43.9515 195.287 43.9792 195.349 44.0208C195.412 44.0625 195.466 44.1173 195.509 44.1822C195.551 44.2471 195.582 44.3206 195.599 44.3986C195.615 44.4766 195.618 44.5574 195.605 44.6364Z" fill="#263238"/>
<path d="M195.775 43.4731C195.691 43.539 195.336 43.089 194.736 42.9244C194.137 42.7598 193.633 42.9958 193.583 42.9244C193.533 42.8531 193.658 42.7543 193.882 42.6501C194.182 42.5171 194.511 42.4884 194.826 42.5678C195.141 42.6504 195.424 42.8429 195.631 43.1165C195.785 43.2866 195.815 43.4457 195.775 43.4731Z" fill="#263238"/>
<path d="M189.822 43.3141C189.791 43.4736 189.705 43.6136 189.582 43.704C189.459 43.7943 189.308 43.8277 189.162 43.7969C189.09 43.7856 189.021 43.7586 188.958 43.7175C188.896 43.6765 188.842 43.6223 188.798 43.5579C188.755 43.4936 188.724 43.4205 188.707 43.3429C188.689 43.2652 188.686 43.1845 188.698 43.1056C188.714 43.0245 188.744 42.9476 188.787 42.8794C188.83 42.8112 188.885 42.753 188.949 42.7082C189.012 42.6633 189.083 42.6327 189.158 42.618C189.232 42.6034 189.308 42.6049 189.382 42.6227C189.523 42.6521 189.648 42.7409 189.73 42.8701C189.812 42.9993 189.845 43.1586 189.822 43.3141Z" fill="#263238"/>
<path d="M189.881 42.1398C189.796 42.2002 189.442 41.7557 188.842 41.5911C188.243 41.4265 187.738 41.6624 187.688 41.5911C187.638 41.5198 187.763 41.421 187.988 41.3113C188.288 41.1808 188.618 41.154 188.932 41.2344C189.247 41.3171 189.529 41.5096 189.736 41.7831C189.881 41.9532 189.881 42.1124 189.881 42.1398Z" fill="#263238"/>
<path d="M191.03 47.5611C191.364 47.532 191.699 47.5486 192.029 47.6105C192.189 47.6105 192.339 47.6105 192.389 47.5282C192.442 47.3498 192.442 47.1578 192.389 46.9795C192.329 46.5405 192.264 46.0741 192.199 45.5912C192.003 44.4028 191.893 43.1992 191.869 41.9917C192.156 43.1588 192.355 44.3499 192.464 45.5528C192.519 46.0357 192.579 46.5021 192.629 46.9465C192.684 47.1733 192.665 47.4144 192.574 47.6269C192.539 47.6799 192.495 47.7236 192.443 47.755C192.391 47.7863 192.333 47.8045 192.274 47.808C192.184 47.8202 192.094 47.8202 192.004 47.808C191.671 47.7714 191.344 47.6885 191.03 47.5611Z" fill="#263238"/>
<path d="M189.177 47.561C189.277 47.561 189.127 48.2908 189.582 48.9383C190.036 49.5858 190.741 49.6736 190.726 49.7778C190.711 49.8821 190.546 49.8766 190.251 49.8107C189.869 49.7236 189.527 49.4902 189.287 49.1523C189.055 48.8275 188.948 48.416 188.987 48.0055C189.022 47.7202 189.132 47.561 189.177 47.561Z" fill="#263238"/>
<path d="M190.616 38.7818C190.516 38.9464 189.936 38.7104 189.217 38.6336C188.498 38.5568 187.883 38.6336 187.823 38.4361C187.793 38.3483 187.928 38.2056 188.193 38.0904C188.543 37.9543 188.916 37.9073 189.285 37.9529C189.653 37.9985 190.008 38.1356 190.321 38.3538C190.556 38.5294 190.656 38.7049 190.616 38.7818Z" fill="#263238"/>
<path d="M195.945 41.5252C195.81 41.6514 195.446 41.3935 194.946 41.2618C194.447 41.1301 194.007 41.1356 193.947 40.9546C193.922 40.8668 194.017 40.7351 194.232 40.6418C194.513 40.5333 194.817 40.5192 195.105 40.6013C195.393 40.6834 195.653 40.8579 195.85 41.1027C195.98 41.2893 196.005 41.4539 195.945 41.5252Z" fill="#263238"/>
<path d="M183.058 42.8147C182.993 42.7709 180.56 41.2839 180.06 44.2304C179.561 47.177 182.343 47.1441 182.363 47.0563C182.383 46.9685 183.058 42.8147 183.058 42.8147Z" fill="#FFBE9D"/>
<path d="M181.719 45.7668C181.719 45.7668 181.664 45.7668 181.579 45.8161C181.459 45.8453 181.333 45.8216 181.229 45.7503C181.077 45.5933 180.966 45.3946 180.907 45.1747C180.848 44.9548 180.844 44.7216 180.894 44.4992C180.93 44.2445 181.019 44.0022 181.154 43.7914C181.195 43.7037 181.254 43.6284 181.327 43.5719C181.4 43.5154 181.485 43.4796 181.574 43.4677C181.631 43.4623 181.688 43.4799 181.734 43.5173C181.78 43.5547 181.812 43.6092 181.824 43.6707C181.824 43.7585 181.824 43.8134 181.824 43.8243C181.824 43.8353 181.889 43.7859 181.889 43.6597C181.887 43.5827 181.86 43.5089 181.814 43.4512C181.783 43.4124 181.745 43.3807 181.703 43.3581C181.661 43.3355 181.616 43.3224 181.569 43.3195C181.454 43.3209 181.342 43.3543 181.242 43.4167C181.142 43.4791 181.059 43.5684 180.999 43.6762C180.842 43.9069 180.737 44.1761 180.695 44.4608C180.637 44.7211 180.649 44.9944 180.731 45.247C180.812 45.4996 180.96 45.7203 181.154 45.882C181.223 45.9188 181.298 45.938 181.374 45.938C181.45 45.938 181.525 45.9188 181.594 45.882C181.704 45.8381 181.729 45.7722 181.719 45.7668Z" fill="#EB996E"/>
<path d="M198.054 40.8943C197.14 40.9238 196.233 40.7149 195.407 40.2847C194.582 39.8545 193.861 39.2153 193.303 38.4196C192.539 37.3222 192.069 35.8517 190.961 35.1274C190.58 34.907 190.162 34.7726 189.733 34.7321C189.304 34.6916 188.873 34.7458 188.463 34.8915C187.644 35.1859 186.889 35.6622 186.245 36.2907C186.55 38.6501 185.546 40.9547 184.567 43.0892C184.481 43.3374 184.323 43.5476 184.117 43.6872C183.748 43.8738 183.318 43.5501 183.118 43.166C182.826 42.5191 182.711 41.7926 182.788 41.0754C182.83 39.4377 183.17 37.8258 183.787 36.3346C184.416 34.8549 185.422 33.608 186.685 32.746C188.315 31.716 190.244 31.4191 192.069 31.9175C193.883 32.4312 195.504 33.5602 196.7 35.1439C197.283 35.8486 197.698 36.7005 197.909 37.624" fill="#263238"/>
<path d="M201.536 35.7913C201.525 35.8779 201.499 35.9616 201.461 36.0382C201.347 36.2617 201.172 36.4403 200.961 36.5485C200.626 36.7136 200.251 36.7559 199.892 36.6692C199.668 36.6256 199.449 36.5557 199.238 36.4607C198.998 36.3505 198.79 36.1725 198.633 35.9449C198.545 35.8168 198.484 35.6682 198.455 35.5104C198.427 35.3526 198.431 35.1897 198.469 35.0341C198.524 34.8688 198.621 34.7243 198.748 34.6174C198.876 34.5105 199.028 34.4457 199.188 34.4305C199.356 34.4026 199.527 34.4195 199.687 34.4799C199.851 34.5466 199.994 34.6649 200.097 34.8201C200.197 34.9783 200.265 35.1579 200.297 35.347C200.328 35.5362 200.323 35.7306 200.282 35.9175C200.239 36.1178 200.161 36.3069 200.051 36.4736C199.941 36.6403 199.802 36.7814 199.642 36.8887C199.315 37.1135 198.939 37.2385 198.553 37.2509C197.748 37.2548 196.965 36.961 196.331 36.4168C195.703 35.8917 195.131 35.2897 194.627 34.6225C194.163 34.0107 193.651 33.4435 193.099 32.927C192.601 32.4735 192.012 32.1574 191.38 32.0052C190.821 31.8873 190.244 31.906 189.692 32.0601C188.89 32.2957 188.155 32.7528 187.559 33.3879C187.395 33.561 187.24 33.7442 187.095 33.9367C186.995 34.0629 186.94 34.1342 186.94 34.1287C186.94 34.1232 186.94 34.1287 186.97 34.0738C187.001 34.0177 187.036 33.9645 187.075 33.9147C187.214 33.7221 187.365 33.5389 187.524 33.366C188.115 32.7042 188.854 32.2254 189.667 31.9778C190.233 31.8149 190.825 31.7905 191.4 31.9064C192.058 32.0629 192.671 32.3903 193.189 32.8612C193.747 33.3825 194.264 33.9533 194.737 34.5677C195.236 35.2263 195.8 35.8209 196.421 36.34C197.031 36.8519 197.776 37.1313 198.544 37.1356C198.906 37.1236 199.26 37.0062 199.568 36.7954C199.714 36.6989 199.841 36.5717 199.942 36.4211C200.043 36.2704 200.116 36.0993 200.157 35.9175C200.198 35.7456 200.206 35.566 200.178 35.3908C200.15 35.2156 200.089 35.049 199.997 34.9024C199.905 34.7715 199.783 34.6702 199.643 34.6094C199.504 34.5485 199.351 34.5303 199.203 34.5567C199.063 34.5685 198.929 34.6238 198.817 34.7161C198.704 34.8084 198.618 34.9339 198.568 35.078C198.536 35.2163 198.531 35.3608 198.555 35.5013C198.58 35.6417 198.632 35.7745 198.708 35.8901C198.853 36.1061 199.048 36.2749 199.273 36.3784C199.476 36.4756 199.689 36.5474 199.907 36.5924C200.252 36.6797 200.613 36.6491 200.941 36.5046C201.148 36.4045 201.322 36.2381 201.441 36.0272C201.516 35.8791 201.526 35.7858 201.536 35.7913Z" fill="#455A64"/>
<path d="M181.625 36.2467C181.868 36.4183 182.126 36.5652 182.394 36.6857C182.689 36.7898 182.999 36.829 183.308 36.8009C183.688 36.7662 184.061 36.672 184.417 36.5211C185.061 36.2349 185.603 35.7265 185.96 35.0725C186.098 34.794 186.22 34.5063 186.325 34.211C186.324 34.2987 186.311 34.3858 186.285 34.4689C186.23 34.6982 186.149 34.9193 186.045 35.1273C185.696 35.8252 185.136 36.3668 184.462 36.6582C184.095 36.8187 183.707 36.9132 183.313 36.9381C182.989 36.9578 182.664 36.9055 182.359 36.7844C182.158 36.6961 181.969 36.5759 181.799 36.4278C181.679 36.3235 181.62 36.2577 181.625 36.2467Z" fill="#455A64"/>
<path d="M181.309 38.3976C181.309 38.3976 181.614 38.5238 182.123 38.617C182.785 38.7456 183.466 38.6759 184.094 38.4152C184.723 38.1545 185.276 37.7124 185.695 37.1355C186.02 36.6966 186.15 36.3673 186.17 36.3783C186.19 36.3893 186.17 36.4661 186.095 36.6143C186.002 36.8199 185.893 37.0163 185.77 37.2014C185.357 37.8159 184.792 38.2867 184.141 38.5572C183.491 38.8277 182.783 38.8866 182.104 38.7268C181.9 38.6817 181.7 38.6137 181.509 38.5238C181.437 38.4943 181.369 38.4517 181.309 38.3976Z" fill="#455A64"/>
<path d="M187.294 44.4443C187.274 44.4443 187.255 44.4357 187.241 44.4202C187.227 44.4048 187.219 44.3839 187.219 44.362C187.219 44.3402 187.227 44.3193 187.241 44.3038C187.255 44.2884 187.274 44.2797 187.294 44.2797C187.304 44.2796 187.313 44.2817 187.322 44.286C187.33 44.2902 187.338 44.2965 187.344 44.3043C187.351 44.3122 187.355 44.3214 187.358 44.3314C187.36 44.3413 187.361 44.3518 187.36 44.362C187.36 44.3821 187.353 44.4015 187.341 44.4167C187.329 44.4318 187.312 44.4417 187.294 44.4443Z" fill="#EB996E"/>
<path d="M188.498 44.4389C188.463 44.4389 188.433 44.395 188.433 44.3456C188.433 44.3235 188.44 44.3019 188.452 44.2848C188.465 44.2678 188.483 44.2562 188.503 44.2523C188.524 44.2564 188.542 44.2689 188.554 44.2873C188.566 44.3057 188.572 44.3286 188.569 44.3511C188.569 44.4005 188.538 44.4444 188.498 44.4389Z" fill="#EB996E"/>
<path d="M189.272 44.609C189.236 44.609 189.211 44.5486 189.216 44.4828C189.221 44.4169 189.256 44.3676 189.297 44.3676C189.337 44.3676 189.357 44.4279 189.352 44.4992C189.347 44.5706 189.312 44.6145 189.272 44.609Z" fill="#EB996E"/>
<path d="M187.699 45.3663C187.659 45.3663 187.634 45.3279 187.639 45.3004C187.644 45.273 187.679 45.262 187.714 45.3004C187.749 45.3388 187.779 45.3388 187.774 45.3608C187.769 45.3827 187.734 45.3663 187.699 45.3663Z" fill="#EB996E"/>
<path d="M188.803 45.3663C188.784 45.3622 188.767 45.3503 188.755 45.3329C188.744 45.3155 188.739 45.294 188.742 45.273C188.742 45.2236 188.783 45.1907 188.823 45.1962C188.841 45.2014 188.857 45.2138 188.867 45.2311C188.877 45.2483 188.881 45.2692 188.878 45.2894C188.878 45.3 188.876 45.3105 188.872 45.3202C188.868 45.3299 188.863 45.3386 188.856 45.3458C188.849 45.353 188.84 45.3585 188.831 45.3621C188.822 45.3656 188.812 45.367 188.803 45.3663Z" fill="#EB996E"/>
<path d="M194.413 46.0027C194.403 46.0021 194.394 45.9993 194.385 45.9944C194.376 45.9895 194.369 45.9828 194.363 45.9745C194.356 45.9663 194.352 45.9567 194.349 45.9464C194.347 45.9362 194.346 45.9255 194.347 45.9149C194.347 45.894 194.355 45.8739 194.368 45.8586C194.381 45.8433 194.399 45.834 194.418 45.8326C194.437 45.8354 194.454 45.846 194.466 45.8623C194.479 45.8787 194.485 45.8995 194.483 45.9204C194.483 45.9413 194.476 45.9615 194.463 45.9768C194.45 45.9921 194.432 46.0013 194.413 46.0027Z" fill="#EB996E"/>
<path d="M195.207 46.1179C195.187 46.1115 195.171 46.0972 195.16 46.0778C195.15 46.0584 195.147 46.0355 195.152 46.0137C195.152 45.9643 195.192 45.9259 195.227 45.9314C195.248 45.9366 195.266 45.9505 195.277 45.97C195.288 45.9895 195.292 46.0131 195.287 46.0356C195.286 46.0579 195.277 46.0789 195.262 46.0942C195.247 46.1095 195.227 46.118 195.207 46.1179Z" fill="#EB996E"/>
<path d="M193.718 45.8546C193.701 45.8533 193.685 45.8454 193.673 45.8322C193.661 45.8191 193.654 45.8017 193.653 45.7832C193.655 45.7653 193.664 45.749 193.677 45.7378C193.69 45.7266 193.707 45.7213 193.723 45.7229C193.732 45.7221 193.74 45.7233 193.748 45.7262C193.756 45.7292 193.763 45.7339 193.769 45.7401C193.775 45.7463 193.78 45.7538 193.784 45.7622C193.787 45.7706 193.789 45.7796 193.789 45.7887C193.788 45.7981 193.786 45.8072 193.782 45.8156C193.778 45.824 193.772 45.8315 193.766 45.8376C193.759 45.8437 193.752 45.8484 193.744 45.8513C193.735 45.8542 193.727 45.8553 193.718 45.8546Z" fill="#EB996E"/>
<path d="M194.122 46.8532C194.112 46.8547 194.102 46.8541 194.093 46.8513C194.083 46.8486 194.074 46.8437 194.066 46.8371C194.058 46.8304 194.051 46.8221 194.046 46.8127C194.041 46.8032 194.038 46.7927 194.037 46.7819C194.034 46.7609 194.037 46.7393 194.047 46.7211C194.058 46.703 194.074 46.6894 194.092 46.6831C194.111 46.6815 194.13 46.688 194.145 46.7013C194.16 46.7146 194.17 46.7336 194.173 46.7544C194.177 46.7748 194.175 46.7964 194.165 46.8147C194.156 46.8331 194.141 46.8468 194.122 46.8532Z" fill="#EB996E"/>
<path d="M194.817 46.8696C194.81 46.8665 194.803 46.8618 194.797 46.8557C194.791 46.8496 194.786 46.8422 194.782 46.834C194.779 46.8257 194.777 46.8169 194.777 46.8079C194.777 46.7989 194.779 46.79 194.782 46.7818C194.793 46.7687 194.807 46.7599 194.823 46.7569C194.838 46.7538 194.854 46.7567 194.868 46.7649C194.883 46.7732 194.894 46.7865 194.9 46.8025C194.906 46.8185 194.907 46.8363 194.903 46.8531C194.898 46.8604 194.892 46.8667 194.886 46.8715C194.879 46.8763 194.871 46.8796 194.863 46.8811C194.855 46.8827 194.847 46.8824 194.839 46.8804C194.831 46.8785 194.824 46.8748 194.817 46.8696Z" fill="#EB996E"/>
<path d="M165.77 115.2L158.312 142.158L136.224 154.301L140.989 166.488L172.129 153.687L181.85 120.869L165.77 115.2Z" fill="#CE7A63"/>
<path d="M168.662 56.5983L148.451 70.6891C147.466 71.3762 146.731 72.4207 146.374 73.6411L140.035 95.1231L147.003 97.8282L154.356 77.74L172.553 69.46L168.662 56.5983Z" fill="#C2EBF8"/>
<path d="M190.381 63.1937L190.96 62.3158L189.906 58.9741L187.049 63.7314L186.285 61.136L180.55 53.6352L178.053 55.638L168.647 56.5982L168.702 56.8835L166.904 72.1321L165.81 88.5111L163.617 96.5332L162.693 97.6306C162.418 97.9543 162.22 98.3477 162.118 98.7756C162.015 99.2036 162.01 99.6528 162.103 100.083L162.168 100.369L185.256 108.599L187.044 105.532L194.222 68.1814L190.381 63.1937Z" fill="#C2EBF8"/>
<path d="M213.169 126.076C212.934 123.639 212.056 121.331 210.642 119.435C209.228 117.54 207.341 116.14 205.212 115.409L185.386 108.55L162.183 100.363C160.871 103.614 160.278 107.161 160.455 110.712C160.735 115.765 165.76 120.589 170.785 122.01L199.607 129.993L205.042 161.27L216.486 160.266L213.169 126.076Z" fill="#CE7A63"/>
<path d="M199.742 130.18C199.615 130.173 199.489 130.151 199.367 130.114L198.313 129.856C197.399 129.626 196.08 129.269 194.462 128.808C191.215 127.892 186.764 126.498 181.784 125.214C177.535 124.086 173.352 122.671 169.261 120.978C167.693 120.325 166.444 119.744 165.585 119.332C165.155 119.129 164.826 118.953 164.586 118.838C164.47 118.786 164.358 118.723 164.251 118.652C164.373 118.685 164.492 118.731 164.606 118.789L165.605 119.233C166.474 119.617 167.733 120.166 169.306 120.797C173.414 122.423 177.6 123.803 181.844 124.929C186.839 126.207 191.275 127.634 194.507 128.6L198.338 129.736L199.382 130.043C199.505 130.079 199.625 130.125 199.742 130.18Z" fill="#455A64"/>
<path d="M202.555 126.427C202.318 127.225 201.91 127.95 201.366 128.539C200.888 129.194 200.272 129.712 199.572 130.048C199.527 129.977 200.357 129.351 201.176 128.347C201.995 127.343 202.485 126.388 202.555 126.427Z" fill="#455A64"/>
<path d="M204.268 129.319C203.567 129.758 202.788 130.025 201.985 130.103C201.194 130.276 200.378 130.261 199.592 130.059C199.592 129.972 200.661 130.026 201.945 129.823C203.229 129.62 204.243 129.209 204.268 129.319Z" fill="#455A64"/>
<path d="M172.109 103.952C172.109 103.881 179.102 106.218 187.634 109.181C196.165 112.144 203.119 114.602 203.079 114.668C203.039 114.734 196.085 112.402 187.554 109.439C179.022 106.476 172.089 104.029 172.109 103.952Z" fill="#455A64"/>
<path d="M172.548 67.9016C172.898 67.3507 173.175 66.7486 173.372 66.1128C173.573 65.4198 173.701 64.7035 173.752 63.9784C173.826 63.0938 173.777 62.202 173.607 61.3336C173.414 60.4743 173.056 59.6701 172.558 58.9741C172.147 58.4084 171.648 57.9272 171.085 57.553C170.543 57.2313 169.98 56.9544 169.401 56.7244C169.571 56.7295 169.739 56.7609 169.901 56.8177C170.343 56.9424 170.769 57.1267 171.169 57.3664C171.773 57.7276 172.308 58.214 172.743 58.7985C173.273 59.518 173.652 60.3575 173.852 61.2568C174.034 62.1568 174.08 63.0839 173.987 64.0003C173.925 64.7503 173.773 65.4882 173.537 66.1951C173.388 66.6726 173.171 67.1209 172.893 67.523C172.703 67.7919 172.558 67.9126 172.548 67.9016Z" fill="#263238"/>
<path d="M166.904 72.1321C168.227 71.7535 170.96 70.1293 170.96 70.1293C169.316 74.8757 167.548 80.5548 166.005 85.3395C166.454 80.9169 166.454 76.5602 166.904 72.1321Z" fill="black"/>
<path d="M151.723 75.0623C152.32 75.3354 152.851 75.7582 153.272 76.2969C153.753 76.7724 154.125 77.3666 154.356 78.0308C154.291 78.0747 153.811 77.312 153.087 76.4999C152.363 75.6878 151.678 75.1336 151.723 75.0623Z" fill="#263238"/>
<path d="M153.352 72.0883C153.886 72.9106 154.267 73.8415 154.471 74.8268C154.675 75.8122 154.699 76.8323 154.541 77.8278C154.483 76.8436 154.376 75.8636 154.221 74.8922C153.978 73.9408 153.688 73.0048 153.352 72.0883Z" fill="#263238"/>
<path d="M163.459 85.175C163.459 85.2573 163.459 85.3231 163.408 85.3231C163.357 85.3231 163.362 85.2573 163.362 85.175C163.362 85.0927 163.362 85.0323 163.408 85.0323C163.453 85.0323 163.459 85.0981 163.459 85.175Z" fill="#263238"/>
<path d="M187.059 105.516C187.06 105.404 187.073 105.294 187.099 105.186L187.269 104.254C187.433 103.409 187.653 102.251 187.928 100.835L190.086 89.5591C190.93 85.1694 191.689 81.1968 192.249 78.2777C192.529 76.8675 192.748 75.7097 192.923 74.8647L193.118 73.9374C193.14 73.8294 193.168 73.723 193.203 73.6191C193.206 73.7299 193.196 73.8406 193.173 73.9484C193.133 74.1953 193.083 74.4971 193.023 74.8867C192.878 75.7372 192.673 76.9004 192.429 78.3216C191.929 81.2133 191.185 85.2133 190.341 89.6195C189.496 94.0256 188.707 98.0037 188.108 100.879C187.803 102.317 187.553 103.48 187.369 104.281C187.279 104.654 187.209 104.961 187.154 105.197C187.133 105.307 187.102 105.414 187.059 105.516Z" fill="#263238"/>
<path d="M198.437 88.0282C198.409 87.2104 198.59 86.4002 198.962 85.6907C199.258 84.9378 199.739 84.29 200.351 83.8196C200.41 83.8855 199.721 84.6482 199.197 85.8169C198.672 86.9857 198.517 88.0447 198.437 88.0282Z" fill="#263238"/>
<path d="M199.607 89.3617C199.388 88.4218 199.343 87.4431 199.474 86.4837C199.605 85.5242 199.91 84.6034 200.371 83.7758C200.446 83.8142 199.937 84.9775 199.737 86.5194C199.649 87.4637 199.605 88.4124 199.607 89.3617Z" fill="#263238"/>
<path d="M223.743 84.3848L219.932 84.4232L220.407 85.7511L223.714 84.8951L223.743 84.3848Z" fill="#FFBE9D"/>
<path d="M191.135 84.8238C191.135 84.8238 193.673 89.6963 193.633 89.5701C193.803 84.9171 193.788 80.478 192.809 75.9457" fill="black"/>
<path d="M186.295 61.2787C186.295 61.3062 185.95 61.6464 185.371 62.2664C184.791 62.8865 183.997 63.7973 182.958 64.7411L182.843 64.8453L182.773 64.7027L181.624 62.3652C180.69 60.5051 179.806 58.848 179.162 57.6518L178.392 56.2087C178.288 56.0383 178.204 55.8538 178.143 55.66C178.273 55.8031 178.388 55.9634 178.482 56.1373C178.682 56.4556 178.982 56.922 179.312 57.5091C180.001 58.6834 180.91 60.3295 181.844 62.1951C182.259 63.0181 182.643 63.8412 182.983 64.5436L182.798 64.4997C183.832 63.5888 184.646 62.6889 185.266 62.1128C185.579 61.7927 185.924 61.5128 186.295 61.2787Z" fill="#263238"/>
<path d="M190.835 62.5737C190.759 62.7762 190.651 62.962 190.515 63.1224C190.296 63.4681 189.941 63.9345 189.576 64.4997L189.437 64.7082L189.367 64.4668C189.222 63.9729 189.072 63.4407 188.907 62.881L188.612 61.7836L188.832 61.833C188.295 62.6152 187.702 63.3492 187.059 64.0278C187.524 63.1906 188.05 62.396 188.632 61.6519L188.777 61.4489L188.852 61.7013L189.157 62.7603C189.307 63.3163 189.452 63.8431 189.591 64.3405L189.382 64.3076C189.781 63.7589 190.151 63.3035 190.406 62.9852C190.66 62.667 190.81 62.5572 190.835 62.5737Z" fill="#263238"/>
<path d="M187.059 63.9729C186.784 63.567 186.611 63.0879 186.56 62.5847C186.423 62.1146 186.337 61.6283 186.305 61.1361C186.579 61.541 186.751 62.0178 186.804 62.5189C186.939 62.9915 187.024 63.4793 187.059 63.9729Z" fill="#263238"/>
<path d="M183.168 102.843C183.168 102.843 183.448 103.019 183.668 103.518C183.807 103.844 183.876 104.201 183.871 104.561C183.866 104.921 183.786 105.275 183.638 105.596C183.489 105.917 183.277 106.196 183.015 106.414C182.754 106.631 182.451 106.78 182.129 106.849C181.872 106.94 181.594 106.926 181.345 106.811C181.345 106.767 181.645 106.811 182.084 106.657C182.368 106.571 182.632 106.421 182.86 106.217C183.088 106.012 183.274 105.757 183.407 105.469C183.54 105.181 183.617 104.865 183.633 104.543C183.648 104.22 183.603 103.897 183.498 103.595C183.338 103.118 183.133 102.876 183.168 102.843Z" fill="#263238"/>
<path d="M187.703 64.7082C187.716 64.8377 187.716 64.9683 187.703 65.0978C187.703 65.3831 187.703 65.7562 187.668 66.1952C187.638 67.1664 187.564 68.5711 187.444 70.305C187.214 73.7729 186.769 78.5356 186.03 83.8087C185.291 89.0818 184.392 93.7623 183.652 97.1423C183.288 98.8378 182.968 100.199 182.733 101.137L182.458 102.234C182.433 102.363 182.394 102.488 182.344 102.607C182.357 102.478 182.379 102.35 182.409 102.223C182.463 101.944 182.543 101.581 182.633 101.126C182.843 100.182 183.133 98.8104 183.477 97.1149C184.167 93.7239 185.031 89.016 185.775 83.7813C186.52 78.5466 186.984 73.7674 187.274 70.305C187.414 68.5766 187.514 67.1719 187.579 66.2062C187.613 65.7453 187.638 65.3721 187.663 65.1087C187.663 64.974 187.676 64.8396 187.703 64.7082Z" fill="#263238"/>
<path d="M185.331 102.591C184.938 102.752 184.525 102.848 184.107 102.876C183.112 103.011 182.105 103.011 181.11 102.876C180.109 102.743 179.126 102.478 178.183 102.086C177.785 101.946 177.408 101.742 177.064 101.483C178.39 101.98 179.754 102.347 181.14 102.58C182.534 102.721 183.936 102.725 185.331 102.591Z" fill="#263238"/>
<path d="M169.096 99.4798C167.103 98.948 165.232 97.967 163.602 96.599C163.642 96.5277 164.811 97.3069 166.329 98.097C167.848 98.8872 169.121 99.4029 169.096 99.4798Z" fill="#263238"/>
<path d="M159.501 92.4344C159.501 92.5167 159.476 92.5771 159.441 92.5771C159.405 92.5771 159.385 92.5167 159.385 92.4344C159.385 92.3521 159.41 92.2917 159.441 92.2917C159.471 92.2917 159.501 92.3576 159.501 92.4344Z" fill="#263238"/>
<path d="M158.547 69.4051C158.518 68.7088 158.573 68.0113 158.712 67.331C158.77 66.6364 158.913 65.9536 159.137 65.3008C159.172 65.9972 159.116 66.6957 158.972 67.3749C158.914 68.0695 158.771 68.7523 158.547 69.4051Z" fill="white"/>
<path d="M167.183 67.8083C166.796 67.5636 166.436 67.2709 166.109 66.9359C165.535 66.4475 165.03 66.0964 165.065 66.0195C165.516 66.1284 165.931 66.367 166.269 66.7109C166.869 67.2157 167.233 67.7589 167.183 67.8083Z" fill="white"/>
<path d="M151.479 72.5767C151.1 72.4936 150.743 72.3214 150.43 72.0719C149.886 71.7207 149.476 71.386 149.511 71.3146C149.891 71.3983 150.249 71.5725 150.56 71.8249C151.105 72.1706 151.514 72.5053 151.479 72.5767Z" fill="white"/>
<path d="M150.365 79.5233C149.821 79.8609 149.238 80.1139 148.631 80.275C148.052 80.5245 147.443 80.6833 146.823 80.7469C147.368 80.4153 147.951 80.1643 148.557 80.0007C149.136 79.7511 149.745 79.5905 150.365 79.5233Z" fill="white"/>
<path d="M146.194 91.3314C145.734 90.1589 145.562 88.8742 145.694 87.6057C145.843 88.2125 145.938 88.8336 145.979 89.4604C146.105 90.0751 146.177 90.7016 146.194 91.3314Z" fill="white"/>
<path d="M163.582 72.3956C163.001 72.674 162.399 72.8998 161.784 73.0705C161.197 73.3338 160.59 73.543 159.971 73.696C161.059 72.9415 162.299 72.4948 163.582 72.3956Z" fill="white"/>
<path d="M170.425 60.7903C169.657 60.7774 168.893 60.6688 168.147 60.4666C167.384 60.3552 166.636 60.151 165.914 59.8575C166.684 59.871 167.45 59.9814 168.197 60.1868C168.958 60.2965 169.705 60.499 170.425 60.7903Z" fill="white"/>
<path d="M175.76 61.0647C175.808 60.4488 175.945 59.8451 176.165 59.2759C176.298 58.675 176.517 58.1009 176.814 57.575C176.763 58.1903 176.626 58.7935 176.409 59.3637C176.273 59.9638 176.054 60.5374 175.76 61.0647Z" fill="white"/>
<path d="M180.466 67.5011C179.528 66.6966 178.778 65.6584 178.278 64.4722C178.7 64.9234 179.079 65.4197 179.412 65.9537C179.811 66.4279 180.164 66.9465 180.466 67.5011Z" fill="white"/>
<path d="M175.395 73.0869C175.222 72.4886 175.131 71.8654 175.125 71.2378C175.042 70.6156 175.042 69.9834 175.125 69.3612C175.303 69.9602 175.394 70.586 175.395 71.2158C175.485 71.8357 175.485 72.4671 175.395 73.0869Z" fill="white"/>
<path d="M169.936 76.1927C169.891 76.2531 169.436 75.9019 168.967 75.4081C168.497 74.9142 168.122 74.4643 168.172 74.4094C168.222 74.3545 168.672 74.7057 169.141 75.1941C169.611 75.6824 169.986 76.1378 169.936 76.1927Z" fill="white"/>
<path d="M172.687 80.2914C171.893 80.8619 170.958 81.1476 170.01 81.109C170.435 80.8992 170.881 80.7445 171.338 80.6481C171.773 80.4671 172.226 80.3473 172.687 80.2914Z" fill="white"/>
<path d="M182.304 77.0486C181.875 75.9207 181.729 74.6875 181.879 73.4765C182.019 74.058 182.105 74.6537 182.134 75.2543C182.246 75.8445 182.303 76.4457 182.304 77.0486Z" fill="white"/>
<path d="M180.241 84.8732C179.892 84.433 179.612 83.9324 179.412 83.3916C179.134 82.8929 178.932 82.3481 178.812 81.7784C179.161 82.2186 179.441 82.7192 179.641 83.26C179.919 83.7587 180.121 84.3035 180.241 84.8732Z" fill="white"/>
<path d="M172.753 90.1629C172.837 89.4543 173.005 88.7608 173.252 88.0998C173.426 87.4077 173.685 86.7449 174.022 86.1299C173.937 86.8384 173.769 87.532 173.522 88.193C173.349 88.8851 173.09 89.5478 172.753 90.1629Z" fill="white"/>
<path d="M169.616 94.6073C169.367 94.2356 169.185 93.8145 169.082 93.3672C168.901 92.95 168.802 92.4957 168.792 92.0338C169.044 92.4037 169.226 92.8254 169.327 93.2739C169.507 93.6911 169.606 94.1454 169.616 94.6073Z" fill="white"/>
<path d="M180.601 93.8007C180.125 94.2295 179.597 94.5823 179.032 94.8487C178.504 95.1975 177.934 95.4635 177.339 95.6388C177.817 95.2123 178.347 94.8596 178.912 94.5908C179.439 94.2425 180.007 93.9766 180.601 93.8007Z" fill="white"/>
<path d="M173.591 100.489C173.433 100.133 173.354 99.7395 173.362 99.3426C173.307 98.6951 173.317 98.1684 173.392 98.1629C173.551 98.5215 173.629 98.9165 173.621 99.3152C173.676 99.9572 173.666 100.484 173.591 100.489Z" fill="white"/>
<path d="M165.49 100.643C165.435 100.687 165.1 100.215 164.955 99.5128C164.826 99.0987 164.835 98.6474 164.98 98.2398C165.09 98.6338 165.167 99.0378 165.21 99.447C165.335 99.836 165.428 100.236 165.49 100.643Z" fill="white"/>
<path d="M179.392 103.897C179.007 104.183 178.576 104.388 178.123 104.5C177.697 104.699 177.242 104.813 176.779 104.835C177.162 104.548 177.591 104.343 178.043 104.232C178.471 104.032 178.927 103.919 179.392 103.897Z" fill="white"/>
<path d="M185.411 106.158C185.341 106.158 185.206 105.73 185.111 105.175C185.016 104.621 184.991 104.155 185.061 104.138C185.131 104.122 185.266 104.561 185.366 105.12C185.465 105.68 185.485 106.141 185.411 106.158Z" fill="white"/>
<path d="M186.185 98.4757C185.905 98.1334 185.691 97.732 185.556 97.2959C185.347 96.8998 185.215 96.461 185.166 96.0065C185.446 96.3472 185.66 96.7467 185.796 97.1807C186.005 97.5786 186.137 98.0193 186.185 98.4757Z" fill="white"/>
<path d="M188.523 90.0914C188.562 90.1572 188.098 90.5413 187.494 90.9474C187.148 91.2371 186.752 91.4462 186.33 91.5619C186.619 91.2066 186.969 90.9159 187.359 90.7059C187.705 90.4173 188.101 90.2083 188.523 90.0914Z" fill="white"/>
<path d="M188.658 85.2793C188.382 84.918 188.199 84.4823 188.128 84.0173C187.979 83.5756 187.943 83.0973 188.024 82.6345C188.194 83.0527 188.313 83.4936 188.378 83.9459C188.528 84.3738 188.622 84.8226 188.658 85.2793Z" fill="white"/>
<path d="M191.05 74.2283C190.696 74.6818 190.282 75.074 189.822 75.3915C189.407 75.7811 188.941 76.0977 188.438 76.3298C188.789 75.872 189.204 75.4776 189.667 75.1611C190.078 74.7684 190.545 74.4532 191.05 74.2283Z" fill="white"/>
<path d="M191.485 70.766C191.445 70.8264 190.985 70.5191 190.57 69.932C190.285 69.6091 190.109 69.1891 190.071 68.7413C190.141 68.7083 190.386 69.2132 190.765 69.7564C191.145 70.2996 191.53 70.7002 191.485 70.766Z" fill="white"/>
<path d="M195.146 78.3655C195.114 77.7822 195.166 77.1968 195.301 76.6316C195.354 76.0502 195.491 75.4817 195.706 74.9471C195.742 75.5302 195.691 76.1158 195.556 76.681C195.503 77.263 195.364 77.8318 195.146 78.3655Z" fill="white"/>
<path d="M197.42 83.5015C196.949 83.4583 196.491 83.3207 196.066 83.0954C195.611 82.959 195.184 82.7301 194.807 82.4205C195.277 82.4671 195.735 82.6046 196.161 82.8266C196.614 82.9667 197.04 83.1954 197.42 83.5015Z" fill="white"/>
<path d="M196.834 91.0351C196.54 90.6629 196.313 90.2328 196.165 89.7676C195.939 89.3406 195.791 88.869 195.73 88.3794C196.252 89.1774 196.627 90.0795 196.834 91.0351Z" fill="white"/>
<path d="M204.367 86.8322C204.012 87.3646 203.616 87.8621 203.183 88.3192C202.813 88.8421 202.402 89.3286 201.955 89.7733C202.198 89.1558 202.55 88.5966 202.989 88.1272C203.366 87.5996 203.834 87.1594 204.367 86.8322Z" fill="white"/>
<path d="M209.007 88.0009C208.591 87.7043 208.223 87.3334 207.919 86.9035C207.553 86.5296 207.249 86.0898 207.019 85.6031C207.806 86.2719 208.482 87.0849 209.017 88.0064L209.007 88.0009Z" fill="white"/>
<path d="M220.877 73.9265V66.2643H217.21L222.84 57.5986L228.47 66.2643H224.939V73.9265H220.877Z" fill="#75F838"/>
<path d="M212.954 76.5712V71.6836H210.611L214.216 66.1525L217.809 71.6836H215.556V76.5712H212.954Z" fill="#75F838"/>
<path d="M196.59 160.529C196.509 160.549 196.428 160.563 196.345 160.573L195.611 160.677C195.286 160.71 194.887 160.771 194.417 160.864C193.948 160.957 193.418 161.039 192.799 161.193C186.931 162.544 181.485 165.553 176.999 169.923C174.89 171.997 173.032 174.359 171.469 176.952C167.832 182.996 165.858 190.064 165.785 197.309V197.792L165.55 197.386C164.256 195.211 162.626 193.3 160.735 191.74C154.441 186.554 146.534 184.65 139.845 185.901L138.606 186.187C138.401 186.226 138.198 186.285 138.002 186.362L137.407 186.571C137.018 186.719 136.613 186.823 136.244 187.004L135.125 187.553C134.755 187.725 134.395 187.919 134.046 188.135L133.002 188.744L132.003 189.424C131.675 189.64 131.358 189.877 131.054 190.132C128.78 191.95 126.773 194.141 125.104 196.629C123.731 198.682 122.559 200.889 121.608 203.213L121.023 204.711C120.849 205.194 120.699 205.671 120.549 206.127C120.229 207.027 120.049 207.883 119.81 208.634C119.43 210.165 119.17 211.378 119.04 212.19C118.97 212.591 118.915 212.903 118.875 213.123C118.835 213.342 118.811 213.441 118.811 213.441C118.818 213.332 118.832 213.224 118.85 213.117C118.88 212.898 118.93 212.569 118.99 212.179C119.177 210.976 119.419 209.784 119.715 208.607C119.924 207.844 120.114 206.961 120.429 206.077C120.579 205.627 120.724 205.145 120.898 204.656L121.478 203.147C122.425 200.804 123.597 198.578 124.975 196.508C126.65 193.985 128.672 191.764 130.969 189.923C131.274 189.666 131.593 189.428 131.923 189.21L132.922 188.513L133.976 187.899C134.327 187.678 134.691 187.482 135.065 187.312L136.194 186.763C136.568 186.576 136.978 186.472 137.373 186.318L137.972 186.11C138.172 186.03 138.377 185.97 138.586 185.929L139.84 185.638C146.604 184.36 154.566 186.269 160.925 191.509C162.841 193.09 164.491 195.027 165.8 197.232L165.565 197.304C165.639 190.005 167.636 182.887 171.315 176.809C172.89 174.203 174.765 171.831 176.894 169.753C178.737 167.967 180.746 166.4 182.888 165.078C185.978 163.183 189.318 161.831 192.789 161.072C193.398 160.924 193.943 160.842 194.417 160.765C194.892 160.688 195.291 160.628 195.616 160.6L196.35 160.524C196.505 160.529 196.59 160.529 196.59 160.529Z" fill="#263238"/>
<path d="M276.278 165.314H242.186V260.059H276.278V165.314Z" fill="#FF725E"/>
<path d="M276.278 165.314H242.186V260.059H276.278V165.314Z" fill="black"/>
<path d="M267.946 165.314H233.854V260.059H267.946V165.314Z" fill="#49D1F6"/>
<path d="M249.539 203.235V208.475H248.63L246.252 205.293V208.475H245.163V203.235H246.077L248.45 206.418V203.235H249.539Z" fill="white"/>
<path d="M250.268 204.096C250.232 203.808 250.278 203.514 250.398 203.254C250.519 202.995 250.708 202.782 250.942 202.643C251.175 202.505 251.442 202.449 251.705 202.481C251.969 202.514 252.217 202.634 252.417 202.825C252.617 203.017 252.759 203.271 252.824 203.553C252.889 203.836 252.874 204.133 252.781 204.406C252.688 204.679 252.522 204.914 252.304 205.081C252.086 205.247 251.827 205.336 251.562 205.337C251.402 205.354 251.24 205.335 251.087 205.281C250.934 205.227 250.792 205.14 250.671 205.024C250.55 204.907 250.451 204.765 250.382 204.606C250.313 204.446 250.274 204.273 250.268 204.096ZM252.126 204.096C252.126 203.931 252.066 203.771 251.959 203.654C251.853 203.537 251.708 203.471 251.557 203.471C251.406 203.471 251.261 203.537 251.154 203.654C251.047 203.771 250.987 203.931 250.987 204.096C250.987 204.262 251.047 204.421 251.154 204.539C251.261 204.656 251.406 204.722 251.557 204.722C251.708 204.722 251.853 204.656 251.959 204.539C252.066 204.421 252.126 204.262 252.126 204.096Z" fill="white"/>
<path d="M257.561 207.372H256.786V208.47H255.707V207.372H253.14V206.555L255.388 203.235H256.547L254.464 206.385H255.742V205.402H256.786V206.385H257.561V207.372Z" fill="white"/>
<path d="M276.298 169.66C276.225 169.854 276.131 170.038 276.018 170.208L275.174 171.668C274.455 172.897 273.446 174.576 272.312 176.425C271.178 178.274 270.139 179.937 269.375 181.128C268.988 181.794 268.552 182.423 268.071 183.01C268.089 182.959 268.113 182.912 268.141 182.867L268.365 182.466C268.6 182.071 268.865 181.588 269.22 181.012C269.949 179.794 270.963 178.11 272.097 176.266C273.231 174.422 274.265 172.754 275.024 171.558L275.933 170.148C276.036 169.97 276.159 169.806 276.298 169.66Z" fill="#FF725E"/>
<path d="M276.298 186.724C276.225 186.919 276.131 187.103 276.018 187.273L275.174 188.733C274.455 189.962 273.446 191.641 272.312 193.49C271.178 195.339 270.139 196.996 269.375 198.192C268.988 198.859 268.552 199.488 268.071 200.075C268.09 200.023 268.113 199.973 268.141 199.926C268.211 199.806 268.286 199.679 268.365 199.526C268.6 199.136 268.865 198.648 269.22 198.077C269.949 196.854 270.963 195.175 272.097 193.331C273.231 191.487 274.265 189.819 275.024 188.623L275.933 187.213C276.036 187.035 276.159 186.871 276.298 186.724Z" fill="#FF725E"/>
<path d="M276.298 203.784C276.224 203.978 276.13 204.162 276.018 204.332L275.174 205.792C274.455 207.016 273.446 208.7 272.312 210.549C271.178 212.398 270.139 214.056 269.375 215.246C268.989 215.915 268.553 216.546 268.071 217.134C268.09 217.082 268.113 217.033 268.141 216.986L268.365 216.585L269.22 215.137C269.949 213.913 270.963 212.234 272.097 210.385C273.231 208.536 274.265 206.878 275.024 205.677L275.933 204.272C276.038 204.095 276.16 203.931 276.298 203.784Z" fill="#FF725E"/>
<path d="M276.298 220.849C276.224 221.043 276.13 221.227 276.018 221.397L275.174 222.857C274.455 224.08 273.446 225.765 272.312 227.609C271.178 229.452 270.139 231.12 269.375 232.311C268.99 232.978 268.554 233.608 268.071 234.193C268.092 234.144 268.115 234.097 268.141 234.05C268.211 233.93 268.286 233.798 268.365 233.65L269.22 232.201C269.949 230.978 270.963 229.299 272.097 227.45C273.231 225.6 274.265 223.938 275.024 222.742L275.933 221.331C276.037 221.155 276.159 220.993 276.298 220.849Z" fill="#FF725E"/>
<path d="M276.298 237.913C276.225 238.108 276.131 238.292 276.018 238.462L275.174 239.927C274.455 241.151 273.446 242.835 272.312 244.679C271.178 246.523 270.139 248.191 269.375 249.381C268.988 250.047 268.552 250.677 268.071 251.263C268.092 251.215 268.115 251.167 268.141 251.121L268.365 250.72C268.6 250.325 268.865 249.842 269.22 249.266C269.949 248.048 270.963 246.369 272.097 244.52C273.231 242.671 274.265 241.008 275.024 239.812L275.933 238.402C276.036 238.223 276.159 238.06 276.298 237.913Z" fill="#FF725E"/>
<path d="M276.297 254.973C275.855 255.953 275.335 256.89 274.744 257.771C274.223 258.705 273.629 259.588 272.971 260.41C273.415 259.43 273.936 258.493 274.529 257.612C275.046 256.676 275.638 255.793 276.297 254.973Z" fill="#FF725E"/>
<path d="M228.739 183.015H194.647V260.059H228.739V183.015Z" fill="#FF725E"/>
<path d="M228.739 183.015H194.647V260.059H228.739V183.015Z" fill="black"/>
<path d="M220.407 183.015H186.315V260.059H220.407V183.015Z" fill="#787FFA"/>
<path d="M202.03 213.392V218.676H201.126L198.749 215.466V218.676H197.66V213.392H198.569L200.942 216.602V213.392H202.03Z" fill="white"/>
<path d="M202.76 214.259C202.728 213.971 202.777 213.681 202.9 213.425C203.022 213.169 203.213 212.96 203.446 212.825C203.679 212.691 203.944 212.637 204.205 212.672C204.466 212.707 204.712 212.828 204.909 213.02C205.107 213.211 205.246 213.464 205.31 213.745C205.373 214.026 205.357 214.321 205.264 214.592C205.172 214.862 205.006 215.095 204.79 215.26C204.573 215.425 204.317 215.514 204.053 215.515C203.892 215.533 203.729 215.513 203.575 215.458C203.421 215.404 203.279 215.314 203.157 215.197C203.036 215.079 202.938 214.934 202.869 214.773C202.801 214.612 202.764 214.437 202.76 214.259ZM204.623 214.259C204.623 214.093 204.563 213.934 204.456 213.816C204.349 213.699 204.204 213.633 204.053 213.633C203.902 213.633 203.757 213.699 203.651 213.816C203.544 213.934 203.484 214.093 203.484 214.259C203.484 214.424 203.544 214.584 203.651 214.701C203.757 214.818 203.902 214.884 204.053 214.884C204.204 214.884 204.349 214.818 204.456 214.701C204.563 214.584 204.623 214.424 204.623 214.259Z" fill="white"/>
<path d="M209.289 217.057C209.289 217.951 208.669 218.764 207.291 218.764C206.649 218.781 206.016 218.59 205.472 218.215L205.902 217.282C206.299 217.595 206.777 217.76 207.266 217.754C207.815 217.754 208.155 217.507 208.155 217.073C208.155 216.64 207.89 216.426 207.266 216.426H206.766V215.619L207.765 214.39H205.737V213.408H209.074V214.204L208 215.559C208.348 215.58 208.676 215.747 208.916 216.026C209.156 216.305 209.289 216.674 209.289 217.057Z" fill="white"/>
<path d="M228.739 186.099C228.665 186.293 228.571 186.477 228.459 186.648L227.615 188.118C226.895 189.353 225.886 191.054 224.753 192.914C223.619 194.774 222.58 196.453 221.815 197.655C221.429 198.327 220.993 198.964 220.512 199.559C220.528 199.506 220.551 199.456 220.582 199.411C220.651 199.29 220.721 199.158 220.806 199.004L221.66 197.545C222.39 196.31 223.404 194.62 224.538 192.755C225.672 190.889 226.701 189.216 227.465 188.008L228.374 186.587C228.477 186.409 228.599 186.245 228.739 186.099Z" fill="#FF725E"/>
<path d="M228.739 203.306C228.665 203.5 228.571 203.685 228.459 203.855L227.615 205.326C226.895 206.566 225.886 208.261 224.753 210.121C223.619 211.981 222.58 213.66 221.815 214.862C221.43 215.536 220.994 216.173 220.512 216.766C220.528 216.713 220.551 216.663 220.582 216.618L220.806 216.217C221.036 215.817 221.306 215.329 221.66 214.752C222.39 213.518 223.404 211.828 224.538 209.962C225.672 208.097 226.701 206.423 227.465 205.216L228.374 203.795C228.477 203.616 228.599 203.452 228.739 203.306Z" fill="#FF725E"/>
<path d="M228.739 220.514C228.665 220.708 228.571 220.892 228.459 221.063L227.615 222.539C226.895 223.773 225.886 225.469 224.753 227.329C223.619 229.189 222.58 230.868 221.815 232.075C221.43 232.747 220.994 233.382 220.512 233.974C220.528 233.921 220.551 233.871 220.582 233.825L220.806 233.425C221.036 233.024 221.306 232.536 221.66 231.96C222.39 230.731 223.404 229.035 224.538 227.17C225.672 225.304 226.701 223.63 227.465 222.423L228.374 221.002C228.479 220.825 228.601 220.661 228.739 220.514Z" fill="#FF725E"/>
<path d="M228.739 237.721C228.665 237.915 228.571 238.1 228.459 238.27L227.615 239.746C226.895 240.981 225.886 242.676 224.753 244.542C223.619 246.407 222.58 248.081 221.815 249.283C221.43 249.954 220.994 250.589 220.512 251.181C220.528 251.128 220.551 251.078 220.582 251.033L220.806 250.632C221.036 250.237 221.306 249.749 221.66 249.167C222.39 247.938 223.404 246.243 224.538 244.383C225.672 242.523 226.701 240.838 227.465 239.631L228.374 238.21C228.479 238.033 228.601 237.869 228.739 237.721Z" fill="#FF725E"/>
<path d="M228.739 254.929C228.297 255.917 227.777 256.86 227.186 257.749C226.665 258.692 226.072 259.584 225.412 260.416C225.855 259.428 226.374 258.484 226.966 257.596C227.486 256.653 228.079 255.76 228.739 254.929Z" fill="#FF725E"/>
<path d="M180.95 203.306H146.858V260.059H180.95V203.306Z" fill="#FF725E"/>
<path d="M180.95 203.306H146.858V260.059H180.95V203.306Z" fill="black"/>
<path d="M172.618 203.306H138.526V260.059H172.618V203.306Z" fill="#FF66C4"/>
<path d="M154.241 225.771V231.049H153.332L150.954 227.845V231.049H149.865V225.771H150.78L153.152 228.975V225.771H154.241Z" fill="white"/>
<path d="M154.97 226.637C154.936 226.349 154.984 226.056 155.106 225.797C155.228 225.539 155.418 225.328 155.652 225.191C155.886 225.055 156.152 225 156.415 225.034C156.679 225.068 156.926 225.189 157.125 225.381C157.324 225.574 157.464 225.828 157.528 226.11C157.592 226.393 157.577 226.69 157.483 226.962C157.39 227.234 157.223 227.469 157.005 227.634C156.787 227.8 156.529 227.888 156.264 227.889C156.103 227.906 155.94 227.887 155.787 227.832C155.633 227.778 155.491 227.689 155.369 227.572C155.248 227.454 155.15 227.311 155.081 227.15C155.013 226.989 154.975 226.815 154.97 226.637ZM156.828 226.637C156.828 226.472 156.768 226.312 156.661 226.195C156.555 226.078 156.41 226.012 156.259 226.012C156.108 226.012 155.963 226.078 155.856 226.195C155.749 226.312 155.689 226.472 155.689 226.637C155.689 226.803 155.749 226.962 155.856 227.08C155.963 227.197 156.108 227.263 156.259 227.263C156.41 227.263 156.555 227.197 156.661 227.08C156.768 226.962 156.828 226.803 156.828 226.637Z" fill="white"/>
<path d="M161.679 230.056V231.049H158.073V230.281L159.916 228.355C160.336 227.91 160.415 227.642 160.415 227.384C160.415 226.967 160.156 226.725 159.651 226.725C159.456 226.717 159.262 226.763 159.088 226.859C158.913 226.955 158.763 227.097 158.652 227.274L157.848 226.698C158.064 226.374 158.351 226.115 158.681 225.943C159.012 225.772 159.376 225.693 159.741 225.716C160.805 225.716 161.514 226.319 161.514 227.279C161.514 227.79 161.385 228.262 160.715 228.926L159.616 230.072L161.679 230.056Z" fill="white"/>
<path d="M180.945 203.306C180.871 203.5 180.777 203.685 180.665 203.855C180.44 204.256 180.166 204.744 179.826 205.326C179.102 206.566 178.093 208.261 176.959 210.121C175.825 211.981 174.786 213.66 174.022 214.862C173.639 215.536 173.205 216.173 172.723 216.766C172.723 216.766 172.723 216.711 172.793 216.618L173.018 216.217C173.247 215.819 173.532 215.33 173.872 214.752C174.596 213.518 175.61 211.828 176.744 209.962C177.878 208.097 178.912 206.423 179.671 205.216L180.585 203.795C180.688 203.617 180.808 203.453 180.945 203.306Z" fill="#FF725E"/>
<path d="M180.945 220.514C180.871 220.708 180.777 220.892 180.665 221.063L179.826 222.539C179.102 223.773 178.093 225.469 176.959 227.329C175.825 229.189 174.786 230.868 174.022 232.075C173.638 232.747 173.204 233.382 172.723 233.974C172.723 233.974 172.723 233.919 172.793 233.825L173.018 233.425C173.247 233.023 173.532 232.534 173.872 231.96C174.596 230.731 175.61 229.035 176.744 227.17C177.878 225.304 178.912 223.63 179.671 222.423L180.585 221.002C180.689 220.826 180.81 220.662 180.945 220.514Z" fill="#FF725E"/>
<path d="M180.945 237.721C180.871 237.915 180.777 238.1 180.665 238.27L179.826 239.746C179.102 240.981 178.093 242.676 176.959 244.542C175.825 246.407 174.786 248.081 174.022 249.283C173.638 249.955 173.204 250.59 172.723 251.181C172.723 251.181 172.723 251.126 172.793 251.033L173.018 250.632L173.872 249.167C174.596 247.938 175.61 246.243 176.744 244.383C177.878 242.523 178.912 240.838 179.671 239.631L180.585 238.21C180.689 238.034 180.81 237.87 180.945 237.721Z" fill="#FF725E"/>
<path d="M180.946 254.929C180.504 255.917 179.984 256.86 179.392 257.749C178.872 258.691 178.281 259.583 177.624 260.416C178.066 259.428 178.586 258.484 179.178 257.596C179.697 256.653 180.289 255.761 180.946 254.929Z" fill="#FF725E"/>
<path d="M133.157 220.514H99.065V260.059H133.157V220.514Z" fill="#FF725E"/>
<path d="M133.157 220.514H99.065V260.059H133.157V220.514Z" fill="black"/>
<path d="M124.825 220.514H90.7326V260.059H124.825V220.514Z" fill="#FF4680"/>
<path d="M106.463 237.271V242.55H105.559L103.181 239.346V242.55H102.077V237.271H102.966L105.339 240.476V237.271H106.463Z" fill="white"/>
<path d="M107.177 238.138C107.143 237.849 107.191 237.556 107.313 237.297C107.435 237.039 107.627 236.827 107.861 236.691C108.096 236.555 108.363 236.501 108.626 236.535C108.889 236.57 109.137 236.693 109.335 236.886C109.534 237.079 109.674 237.335 109.737 237.618C109.8 237.901 109.782 238.198 109.687 238.471C109.592 238.743 109.424 238.976 109.205 239.141C108.985 239.305 108.726 239.392 108.461 239.389C108.3 239.405 108.139 239.385 107.986 239.33C107.834 239.274 107.693 239.186 107.573 239.068C107.453 238.951 107.355 238.808 107.287 238.648C107.219 238.488 107.182 238.315 107.177 238.138ZM109.035 238.138C109.035 238.014 109.001 237.893 108.939 237.79C108.876 237.687 108.787 237.607 108.682 237.56C108.578 237.513 108.463 237.501 108.353 237.525C108.242 237.55 108.141 237.61 108.061 237.698C107.982 237.786 107.928 237.898 107.906 238.02C107.885 238.141 107.897 238.267 107.941 238.382C107.985 238.496 108.058 238.593 108.153 238.661C108.247 238.729 108.358 238.765 108.471 238.764C108.546 238.769 108.622 238.756 108.693 238.726C108.764 238.696 108.828 238.65 108.881 238.591C108.935 238.532 108.976 238.461 109.002 238.383C109.029 238.305 109.04 238.221 109.035 238.138Z" fill="white"/>
<path d="M112.192 237.271V242.55H111.088V238.248H110.134V237.271H112.192Z" fill="white"/>
<path d="M133.157 220.514C133.083 220.708 132.989 220.892 132.877 221.063L132.033 222.539C131.314 223.773 130.3 225.469 129.171 227.329C128.042 229.189 126.998 230.868 126.234 232.075C125.848 232.747 125.412 233.382 124.93 233.974C124.946 233.921 124.97 233.871 125 233.825L125.225 233.425C125.454 233.024 125.724 232.536 126.079 231.96C126.808 230.731 127.822 229.035 128.951 227.17C130.08 225.304 131.119 223.63 131.883 222.423L132.792 221.002C132.897 220.825 133.019 220.661 133.157 220.514Z" fill="#FF725E"/>
<path d="M133.157 237.721C133.083 237.915 132.989 238.1 132.877 238.27L132.033 239.746C131.314 240.981 130.3 242.676 129.171 244.542C128.042 246.407 126.998 248.081 126.234 249.283C125.848 249.954 125.412 250.589 124.93 251.181C124.946 251.128 124.97 251.078 125 251.033L125.225 250.632C125.454 250.237 125.724 249.749 126.079 249.167C126.808 247.938 127.822 246.243 128.951 244.383C130.08 242.523 131.119 240.838 131.883 239.631L132.792 238.21C132.897 238.033 133.019 237.869 133.157 237.721Z" fill="#FF725E"/>
<path d="M133.157 254.929C132.712 255.915 132.192 256.859 131.603 257.749C131.083 258.692 130.489 259.584 129.83 260.416C130.272 259.428 130.792 258.484 131.383 257.596C131.904 256.653 132.497 255.76 133.157 254.929Z" fill="#FF725E"/>
<path d="M292.342 260.065C292.342 260.142 242.216 260.207 180.396 260.207C118.576 260.207 68.4393 260.142 68.4393 260.065C68.4393 259.988 118.556 259.911 180.391 259.911C242.226 259.911 292.342 259.982 292.342 260.065Z" fill="#263238"/>
<path d="M260.404 111.586C275.067 111.586 286.954 98.528 286.954 82.4205C286.954 66.3131 275.067 53.2555 260.404 53.2555C245.741 53.2555 233.854 66.3131 233.854 82.4205C233.854 98.528 245.741 111.586 260.404 111.586Z" fill="#407BFF"/>
<path d="M260.846 111.586C275.509 111.586 287.396 98.528 287.396 82.4205C287.396 66.3131 275.509 53.2555 260.846 53.2555C246.183 53.2555 234.296 66.3131 234.296 82.4205C234.296 98.528 246.183 111.586 260.846 111.586Z" fill="white"/>
<path d="M263.038 66.3327H257.619C256.628 66.3327 255.824 67.2158 255.824 68.3052V99.242C255.824 100.331 256.628 101.214 257.619 101.214H263.038C264.029 101.214 264.833 100.331 264.833 99.242V68.3052C264.833 67.2158 264.029 66.3327 263.038 66.3327Z" fill="#98FFCA"/>
<path d="M276.281 87.2895V81.3374C276.281 80.248 275.477 79.3649 274.485 79.3649H246.322C245.33 79.3649 244.526 80.248 244.526 81.3374V87.2895C244.526 88.3788 245.33 89.2619 246.322 89.2619H274.485C275.477 89.2619 276.281 88.3788 276.281 87.2895Z" fill="#98FFCA"/>
</svg>
